<svg width="138" height="138" viewBox="0 0 138 138" fill="none" xmlns="http://www.w3.org/2000/svg">
<g clip-path="url(#clip0_8_451)">
<path d="M-112.362 77.6941C-104.512 72.7107 -95.8024 69.0461 -86.7558 66.9147C-81.4658 65.6727 -75.8538 64.9521 -70.6558 66.5007C-63.5411 68.6167 -58.3431 74.5507 -52.1024 78.5527C-39.6211 86.5567 -23.4291 86.4187 -9.1078 82.5547C5.1982 78.6907 18.3389 71.4687 32.0776 65.9027C39.5142 62.8821 47.5796 60.2907 55.4762 61.7934C62.1922 63.0661 67.9882 67.1447 74.2136 69.9814C97.0142 80.3774 123.587 73.6461 148.549 75.6701C162.457 76.8047 176.057 80.7147 189.995 81.2207C201.633 81.6501 213.287 79.6874 224.894 80.4234C242.742 81.5581 260.636 89.0101 278.039 84.8087" stroke="#262929" stroke-width="2.17" stroke-miterlimit="10"/>
</g>
<rect x="0.5" y="0.5" width="137" height="137" rx="68.5" stroke="#6B6B6B"/>
<defs>
<clipPath id="clip0_8_451">
<rect width="138" height="138" rx="69" fill="white"/>
</clipPath>
</defs>
</svg>
