<svg width="138" height="138" viewBox="0 0 138 138" fill="none" xmlns="http://www.w3.org/2000/svg">
<g clip-path="url(#clip0_8_448)">
<path d="M-112.363 77.6941C-104.512 72.7107 -95.8027 69.0461 -86.756 66.9147C-81.466 65.6727 -75.854 64.9521 -70.656 66.5007C-63.5413 68.6167 -58.3433 74.5507 -52.1027 78.5527C-39.6213 86.5567 -23.4293 86.4187 -9.10796 82.5547C5.19804 78.6907 18.3387 71.4687 32.0773 65.9027C39.514 62.8821 47.5793 60.2907 55.476 61.7934C62.192 63.0661 67.988 67.1447 74.2133 69.9814C97.014 80.3774 123.587 73.6461 148.549 75.6701C162.457 76.8047 176.057 80.7147 189.995 81.2207C201.633 81.6501 213.287 79.6874 224.894 80.4234C242.742 81.5581 260.636 89.0101 278.039 84.8087" stroke="#262929" stroke-width="1.08" stroke-miterlimit="10"/>
</g>
<rect x="0.5" y="0.5" width="137" height="137" rx="68.5" stroke="#6B6B6B"/>
<defs>
<clipPath id="clip0_8_448">
<rect width="138" height="138" rx="69" fill="white"/>
</clipPath>
</defs>
</svg>
