<svg width="138" height="138" viewBox="0 0 138 138" fill="none" xmlns="http://www.w3.org/2000/svg">
<g clip-path="url(#clip0_6_165)">
<path d="M23.414 -36.9073C30.9886 -27.9373 25.1773 -8.89325 16.5293 -2.83659C9.78264 1.90141 5.76531 -7.74325 7.16064 -14.0299C7.43664 -15.3179 7.92731 -16.5753 8.75531 -17.5413C10.028 -19.0593 12.0366 -19.7493 13.938 -19.6113C15.8393 -19.4733 17.6486 -18.5839 19.182 -17.3726C21.7273 -15.3793 23.644 -12.4659 24.5486 -9.23059C26.1586 -3.44992 24.5486 2.79075 22.3406 8.34142C20.6846 12.4967 18.6913 16.5141 16.1153 20.0714C14.3673 22.4787 11.914 24.8707 9.09264 24.4721C7.43664 24.2267 5.97997 23.0001 5.16731 21.4361C3.00531 17.2961 4.64597 11.0401 8.08064 8.23408C14.3826 3.09741 23.2146 8.23408 25.2233 15.6554C29.5166 31.5254 18.3846 57.9601 5.68864 48.9594C-2.74469 38.3947 9.58331 22.6014 18.262 29.0107C24.7786 33.8254 26.5266 42.3814 25.5606 50.3854C24.748 57.0861 22.6166 63.9554 18.814 69.4141C17.1886 71.7601 15.134 74.3974 12.2513 74.7654C9.36864 75.1334 6.99198 73.0481 6.20998 70.1194C5.13664 66.1174 6.71598 61.3334 9.82864 58.8954C15.6553 54.3107 22.31 58.6194 24.5486 65.0901C27.2933 73.0327 26.082 82.4321 21.4206 89.2707C19.5653 91.9847 17.1733 94.3307 14.306 95.6801C12.5733 96.4927 10.4726 96.9067 8.83198 95.8947C7.23731 94.9134 6.50131 92.8281 6.34797 90.8654C5.85731 84.3487 14.5206 73.2014 19.7033 81.3127C23.8433 87.7834 23.3066 97.9494 21.298 105.064C20.0406 109.495 17.8326 113.681 14.3366 116.518C10.4573 119.661 6.85397 114.816 6.82331 111.55C6.76197 102.795 19.55 99.0074 22.31 107.947C23.9353 113.175 23.322 119.263 21.9726 124.461C20.01 132.051 15.1493 140.791 6.91531 140.99" stroke="#262929" stroke-width="0.37" stroke-miterlimit="10"/>
<path d="M50.8759 -25.9901C58.4506 -17.0201 52.6393 2.02388 43.9913 8.08055C37.2293 12.8186 33.2273 3.17388 34.6073 -3.11277C34.8833 -4.40077 35.3739 -5.65811 36.2019 -6.62411C37.4746 -8.14211 39.4833 -8.83212 41.3846 -8.69412C43.2859 -8.55612 45.0953 -7.66677 46.6286 -6.45544C49.1739 -4.46212 51.0906 -1.54877 51.9953 1.68656C53.6053 7.46723 51.9953 13.7079 49.7873 19.2586C48.1313 23.4139 46.1379 27.4312 43.5619 30.9886C41.8139 33.3959 39.3606 35.7879 36.5393 35.3892C34.8833 35.1439 33.4266 33.9172 32.6139 32.3532C30.4519 28.2132 32.0926 21.9572 35.5273 19.1512C41.8293 14.0146 50.6613 19.1512 52.6699 26.5726C56.9633 42.4426 45.8313 68.8772 33.1353 59.8766C24.7019 49.3119 37.0299 33.5186 45.7086 39.9279C52.2253 44.7426 53.9733 53.2986 53.0073 61.3026C52.1946 68.0032 50.0633 74.8726 46.2606 80.3312C44.6353 82.6772 42.5806 85.3146 39.6979 85.6826C36.8153 86.0506 34.4386 83.9652 33.6566 81.0366C32.5833 77.0346 34.1626 72.2506 37.2753 69.8126C43.1019 65.2279 49.7566 69.5366 51.9953 76.0072C54.7399 83.9499 53.5286 93.3492 48.8673 100.188C47.0119 102.902 44.6199 105.248 41.7526 106.597C40.0199 107.41 37.9193 107.824 36.2786 106.812C34.6839 105.831 33.9479 103.745 33.7946 101.783C33.3039 95.2659 41.9673 84.1186 47.1499 92.2299C51.2899 98.7006 50.7533 108.867 48.7446 115.981C47.4873 120.413 45.2793 124.599 41.7833 127.435C37.9039 130.579 34.3006 125.733 34.2699 122.467C34.2086 113.712 46.9966 109.925 49.7566 118.864C51.3819 124.093 50.7686 130.18 49.4193 135.378C47.4566 142.968 42.5959 151.708 34.3619 151.907" stroke="#262929" stroke-width="0.37" stroke-miterlimit="10"/>
<path d="M77.1113 -36.9073C84.686 -27.9373 78.8746 -8.89325 70.2266 -2.83659C63.4646 1.90141 59.4626 -7.74325 60.8426 -14.0299C61.1186 -15.3179 61.6093 -16.5753 62.4373 -17.5413C63.71 -19.0593 65.7186 -19.7493 67.62 -19.6113C69.5213 -19.4733 71.3306 -18.5839 72.864 -17.3726C75.4093 -15.3793 77.326 -12.4659 78.2306 -9.23059C79.8406 -3.44992 78.2306 2.79075 76.0226 8.34142C74.3666 12.4967 72.3733 16.5141 69.7973 20.0714C68.0493 22.4787 65.596 24.8707 62.7746 24.4721C61.1186 24.2267 59.662 23.0001 58.8493 21.4361C56.6873 17.2961 58.328 11.0401 61.7626 8.23408C68.0646 3.09741 76.8966 8.23408 78.9053 15.6554C83.1986 31.5254 72.0666 57.9601 59.3706 48.9594C50.9373 38.3947 63.2653 22.6014 71.944 29.0107C78.4606 33.8254 80.2086 42.3814 79.2426 50.3854C78.43 57.0861 76.2986 63.9554 72.496 69.4141C70.8706 71.7601 68.816 74.3974 65.9333 74.7654C63.0506 75.1334 60.674 73.0481 59.892 70.1194C58.8186 66.1174 60.398 61.3334 63.5106 58.8954C69.3373 54.3107 75.992 58.6194 78.2306 65.0901C80.9753 73.0327 79.764 82.4321 75.1026 89.2707C73.2473 91.9847 70.8553 94.3307 67.988 95.6801C66.2553 96.4927 64.1546 96.9067 62.514 95.8947C60.9193 94.9134 60.1833 92.8281 60.03 90.8654C59.5393 84.3487 68.2026 73.2014 73.3853 81.3127C77.5253 87.7834 76.9886 97.9494 74.98 105.064C73.7226 109.495 71.5146 113.681 68.0186 116.518C64.1393 119.661 60.536 114.816 60.5053 111.55C60.444 102.795 73.232 99.0074 75.992 107.947C77.6173 113.175 77.004 119.263 75.6546 124.461C73.692 132.051 68.8313 140.791 60.5973 140.99" stroke="#262929" stroke-width="0.37" stroke-miterlimit="10"/>
<path d="M129.597 -36.9073C137.172 -27.9373 131.361 -8.89325 122.713 -2.83659C115.951 1.90141 111.949 -7.74325 113.329 -14.0299C113.605 -15.3179 114.095 -16.5753 114.923 -17.5413C116.196 -19.0593 118.205 -19.7493 120.106 -19.6113C122.007 -19.4733 123.817 -18.5839 125.35 -17.3726C127.895 -15.3793 129.812 -12.4659 130.717 -9.23059C132.327 -3.44992 130.717 2.79075 128.509 8.34142C126.853 12.4967 124.859 16.5141 122.283 20.0714C120.535 22.4787 118.082 24.8707 115.261 24.4721C113.605 24.2267 112.148 23.0001 111.335 21.4361C109.173 17.2961 110.814 11.0401 114.249 8.23408C120.551 3.09741 129.383 8.23408 131.391 15.6554C135.685 31.5254 124.553 57.9601 111.857 48.9594C103.423 38.3947 115.751 22.6014 124.43 29.0107C130.947 33.8254 132.695 42.3814 131.729 50.3854C130.916 57.0861 128.785 63.9554 124.982 69.4141C123.357 71.7601 121.302 74.3974 118.419 74.7654C115.537 75.1334 113.16 73.0481 112.378 70.1194C111.305 66.1174 112.884 61.3334 115.997 58.8954C121.823 54.3107 128.478 58.6194 130.717 65.0901C133.461 73.0327 132.25 82.4321 127.589 89.2707C125.733 91.9847 123.341 94.3307 120.474 95.6801C118.741 96.4927 116.641 96.9067 115 95.8947C113.405 94.9134 112.669 92.8281 112.516 90.8654C112.025 84.3487 120.689 73.2014 125.871 81.3127C130.011 87.7834 129.475 97.9494 127.466 105.064C126.209 109.495 124.001 113.681 120.505 116.518C116.625 119.661 113.022 114.816 112.991 111.55C112.93 102.795 125.718 99.0074 128.478 107.947C130.103 113.175 129.49 119.263 128.141 124.461C126.178 132.051 121.317 140.791 113.083 140.99" stroke="#262929" stroke-width="0.37" stroke-miterlimit="10"/>
<path d="M103.362 -17.4954C110.937 -8.52539 105.125 10.5186 96.4773 16.5753C89.7153 21.3133 85.7133 11.6686 87.0933 5.38195C87.3693 4.09395 87.86 2.83661 88.688 1.87061C89.9606 0.352615 91.9693 -0.337385 93.8706 -0.199385C95.772 -0.0613851 97.5813 0.82795 99.1146 2.03928C101.66 4.03261 103.577 6.94594 104.481 10.1813C106.091 15.962 104.481 22.2026 102.273 27.7533C100.617 31.9086 98.624 35.926 96.048 39.4833C94.3 41.8906 91.8466 44.2826 89.0253 43.884C87.3693 43.6386 85.9126 42.412 85.1 40.848C82.938 36.708 84.5786 30.452 88.0133 27.646C94.3153 22.5093 103.147 27.646 105.156 35.0673C109.449 50.9373 98.3173 77.372 85.6213 68.3713C77.188 57.8066 89.516 42.0133 98.1946 48.4226C104.711 53.2373 106.459 61.7933 105.493 69.7973C104.681 76.498 102.549 83.3673 98.7466 88.826C97.1213 91.172 95.0666 93.8093 92.184 94.1773C89.2706 94.5453 86.9246 92.46 86.1426 89.5313C85.0693 85.5293 86.6486 80.7453 89.7613 78.3073C95.588 73.7226 102.243 78.0313 104.481 84.502C107.226 92.4446 106.015 101.844 101.353 108.683C99.498 111.397 97.106 113.743 94.2386 115.092C92.506 115.905 90.4053 116.319 88.7646 115.307C87.17 114.325 86.434 112.24 86.2806 110.277C85.79 103.761 94.4533 92.6133 99.636 100.725C103.776 107.195 103.239 117.361 101.231 124.476C99.9733 128.907 97.7653 133.093 94.2693 135.93C90.39 139.073 86.7866 134.228 86.756 130.962C86.6946 122.207 99.4826 118.419 102.243 127.359C103.868 132.587 103.255 138.675 101.905 143.873C99.9426 151.463 95.082 160.203 86.848 160.402" stroke="#262929" stroke-width="0.37" stroke-miterlimit="10"/>
<path d="M57.178 343.237C53.5593 339.71 53.636 337.333 58.7573 336.72C57.1473 336.919 54.97 330.832 55.43 329.253C56.1967 326.6 60.352 325.91 56.994 321.678C56.718 321.325 56.396 321.003 56.074 320.681C55.0927 319.715 54.1267 318.029 54.6787 316.603C55.2153 315.207 56.8253 314.594 57.0707 313.015C57.4387 310.638 54.694 309.488 54.8933 307.556C55.108 305.394 58.696 305.823 57.73 302.971C57.224 301.484 55.936 300.886 57.0093 299.506C57.638 298.709 59.0947 298.709 59.9687 298.555C60.1987 298.509 60.4593 298.463 60.5207 298.111C60.5513 297.85 60.4287 297.605 60.2293 297.451C59.202 296.715 58.282 295.811 57.5 294.783C56.994 294.139 56.534 293.373 57.224 292.299C57.408 292.023 57.6533 291.793 57.9293 291.609C61.7013 289.233 58.4507 289.831 56.7333 287.73C55.016 285.629 57.2547 284.985 59.4013 283.651C54.5713 279.067 52.9767 281.167 60.03 275.739C58.9413 273.884 54.694 274.497 55.2153 271.492C60.858 267.643 59.3093 266.401 55.8287 264.699C55.3227 264.454 55.292 263.687 55.7673 263.396C67.344 256.143 47.2727 255.975 59.6007 251.237C63.8787 246.744 50.6307 247.94 59.1253 241.883C59.754 241.439 59.8153 240.473 59.2633 239.936C49.358 230.107 69.1073 237.329 55.7827 226.489C55.3227 226.121 55.4147 225.339 55.936 225.109C69.1073 219.19 44.3747 215.51 58.236 213.593C59.938 213.363 58.9567 211.569 58.3433 210.665C57.6073 209.607 54.3873 206.755 55.0467 205.237C55.5067 204.163 58.2973 203.872 59.2173 203.565C60.0453 203.289 56.764 198.597 55.3227 196.558C54.9547 196.037 55.1387 195.301 55.6753 195.025C56.12 194.81 56.58 194.626 57.04 194.427C57.8527 194.059 58.6653 193.583 59.11 192.771C61.1647 189.06 53.1913 189.597 54.3413 185.886C54.8013 184.383 56.5187 183.601 57.2393 182.252C57.8373 181.148 57.5613 180.044 56.8253 179.109C46.7207 167.547 65.366 178.817 54.7093 161.675C54.4947 161.322 54.694 160.847 55.0773 160.801C60.03 160.049 57.8833 155.281 55.4607 152.122C55.2307 151.831 55.3533 151.386 55.706 151.263C59.8613 149.868 56.8867 147.951 55.2153 144.931C54.602 141.711 60.5207 142.201 58.4047 139.227C52.9613 131.974 60.95 132.909 61.042 128.754" stroke="#262929" stroke-width="0.37" stroke-miterlimit="10"/>
<path d="M65.1667 343.237C61.548 339.71 61.6246 337.333 66.746 336.72C65.136 336.919 62.9587 330.832 63.4187 329.253C64.1853 326.6 68.3407 325.91 64.9827 321.678C64.7067 321.325 64.3846 321.003 64.0626 320.681C63.0813 319.715 62.1153 318.029 62.6673 316.603C63.204 315.207 64.814 314.594 65.0593 313.015C65.4273 310.638 62.6826 309.488 62.882 307.556C63.0966 305.394 66.6847 305.823 65.7187 302.971C65.2127 301.484 63.9246 300.886 64.998 299.506C65.6266 298.709 67.0833 298.709 67.9573 298.555C68.1873 298.509 68.448 298.463 68.5093 298.111C68.54 297.85 68.4173 297.605 68.218 297.451C67.1907 296.715 66.2706 295.811 65.4886 294.783C64.9826 294.139 64.5226 293.373 65.2126 292.299C65.3966 292.023 65.642 291.793 65.918 291.609C69.69 289.233 66.4393 289.831 64.722 287.73C63.0046 285.629 65.2433 284.985 67.39 283.651C62.56 279.067 60.9653 281.167 68.0187 275.739C66.93 273.884 62.6827 274.497 63.204 271.492C68.8467 267.643 67.298 266.401 63.8173 264.699C63.3113 264.454 63.2807 263.687 63.756 263.396C75.3327 256.143 55.2613 255.975 67.5893 251.237C71.8673 246.744 58.6193 247.94 67.114 241.883C67.7427 241.439 67.804 240.473 67.252 239.936C57.3467 230.107 77.096 237.329 63.7713 226.489C63.3113 226.121 63.4033 225.339 63.9246 225.109C77.096 219.19 52.3633 215.51 66.2246 213.593C67.9266 213.363 66.9453 211.569 66.332 210.665C65.596 209.607 62.376 206.755 63.0353 205.237C63.4953 204.163 66.286 203.872 67.206 203.565C68.034 203.289 64.7527 198.597 63.3113 196.558C62.9433 196.037 63.1273 195.301 63.664 195.025C64.1087 194.81 64.5686 194.626 65.0287 194.427C65.8413 194.059 66.654 193.583 67.0986 192.771C69.1533 189.06 61.18 189.597 62.33 185.886C62.79 184.383 64.5073 183.601 65.228 182.252C65.826 181.148 65.55 180.044 64.814 179.109C54.7093 167.547 73.3546 178.817 62.698 161.675C62.4833 161.322 62.6827 160.847 63.066 160.801C68.0187 160.049 65.872 155.281 63.4493 152.122C63.2193 151.831 63.342 151.386 63.6947 151.263C67.85 149.868 64.8753 147.951 63.204 144.931C62.5907 141.711 68.5093 142.201 66.3933 139.227C60.95 131.974 68.9387 132.909 69.0307 128.754" stroke="#262929" stroke-width="0.37" stroke-miterlimit="10"/>
<path d="M121.149 344.678C117.53 341.151 117.607 338.775 122.728 338.161C121.118 338.361 118.941 332.273 119.401 330.694C120.167 328.041 124.323 327.351 120.965 323.119C120.689 322.767 120.367 322.445 120.045 322.123C119.063 321.157 118.097 319.47 118.649 318.044C119.186 316.649 120.796 316.035 121.041 314.456C121.409 312.079 118.665 310.929 118.864 308.997C119.079 306.835 122.667 307.265 121.701 304.413C121.195 302.925 119.907 302.327 120.98 300.947C121.609 300.15 123.065 300.15 123.939 299.997C124.169 299.951 124.43 299.905 124.491 299.552C124.522 299.291 124.399 299.046 124.2 298.893C123.173 298.157 122.253 297.252 121.471 296.225C120.965 295.581 120.505 294.814 121.195 293.741C121.379 293.465 121.624 293.235 121.9 293.051C125.672 290.674 122.421 291.272 120.704 289.171C118.987 287.071 121.225 286.427 123.372 285.093C118.542 280.508 116.947 282.609 124.001 277.181C122.912 275.325 118.665 275.939 119.186 272.933C124.829 269.085 123.28 267.843 119.799 266.141C119.293 265.895 119.263 265.129 119.738 264.837C131.315 257.585 111.243 257.416 123.571 252.678C127.849 248.185 114.601 249.381 123.096 243.325C123.725 242.88 123.786 241.914 123.234 241.377C113.329 231.549 133.078 238.771 119.753 227.93C119.293 227.562 119.385 226.78 119.907 226.55C133.078 220.631 108.345 216.951 122.207 215.035C123.909 214.805 122.927 213.011 122.314 212.106C121.578 211.048 118.358 208.196 119.017 206.678C119.477 205.605 122.268 205.313 123.188 205.007C124.016 204.731 120.735 200.039 119.293 197.999C118.925 197.478 119.109 196.742 119.646 196.466C120.091 196.251 120.551 196.067 121.011 195.868C121.823 195.5 122.636 195.025 123.081 194.212C125.135 190.501 117.162 191.038 118.312 187.327C118.772 185.825 120.489 185.043 121.21 183.693C121.808 182.589 121.532 181.485 120.796 180.55C110.691 168.989 129.337 180.259 118.68 163.116C118.465 162.763 118.665 162.288 119.048 162.242C124.001 161.491 121.854 156.722 119.431 153.563C119.201 153.272 119.324 152.827 119.677 152.705C123.832 151.309 120.857 149.393 119.186 146.372C118.573 143.152 124.491 143.643 122.375 140.668C116.932 133.415 124.921 134.351 125.013 130.195" stroke="#262929" stroke-width="0.37" stroke-miterlimit="10"/>
<path d="M129.137 344.678C125.519 341.151 125.595 338.775 130.717 338.161C129.107 338.361 126.929 332.273 127.389 330.694C128.156 328.041 132.311 327.351 128.953 323.119C128.677 322.767 128.355 322.445 128.033 322.123C127.052 321.157 126.086 319.47 126.638 318.044C127.175 316.649 128.785 316.035 129.03 314.456C129.398 312.079 126.653 310.929 126.853 308.997C127.067 306.835 130.655 307.265 129.689 304.413C129.183 302.925 127.895 302.327 128.969 300.947C129.597 300.15 131.054 300.15 131.928 299.997C132.158 299.951 132.419 299.905 132.48 299.552C132.511 299.291 132.388 299.046 132.189 298.893C131.161 298.157 130.241 297.252 129.459 296.225C128.953 295.581 128.493 294.814 129.183 293.741C129.367 293.465 129.613 293.235 129.889 293.051C133.661 290.674 130.41 291.272 128.693 289.171C126.975 287.071 129.214 286.427 131.361 285.093C126.531 280.508 124.936 282.609 131.989 277.181C130.901 275.325 126.653 275.939 127.175 272.933C132.817 269.085 131.269 267.843 127.788 266.141C127.282 265.895 127.251 265.129 127.727 264.837C139.303 257.585 119.232 257.416 131.56 252.678C135.838 248.185 122.59 249.381 131.085 243.325C131.713 242.88 131.775 241.914 131.223 241.377C121.317 231.549 141.067 238.771 127.742 227.93C127.282 227.562 127.374 226.78 127.895 226.55C141.067 220.631 116.334 216.951 130.195 215.035C131.897 214.805 130.916 213.011 130.303 212.106C129.567 211.048 126.347 208.196 127.006 206.678C127.466 205.605 130.257 205.313 131.177 205.007C132.005 204.731 128.723 200.039 127.282 197.999C126.914 197.478 127.098 196.742 127.635 196.466C128.079 196.251 128.539 196.067 128.999 195.868C129.812 195.5 130.625 195.025 131.069 194.212C133.124 190.501 125.151 191.038 126.301 187.327C126.761 185.825 128.478 185.043 129.199 183.693C129.797 182.589 129.521 181.485 128.785 180.55C118.68 168.989 137.325 180.259 126.669 163.116C126.454 162.763 126.653 162.288 127.037 162.242C131.989 161.491 129.843 156.722 127.42 153.563C127.19 153.272 127.313 152.827 127.665 152.705C131.821 151.309 128.846 149.393 127.175 146.372C126.561 143.152 132.48 143.643 130.364 140.668C124.921 133.415 132.909 134.351 133.001 130.195" stroke="#262929" stroke-width="0.37" stroke-miterlimit="10"/>
</g>
<rect x="0.5" y="0.5" width="137" height="137" rx="68.5" stroke="#6B6B6B"/>
<defs>
<clipPath id="clip0_6_165">
<rect width="138" height="138" rx="69" fill="white"/>
</clipPath>
</defs>
</svg>
