<svg width="138" height="138" viewBox="0 0 138 138" fill="none" xmlns="http://www.w3.org/2000/svg">
<g clip-path="url(#clip0_6_134)">
<path d="M63.2807 147.399C63.158 138.46 61.1647 127.159 54.418 121.011C52.6547 119.401 50.4007 118.189 48.1007 118.45C45.172 118.772 42.872 121.44 41.906 124.384C40.5414 128.509 40.6947 134.013 41.6454 138.245C42.2127 140.729 43.1787 143.198 44.9114 144.977C46.644 146.755 49.22 147.706 51.474 146.893C53.268 146.234 54.602 144.593 55.614 142.876C62.5907 131.161 60.8887 114.694 57.04 101.982C56.2274 99.2988 55.062 96.6461 53.084 94.7141C51.8114 93.4721 50.1707 92.5675 48.4534 92.5828C45.9847 92.5981 43.7767 94.6528 43.0714 97.1828C42.366 99.7128 43.0254 102.534 44.4514 104.712C45.8774 106.874 48.0087 108.438 50.2934 109.48C52.4247 110.462 54.97 111.014 56.994 109.818C58.236 109.082 59.0947 107.748 59.5854 106.322C60.076 104.896 60.2294 103.347 60.3214 101.829C60.9194 92.3375 59.9687 82.4935 57.5154 73.3088C57.0554 71.6068 56.4114 69.9201 55.3227 68.5861C53.6974 66.5928 50.692 65.5042 48.438 66.8228C46.7667 67.8042 46.0614 70.0275 46.7054 71.9288C47.2267 73.4775 48.4534 74.6581 49.7874 75.4401C52.7774 77.1881 56.9634 77.4028 59.6774 75.0108C61.088 73.7688 61.9774 71.9748 62.468 70.0888C64.1854 63.6641 64.0167 55.8135 63.3727 49.1895C62.698 42.2742 60.8734 35.3588 57.2547 29.4861C55.6754 26.9101 53.59 24.3341 51.1367 22.6475C48.8674 21.0835 45.4327 19.9948 43.0407 21.7735C41.998 22.5555 41.3847 23.7055 40.894 24.8708C39.376 28.4281 40.25 33.5648 43.8687 35.2975C45.4327 36.0488 47.288 36.0028 48.806 35.1901C50.5847 34.2395 51.7807 32.3535 52.5627 30.3755C54.0654 26.5881 54.2954 22.3868 54.234 18.2928C54.1727 14.0915 54.0654 9.9055 53.6667 5.70417C52.808 -3.17383 50.968 -11.9599 48.208 -20.4085C47.5334 -22.4479 46.8127 -24.4719 46.046 -26.4652" stroke="#262929" stroke-width="0.37" stroke-miterlimit="10"/>
<path d="M86.894 174.187C87.6454 162.932 86.2654 148.504 78.384 140.086C76.3294 137.878 73.6 136.13 70.6867 136.222C66.976 136.329 63.8174 139.457 62.284 143.076C60.1527 148.136 59.7847 155.066 60.5667 160.51C61.0267 163.699 62.008 166.904 64.0014 169.311C65.9947 171.718 69.1534 173.175 72.0667 172.378C74.3974 171.734 76.222 169.802 77.694 167.732C87.6454 153.702 87.17 132.802 83.582 116.411C82.8307 112.946 81.6347 109.496 79.3194 106.858C77.8474 105.172 75.8694 103.853 73.7074 103.7C70.5947 103.485 67.62 105.846 66.47 108.944C65.3354 112.041 65.872 115.675 67.4514 118.558C69.0307 121.425 71.5607 123.602 74.3207 125.151C76.912 126.608 80.0554 127.558 82.708 126.255C84.3487 125.442 85.56 123.863 86.3267 122.115C87.0934 120.367 87.4307 118.435 87.7067 116.534C89.4087 104.65 89.2094 92.1535 87.032 80.3469C86.6334 78.1542 85.974 75.9769 84.7474 74.1829C82.9074 71.5149 79.2274 69.8282 76.2527 71.2695C74.06 72.3275 72.9407 75.0569 73.5694 77.5255C74.0754 79.5189 75.486 81.1289 77.096 82.2635C80.6994 84.7629 85.928 85.4529 89.5774 82.7235C91.4634 81.3129 92.7667 79.1202 93.5947 76.8202C96.4007 68.8929 96.9834 59.0182 96.83 50.6155C96.6767 41.8295 95.0667 32.9515 91.1107 25.1929C89.378 21.7889 87.0014 18.3389 84.1034 15.9775C81.4047 13.7695 77.188 12.0675 73.9987 14.0762C72.6034 14.9502 71.714 16.3455 70.978 17.7562C68.724 22.0802 69.3067 28.6429 73.6767 31.1882C75.5627 32.2922 77.9087 32.4302 79.902 31.5562C82.248 30.5289 83.9347 28.2749 85.1154 25.8829C87.3847 21.2675 88.09 16.0082 88.4274 10.8562C88.78 5.55091 89.0714 0.276242 88.9794 -5.04443C88.7954 -16.3145 87.3694 -27.5538 84.732 -38.4711C84.1034 -41.1085 83.398 -43.7305 82.616 -46.3218" stroke="#262929" stroke-width="0.37" stroke-miterlimit="10"/>
<path d="M114.877 174.187C115.629 162.932 114.249 148.504 106.367 140.086C104.313 137.878 101.583 136.13 98.67 136.222C94.9593 136.329 91.8007 139.457 90.2673 143.076C88.136 148.136 87.768 155.066 88.55 160.51C89.01 163.699 89.9913 166.904 91.9847 169.311C93.978 171.718 97.1367 173.175 100.05 172.378C102.381 171.734 104.205 169.802 105.677 167.732C115.629 153.702 115.153 132.802 111.565 116.411C110.814 112.946 109.618 109.496 107.303 106.858C105.831 105.172 103.853 103.853 101.691 103.7C98.578 103.485 95.6033 105.846 94.4533 108.944C93.3033 112.041 93.8553 115.675 95.4347 118.558C97.014 121.44 99.544 123.602 102.304 125.151C104.895 126.608 108.039 127.558 110.691 126.255C112.332 125.442 113.543 123.863 114.31 122.115C115.077 120.367 115.414 118.435 115.69 116.534C117.392 104.65 117.193 92.1535 115.015 80.3469C114.617 78.1542 113.957 75.9769 112.731 74.1829C110.891 71.5149 107.211 69.8282 104.236 71.2695C102.043 72.3275 100.924 75.0569 101.553 77.5255C102.059 79.5189 103.469 81.1289 105.079 82.2635C108.683 84.7629 113.911 85.4529 117.561 82.7235C119.447 81.3129 120.75 79.1202 121.578 76.8202C124.384 68.8929 124.967 59.0182 124.813 50.6155C124.66 41.8295 123.05 32.9515 119.094 25.1929C117.361 21.7889 114.985 18.3389 112.087 15.9775C109.388 13.7695 105.171 12.0675 101.982 14.0762C100.587 14.9502 99.6973 16.3455 98.9613 17.7562C96.7073 22.0802 97.29 28.6429 101.66 31.1882C103.546 32.2922 105.892 32.4302 107.885 31.5562C110.231 30.5289 111.918 28.2749 113.099 25.8829C115.368 21.2675 116.073 16.0082 116.411 10.8562C116.763 5.55091 117.055 0.276242 116.963 -5.04443C116.779 -16.3145 115.353 -27.5538 112.715 -38.4711C112.087 -41.1085 111.381 -43.7305 110.599 -46.3218" stroke="#262929" stroke-width="0.37" stroke-miterlimit="10"/>
<path d="M28.244 164.19C28.842 155.112 27.738 143.505 21.39 136.712C19.734 134.934 17.5414 133.523 15.1954 133.6C12.2054 133.692 9.66003 136.206 8.43336 139.12C6.71603 143.198 6.42469 148.78 7.05336 153.165C7.42136 155.741 8.20336 158.317 9.81336 160.249C11.4234 162.181 13.9687 163.362 16.2994 162.718C18.1854 162.196 19.6574 160.632 20.8227 158.976C28.842 147.676 28.4587 130.84 25.576 117.622C24.9627 114.832 23.9967 112.056 22.1414 109.925C20.9454 108.56 19.366 107.502 17.618 107.38C15.1187 107.196 12.7114 109.112 11.7914 111.612C10.8714 114.111 11.316 117.04 12.5887 119.355C13.8614 121.67 15.9007 123.418 18.124 124.676C20.2094 125.856 22.7547 126.623 24.886 125.565C26.2047 124.921 27.186 123.633 27.7994 122.222C28.4127 120.812 28.6887 119.263 28.9034 117.73C30.268 108.146 30.1147 98.0879 28.3667 88.5812C28.0447 86.8179 27.5234 85.0545 26.5267 83.6132C25.0394 81.4665 22.08 80.1019 19.688 81.2672C17.9247 82.1259 17.02 84.3185 17.526 86.3119C17.94 87.9219 19.0747 89.2252 20.378 90.1299C23.276 92.1539 27.4927 92.7059 30.4367 90.4979C31.9547 89.3632 33.0127 87.5999 33.672 85.7445C35.926 79.3659 36.4014 71.3925 36.2787 64.6305C36.156 57.5619 34.8527 50.4012 31.6634 44.1452C30.268 41.4005 28.3514 38.6252 26.0207 36.7239C23.8434 34.9452 20.4547 33.5805 17.8787 35.1905C16.7594 35.8959 16.0387 37.0152 15.4407 38.1499C13.616 41.6305 14.0914 46.9205 17.618 48.9599C19.136 49.8492 21.0374 49.9565 22.632 49.2512C24.518 48.4232 25.8827 46.6139 26.8334 44.6819C28.6734 40.9559 29.2254 36.7239 29.5014 32.5685C29.7774 28.3059 30.0074 24.0432 29.946 19.7499C29.7927 10.6725 28.6427 1.61049 26.5267 -7.17551C26.0207 -9.30684 25.4534 -11.4075 24.8247 -13.4928" stroke="#262929" stroke-width="0.37" stroke-miterlimit="10"/>
<path d="M34.73 143.857L34.6533 143.796C31.9853 141.143 34.132 135.715 37.766 135.071C41.4 134.427 44.9267 137.709 45.6167 141.481C46.5827 147.139 42.9027 154.821 39.1 155.434C37.1527 155.756 36.018 153.931 37.4287 152.459C38.64 151.202 39.928 150.987 41.63 151.217C50.278 153.257 48.2847 165.247 40.94 168.007C37.8273 169.433 32.7827 168.115 33.2733 164.603C33.7333 161.291 38.6553 161.245 41.032 163.499C46.2607 168.467 43.7767 179.017 37.582 180.197C35.236 180.642 33.0433 173.88 40.296 175.781C47.0273 177.545 46.3373 191.314 40.1733 194.641C36.9687 196.251 32.1847 193.706 32.66 190.026C33.0587 186.929 36.8613 185.303 39.6827 186.361C42.504 187.419 44.3593 190.256 45.5093 193.139C51.3207 207.092 37.122 212.367 34.868 203.458C34.7147 200.483 37.6587 197.984 40.5107 198.122C49.174 199.088 50.3087 212.382 43.8687 217.181C41.952 219.144 38.8547 218.393 38.3027 215.525C37.3367 211.355 42.3507 207.644 46.2607 208.993C53.2987 211.447 54.464 224.25 47.7633 227.853C44.804 229.341 40.4493 227.378 40.3267 223.959C41.814 215.234 55.1233 219.543 50.646 231.733C49.5573 234.677 46.3373 237.605 43.8073 235.857C39.0693 230.629 50.7533 223.376 53.406 236.762C55.0467 243.171 50.6153 251.973 43.5313 249.995C41.538 247.25 44.62 242.834 47.9013 243.233C51.1827 243.631 53.3753 247.403 53.13 250.853C52.9 254.227 50.8147 257.723 48.576 260.007C47.426 261.188 46 262.231 44.39 262.461C42.78 262.691 40.664 262.047 40.1887 260.161C40.158 260.038 40.1273 259.9 40.112 259.777C39.8973 257.922 41.2313 255.653 43.0253 255.331C45.7853 254.84 48.484 255.99 49.6953 258.781C51.0753 261.924 50.83 265.757 50.0787 269.039C49.6647 270.863 48.9287 272.719 47.9167 274.313C46.5827 276.429 44.39 279.189 41.7373 277.748C39.0847 276.307 39.3147 271.753 42.1207 270.679C44.0527 269.928 46.368 269.867 48.07 271.354C49.9713 273.01 50.784 275.801 51.0753 278.315C51.4893 281.98 50.9987 286.181 48.9593 289.248C46.92 292.315 42.0593 294.216 39.2073 291.042C39.1153 290.95 39.0387 290.843 38.962 290.751C37.168 288.405 38.226 284.909 40.5873 283.529C43.332 281.934 47.104 283.314 48.852 285.936C50.4313 288.313 50.6613 291.471 50.2933 294.293C49.8333 297.789 47.4567 305.164 42.9793 304.229C39.698 303.539 39.6213 298.463 42.8567 297.528C44.3133 297.099 46.0153 297.175 47.334 297.896C55.6293 302.358 53.268 315.851 43.9913 316.955C34.1473 317.783 34.914 305.026 44.3747 307.035C52.5627 310.224 51.5047 325.266 44.4667 327.704C41.0933 328.869 39.2687 323.457 42.5807 322.092C48.116 319.807 56.5647 326.922 49.6493 337.517C47.8093 340.339 43.8227 342.01 40.8173 340.446C37.49 338.713 38.548 334.037 41.906 333.04C45.8467 331.875 49.2813 336.413 50.9373 339.649C52.5933 342.884 53.728 347.3 52.0107 350.781C51.4587 351.9 50.6153 352.851 49.5573 353.479C47.8093 354.522 45.632 354.445 43.9147 353.341C39.1 350.275 45.3253 342.071 52.624 345.337" stroke="#262929" stroke-width="0.37" stroke-miterlimit="10"/>
<path d="M51.2133 143.857L51.1366 143.796C48.4686 141.143 50.6153 135.715 54.2493 135.071C57.8833 134.427 61.41 137.709 62.1 141.481C63.066 147.139 59.386 154.821 55.5833 155.434C53.636 155.756 52.5013 153.931 53.912 152.459C55.1233 151.202 56.4113 150.987 58.1133 151.217C66.7613 153.257 64.768 165.247 57.4233 168.007C54.3106 169.433 49.266 168.115 49.7566 164.603C50.2166 161.291 55.1386 161.245 57.5153 163.499C62.744 168.467 60.26 179.017 54.0653 180.197C51.7193 180.642 49.5266 173.88 56.7793 175.781C63.5106 177.545 62.8206 191.314 56.6566 194.641C53.452 196.251 48.668 193.706 49.1433 190.026C49.542 186.929 53.3446 185.303 56.166 186.361C58.9873 187.419 60.8426 190.256 61.9926 193.139C67.804 207.092 53.6053 212.367 51.3513 203.458C51.198 200.483 54.142 197.984 56.994 198.122C65.6573 199.088 66.792 212.382 60.352 217.181C58.4353 219.144 55.338 218.393 54.786 215.525C53.82 211.355 58.834 207.644 62.744 208.993C69.782 211.447 70.9473 224.25 64.2466 227.853C61.2873 229.341 56.9326 227.378 56.81 223.959C58.2973 215.234 71.6066 219.543 67.1293 231.733C66.0406 234.677 62.8206 237.605 60.2906 235.857C55.5526 230.629 67.2366 223.376 69.8893 236.762C71.53 243.171 67.0986 251.973 60.0146 249.995C58.0213 247.25 61.1033 242.834 64.3846 243.233C67.666 243.631 69.8586 247.403 69.6133 250.853C69.3833 254.227 67.298 257.723 65.0593 260.007C63.9093 261.188 62.4833 262.231 60.8733 262.461C59.2633 262.691 57.1473 262.047 56.672 260.161C56.6413 260.038 56.6106 259.9 56.5953 259.777C56.3806 257.922 57.7146 255.653 59.5086 255.331C62.2686 254.84 64.9673 255.99 66.1786 258.781C67.5586 261.924 67.3133 265.757 66.562 269.039C66.148 270.863 65.412 272.719 64.4 274.313C63.066 276.429 60.8733 279.189 58.2206 277.748C55.568 276.307 55.798 271.753 58.604 270.679C60.536 269.928 62.8513 269.867 64.5533 271.354C66.4546 273.01 67.2673 275.801 67.5586 278.315C67.9726 281.98 67.482 286.181 65.4426 289.248C63.4033 292.315 58.5426 294.216 55.6906 291.042C55.5986 290.95 55.522 290.843 55.4453 290.751C53.6513 288.405 54.7093 284.909 57.0706 283.529C59.8153 281.934 63.5873 283.314 65.3353 285.936C66.9146 288.313 67.1446 291.471 66.7766 294.293C66.3166 297.789 63.94 305.164 59.4626 304.229C56.1813 303.539 56.1046 298.463 59.34 297.528C60.7966 297.099 62.4986 297.175 63.8173 297.896C72.1126 302.358 69.7513 315.851 60.4746 316.955C50.6306 317.783 51.3973 305.026 60.858 307.035C69.046 310.224 67.988 325.266 60.95 327.704C57.5766 328.869 55.752 323.457 59.064 322.092C64.5993 319.807 73.048 326.922 66.1326 337.517C64.2926 340.339 60.306 342.01 57.3006 340.446C53.9733 338.713 55.0313 334.037 58.3893 333.04C62.33 331.875 65.7646 336.413 67.4206 339.649C69.0766 342.884 70.2113 347.3 68.494 350.781C67.942 351.9 67.0986 352.851 66.0406 353.479C64.2926 354.522 62.1153 354.445 60.398 353.341C55.5833 350.275 61.8086 342.071 69.1073 345.337" stroke="#262929" stroke-width="0.37" stroke-miterlimit="10"/>
<path d="M67.206 143.857L67.1293 143.796C64.4613 141.143 66.608 135.715 70.242 135.071C73.876 134.427 77.4026 137.709 78.0926 141.481C79.0586 147.139 75.3786 154.821 71.576 155.434C69.6286 155.756 68.494 153.931 69.9046 152.459C71.116 151.202 72.404 150.987 74.106 151.217C82.754 153.257 80.7606 165.247 73.416 168.007C70.3033 169.433 65.2586 168.115 65.7493 164.603C66.2093 161.291 71.1313 161.245 73.508 163.499C78.7366 168.467 76.2526 179.017 70.058 180.197C67.712 180.642 65.5193 173.88 72.772 175.781C79.5033 177.545 78.8133 191.314 72.6493 194.641C69.4446 196.251 64.6606 193.706 65.136 190.026C65.5346 186.929 69.3373 185.303 72.1586 186.361C74.98 187.419 76.8353 190.256 77.9853 193.139C83.7966 207.092 69.598 212.367 67.344 203.458C67.1906 200.483 70.1346 197.984 72.9866 198.122C81.65 199.088 82.7846 212.382 76.3446 217.181C74.428 219.144 71.3306 218.393 70.7786 215.525C69.8126 211.355 74.8266 207.644 78.7366 208.993C85.7746 211.447 86.94 224.25 80.2393 227.853C77.28 229.341 72.9253 227.378 72.8026 223.959C74.29 215.234 87.5993 219.543 83.122 231.733C82.0333 234.677 78.8133 237.605 76.2833 235.857C71.5453 230.629 83.2293 223.376 85.882 236.762C87.5226 243.171 83.0913 251.973 76.0073 249.995C74.014 247.25 77.096 242.834 80.3773 243.233C83.6586 243.631 85.8513 247.403 85.606 250.853C85.376 254.227 83.2906 257.723 81.052 260.007C79.902 261.188 78.476 262.231 76.866 262.461C75.256 262.691 73.14 262.047 72.6646 260.161C72.634 260.038 72.6033 259.9 72.588 259.777C72.3733 257.922 73.7073 255.653 75.5013 255.331C78.2613 254.84 80.96 255.99 82.1713 258.781C83.5513 261.924 83.306 265.757 82.5546 269.039C82.1406 270.863 81.4046 272.719 80.3926 274.313C79.0586 276.429 76.866 279.189 74.2133 277.748C71.5606 276.307 71.7906 271.753 74.5966 270.679C76.5286 269.928 78.844 269.867 80.546 271.354C82.4473 273.01 83.26 275.801 83.5513 278.315C83.9653 281.98 83.4746 286.181 81.4353 289.248C79.396 292.315 74.5353 294.216 71.6833 291.042C71.5913 290.95 71.5146 290.843 71.438 290.751C69.644 288.405 70.702 284.909 73.0633 283.529C75.808 281.934 79.58 283.314 81.328 285.936C82.9073 288.313 83.1373 291.471 82.7693 294.293C82.3093 297.789 79.9326 305.164 75.4553 304.229C72.174 303.539 72.0973 298.463 75.3326 297.528C76.7893 297.099 78.4913 297.175 79.81 297.896C88.1053 302.358 85.744 315.851 76.4673 316.955C66.6233 317.783 67.39 305.026 76.8506 307.035C85.0386 310.224 83.9806 325.266 76.9426 327.704C73.5693 328.869 71.7446 323.457 75.0566 322.092C80.592 319.807 89.0406 326.922 82.1253 337.517C80.2853 340.339 76.2986 342.01 73.2933 340.446C69.966 338.713 71.024 334.037 74.382 333.04C78.3226 331.875 81.7573 336.413 83.4133 339.649C85.0693 342.899 86.204 347.3 84.4866 350.781C83.9346 351.9 83.0913 352.851 82.0333 353.479C80.2853 354.522 78.108 354.445 76.3906 353.341C71.576 350.275 77.8013 342.071 85.1 345.337" stroke="#262929" stroke-width="0.37" stroke-miterlimit="10"/>
<path d="M81.2053 140.867L81.1287 140.806C78.4607 138.153 80.6073 132.725 84.2413 132.081C87.8753 131.437 91.402 134.719 92.092 138.491C93.058 144.149 89.378 151.831 85.5753 152.444C83.628 152.766 82.4933 150.941 83.904 149.469C85.1153 148.212 86.4033 147.997 88.1053 148.227C96.7533 150.267 94.76 162.257 87.4153 165.017C84.3027 166.443 79.258 165.125 79.7487 161.613C80.2087 158.301 85.1307 158.255 87.5073 160.509C92.736 165.477 90.252 176.027 84.0573 177.207C81.7113 177.652 79.5187 170.89 86.7713 172.791C93.5027 174.555 92.8127 188.324 86.6487 191.651C83.444 193.261 78.66 190.716 79.1353 187.036C79.534 183.939 83.3367 182.313 86.158 183.371C88.9793 184.429 90.8347 187.266 91.9847 190.149C97.796 204.102 83.5973 209.377 81.3433 200.468C81.19 197.493 84.134 194.994 86.986 195.132C95.6493 196.098 96.784 209.392 90.344 214.191C88.4273 216.154 85.33 215.403 84.778 212.535C83.812 208.365 88.826 204.654 92.736 206.003C99.774 208.457 100.939 221.26 94.2387 224.863C91.2793 226.351 86.9247 224.388 86.802 220.969C88.2893 212.244 101.599 216.553 97.1213 228.743C96.0327 231.687 92.8127 234.615 90.2827 232.867C85.5447 227.639 97.2287 220.386 99.8813 233.772C101.522 240.181 97.0907 248.983 90.0067 247.005C88.0133 244.26 91.0953 239.844 94.3767 240.243C97.658 240.641 99.8507 244.413 99.6053 247.863C99.3753 251.237 97.29 254.733 95.0513 257.017C93.9013 258.198 92.4753 259.241 90.8653 259.471C89.2553 259.701 87.1393 259.057 86.664 257.171C86.6333 257.048 86.6027 256.91 86.5873 256.787C86.3727 254.932 87.7067 252.663 89.5007 252.341C92.2607 251.85 94.9593 253 96.1707 255.791C97.5507 258.934 97.3053 262.767 96.554 266.049C96.14 267.873 95.404 269.729 94.392 271.323C93.058 273.439 90.8653 276.199 88.2127 274.758C85.56 273.317 85.79 268.763 88.596 267.689C90.528 266.938 92.8433 266.877 94.5453 268.364C96.4467 270.02 97.2593 272.811 97.5507 275.325C97.9647 278.99 97.474 283.191 95.4347 286.258C93.334 289.417 88.5347 291.226 85.6827 288.052C85.5907 287.96 85.514 287.853 85.4373 287.761C83.6433 285.415 84.7013 281.919 87.0627 280.539C89.8073 278.944 93.5793 280.324 95.3273 282.946C96.9067 285.323 97.1367 288.481 96.7687 291.303C96.3087 294.799 93.932 302.174 89.4547 301.239C86.1733 300.549 86.0967 295.473 89.332 294.538C90.7887 294.109 92.4907 294.185 93.8093 294.906C102.105 299.368 99.7433 312.861 90.4667 313.965C80.6227 314.793 81.3893 302.036 90.85 304.045C99.038 307.234 97.98 322.276 90.942 324.714C87.5687 325.879 85.744 320.467 89.056 319.102C94.5913 316.817 103.04 323.932 96.1247 334.527C94.2847 337.349 90.298 339.02 87.2927 337.456C83.9653 335.723 85.0233 331.047 88.3813 330.05C92.322 328.885 95.7567 333.423 97.4127 336.659C99.0687 339.894 100.203 344.31 98.486 347.791C97.934 348.91 97.0907 349.861 96.0327 350.489C94.2847 351.532 92.1073 351.455 90.39 350.351C85.5753 347.285 91.8006 339.081 99.0993 342.347" stroke="#262929" stroke-width="0.37" stroke-miterlimit="10"/>
<path d="M95.1893 140.867L95.1126 140.806C92.4446 138.153 94.5913 132.725 98.2253 132.081C101.859 131.437 105.386 134.719 106.076 138.491C107.042 144.149 103.362 151.831 99.5593 152.444C97.612 152.766 96.4773 150.941 97.888 149.469C99.0993 148.212 100.387 147.997 102.089 148.227C110.737 150.267 108.744 162.257 101.399 165.017C98.2866 166.443 93.242 165.125 93.7326 161.613C94.1926 158.301 99.1146 158.255 101.491 160.509C106.72 165.477 104.236 176.027 98.0413 177.207C95.6953 177.652 93.5026 170.89 100.755 172.791C107.487 174.555 106.797 188.324 100.633 191.651C97.428 193.261 92.644 190.716 93.1193 187.036C93.518 183.939 97.3206 182.313 100.142 183.371C102.963 184.429 104.819 187.266 105.969 190.149C111.78 204.102 97.5813 209.377 95.3273 200.468C95.174 197.493 98.118 194.994 100.97 195.132C109.633 196.098 110.768 209.392 104.328 214.191C102.411 216.154 99.314 215.403 98.762 212.535C97.796 208.365 102.81 204.654 106.72 206.003C113.758 208.457 114.923 221.26 108.223 224.863C105.263 226.351 100.909 224.388 100.786 220.969C102.273 212.244 115.583 216.553 111.105 228.743C110.017 231.687 106.797 234.615 104.267 232.867C99.5286 227.639 111.213 220.386 113.865 233.772C115.506 240.181 111.075 248.983 103.991 247.005C101.997 244.26 105.079 239.844 108.361 240.243C111.642 240.641 113.835 244.413 113.589 247.863C113.359 251.237 111.274 254.733 109.035 257.017C107.885 258.198 106.459 259.241 104.849 259.471C103.239 259.701 101.123 259.057 100.648 257.171C100.617 257.048 100.587 256.91 100.571 256.787C100.357 254.932 101.691 252.663 103.485 252.341C106.245 251.85 108.943 253 110.155 255.791C111.535 258.934 111.289 262.767 110.538 266.049C110.124 267.873 109.388 269.729 108.376 271.323C107.042 273.439 104.849 276.199 102.197 274.758C99.544 273.317 99.774 268.763 102.58 267.689C104.512 266.938 106.827 266.877 108.529 268.364C110.431 270.02 111.243 272.811 111.535 275.325C111.949 278.99 111.458 283.191 109.419 286.258C107.379 289.325 102.519 291.226 99.6666 288.052C99.5746 287.96 99.498 287.853 99.4213 287.761C97.6273 285.415 98.6853 281.919 101.047 280.539C103.791 278.944 107.563 280.324 109.311 282.946C110.891 285.323 111.121 288.481 110.753 291.303C110.293 294.799 107.916 302.174 103.439 301.239C100.157 300.549 100.081 295.473 103.316 294.538C104.773 294.109 106.475 294.185 107.793 294.906C116.089 299.368 113.727 312.861 104.451 313.965C94.6066 314.793 95.3733 302.036 104.834 304.045C113.022 307.234 111.964 322.276 104.926 324.714C101.553 325.879 99.728 320.467 103.04 319.102C108.575 316.817 117.024 323.932 110.109 334.527C108.269 337.349 104.282 339.02 101.277 337.456C97.9493 335.723 99.0073 331.047 102.365 330.05C106.306 328.885 109.741 333.423 111.397 336.659C113.053 339.894 114.187 344.31 112.47 347.791C111.918 348.91 111.075 349.861 110.017 350.489C108.269 351.532 106.091 351.455 104.374 350.351C99.5593 347.285 105.785 339.081 113.083 342.347" stroke="#262929" stroke-width="0.37" stroke-miterlimit="10"/>
<path d="M108.683 140.867L108.606 140.806C105.938 138.153 108.085 132.725 111.719 132.081C115.353 131.437 118.879 134.719 119.569 138.491C120.535 144.149 116.855 151.831 113.053 152.444C111.105 152.766 109.971 150.941 111.381 149.469C112.593 148.212 113.881 147.997 115.583 148.227C124.231 150.267 122.237 162.257 114.893 165.017C111.78 166.443 106.735 165.125 107.226 161.613C107.686 158.301 112.608 158.255 114.985 160.509C120.213 165.477 117.729 176.027 111.535 177.207C109.189 177.652 106.996 170.89 114.249 172.791C120.98 174.555 120.29 188.324 114.126 191.651C110.921 193.261 106.137 190.716 106.613 187.036C107.011 183.939 110.814 182.313 113.635 183.371C116.457 184.429 118.312 187.266 119.462 190.149C125.273 204.102 111.075 209.377 108.821 200.468C108.667 197.493 111.611 194.994 114.463 195.132C123.127 196.098 124.261 209.392 117.821 214.191C115.905 216.154 112.807 215.403 112.255 212.535C111.289 208.365 116.303 204.654 120.213 206.003C127.251 208.457 128.417 221.26 121.716 224.863C118.757 226.351 114.402 224.388 114.279 220.969C115.767 212.244 129.076 216.553 124.599 228.743C123.51 231.687 120.29 234.615 117.76 232.867C113.022 227.639 124.706 220.386 127.359 233.772C128.999 240.181 124.568 248.983 117.484 247.005C115.491 244.26 118.573 239.844 121.854 240.243C125.135 240.641 127.328 244.413 127.083 247.863C126.853 251.237 124.767 254.733 122.529 257.017C121.379 258.198 119.953 259.241 118.343 259.471C116.733 259.701 114.617 259.057 114.141 257.171C114.111 257.048 114.08 256.91 114.065 256.787C113.85 254.932 115.184 252.663 116.978 252.341C119.738 251.85 122.437 253 123.648 255.791C125.028 258.934 124.783 262.767 124.031 266.049C123.617 267.873 122.881 269.729 121.869 271.323C120.535 273.439 118.343 276.199 115.69 274.758C113.037 273.317 113.267 268.763 116.073 267.689C118.005 266.938 120.321 266.877 122.023 268.364C123.924 270.02 124.737 272.811 125.028 275.325C125.442 278.99 124.951 283.191 122.912 286.258C120.811 289.417 116.012 291.226 113.16 288.052C113.068 287.96 112.991 287.853 112.915 287.761C111.121 285.415 112.179 281.919 114.54 280.539C117.285 278.944 121.057 280.324 122.805 282.946C124.384 285.323 124.614 288.481 124.246 291.303C123.786 294.799 121.409 302.174 116.932 301.239C113.651 300.549 113.574 295.473 116.809 294.538C118.266 294.109 119.968 294.185 121.287 294.906C129.582 299.368 127.221 312.861 117.944 313.965C108.1 314.793 108.867 302.036 118.327 304.045C126.515 307.234 125.457 322.276 118.419 324.714C115.046 325.879 113.221 320.467 116.533 319.102C122.069 316.817 130.517 323.932 123.602 334.527C121.762 337.349 117.775 339.02 114.77 337.456C111.443 335.723 112.501 331.047 115.859 330.05C119.799 328.885 123.234 333.423 124.89 336.659C126.546 339.894 127.681 344.31 125.963 347.791C125.411 348.91 124.568 349.861 123.51 350.489C121.762 351.532 119.585 351.455 117.867 350.351C113.053 347.285 119.278 339.081 126.577 342.347" stroke="#262929" stroke-width="0.37" stroke-miterlimit="10"/>
</g>
<rect x="0.5" y="0.5" width="137" height="137" rx="68.5" stroke="#6B6B6B"/>
<defs>
<clipPath id="clip0_6_134">
<rect width="138" height="138" rx="69" fill="white"/>
</clipPath>
</defs>
</svg>
