<svg width="138" height="138" viewBox="0 0 138 138" fill="none" xmlns="http://www.w3.org/2000/svg">
<g clip-path="url(#clip0_6_94)">
<path d="M34.7301 -32.476L34.6534 -32.5374C31.9854 -35.19 34.1321 -40.618 37.7661 -41.262C41.4001 -41.906 44.9267 -38.6247 45.6167 -34.8527C46.5827 -29.1947 42.9027 -21.5127 39.1001 -20.8994C37.1527 -20.5774 36.0181 -22.402 37.4287 -23.874C38.6401 -25.1314 39.9281 -25.346 41.6301 -25.116C50.2781 -23.0767 48.2847 -11.086 40.9401 -8.32604C37.8274 -6.90004 32.7827 -8.2187 33.2734 -11.73C33.7334 -15.042 38.6554 -15.088 41.0321 -12.834C46.2607 -7.86604 43.7767 2.6833 37.5821 3.86397C35.2361 4.30863 33.0434 -2.45337 40.2961 -0.55204C47.0274 1.2113 46.3374 14.9806 40.1734 18.308C36.9687 19.918 32.1847 17.3726 32.6601 13.6926C33.0587 10.5953 36.8614 8.96996 39.6827 10.028C42.5041 11.086 44.3594 13.9226 45.5094 16.8053C51.3207 30.7586 37.1221 36.0333 34.8681 27.1246C34.7147 24.15 37.6587 21.6506 40.5107 21.7886C49.1741 22.7546 50.3087 36.0486 43.8687 40.848C41.9521 42.8106 38.8547 42.0593 38.3027 39.192C37.3367 35.0213 42.3507 31.3106 46.2607 32.66C53.2987 35.1133 54.4641 47.9166 47.7634 51.52C44.8041 53.0073 40.4494 51.0446 40.3267 47.6253C41.8141 38.9006 55.1234 43.2093 50.6461 55.3993C49.5574 58.3433 46.3374 61.272 43.8074 59.524C39.0694 54.2953 50.7534 47.0426 53.4061 60.4286C55.0467 66.838 50.6154 75.6393 43.5314 73.6613C41.5381 70.9166 44.6201 66.5006 47.9014 66.8993C51.1827 67.298 53.3754 71.07 53.1301 74.52C52.9001 77.8933 50.8147 81.3893 48.5761 83.674C47.4261 84.8546 46.0001 85.8973 44.3901 86.1273C42.7801 86.3573 40.6641 85.7133 40.1887 83.8273C40.1581 83.7046 40.1274 83.5666 40.1121 83.444C39.8974 81.5886 41.2314 79.3193 43.0254 78.9973C45.7854 78.5066 48.4841 79.6566 49.6954 82.4473C51.0754 85.5906 50.8301 89.424 50.0787 92.7053C49.6647 94.53 48.9287 96.3853 47.9167 97.98C46.5827 100.096 44.3901 102.856 41.7374 101.415C39.0847 99.9733 39.3147 95.4193 42.1207 94.346C44.0527 93.5946 46.3681 93.5333 48.0701 95.0206C49.9714 96.6766 50.7841 99.4673 51.0754 101.982C51.4894 105.647 50.9987 109.848 48.9594 112.915C46.9201 115.981 42.0594 117.883 39.2074 114.709C39.1154 114.617 39.0387 114.509 38.9621 114.417C37.1681 112.071 38.2261 108.575 40.5874 107.195C43.3321 105.601 47.1041 106.981 48.8521 109.603C50.4314 111.979 50.6614 115.138 50.2934 117.959C49.8334 121.455 47.4567 128.831 42.9794 127.895C39.6981 127.205 39.6214 122.13 42.8567 121.195C44.3134 120.765 46.0154 120.842 47.3341 121.563C55.6294 126.025 53.2681 139.518 43.9914 140.622C34.1474 141.45 34.9141 128.693 44.3747 130.701C52.5627 133.891 51.5047 148.933 44.4667 151.371C41.0934 152.536 39.2687 147.123 42.5807 145.759C48.1161 143.474 56.5647 150.589 49.6494 161.184C47.8094 164.005 43.8227 165.677 40.8174 164.113C37.4901 162.38 38.5481 157.703 41.9061 156.707C45.8467 155.541 49.2814 160.08 50.9374 163.315C52.5934 166.551 53.728 170.967 52.0107 174.447C51.4587 175.567 50.6154 176.517 49.5574 177.146C47.8094 178.189 45.6321 178.112 43.9147 177.008C39.1001 173.941 45.3254 165.738 52.6241 169.004" stroke="#262929" stroke-width="0.37" stroke-miterlimit="10"/>
<path d="M18.7373 -25.9747L18.6606 -26.036C15.9926 -28.6887 18.1393 -34.1167 21.7733 -34.7607C25.4073 -35.4047 28.934 -32.1234 29.624 -28.3514C30.59 -22.6934 26.91 -15.0114 23.1073 -14.398C21.16 -14.076 20.0253 -15.9007 21.436 -17.3727C22.6473 -18.63 23.9353 -18.8447 25.6373 -18.6147C34.2853 -16.5754 32.292 -4.58471 24.9473 -1.82471C21.8346 -0.398718 16.79 -1.71738 17.2806 -5.22871C17.7406 -8.54071 22.6626 -8.58673 25.0393 -6.33273C30.268 -1.36473 27.784 9.18462 21.5893 10.3653C19.2433 10.8099 17.0506 4.04795 24.3033 5.94927C31.0346 7.71262 30.3446 21.482 24.1806 24.8093C20.976 26.4193 16.192 23.8739 16.6673 20.1939C17.066 17.0966 20.8686 15.4713 23.69 16.5293C26.5113 17.5873 28.3666 20.424 29.5166 23.3066C35.328 37.26 21.1293 42.5346 18.8753 33.626C18.722 30.6513 21.666 28.152 24.518 28.29C33.1813 29.256 34.316 42.5499 27.876 47.3493C25.9593 49.3119 22.862 48.5606 22.31 45.6933C21.344 41.5226 26.358 37.812 30.268 39.1613C37.306 41.6146 38.4713 54.4179 31.7706 58.0213C28.8113 59.5086 24.4566 57.5459 24.334 54.1266C25.8213 45.4019 39.1306 49.7106 34.6533 61.9006C33.5646 64.8446 30.3446 67.7733 27.8146 66.0253C23.0766 60.7966 34.7606 53.5439 37.4133 66.9299C39.054 73.3393 34.6226 82.1406 27.5386 80.1626C25.5453 77.4179 28.6273 73.0019 31.9086 73.4006C35.19 73.7993 37.3826 77.5713 37.1373 81.0213C36.9073 84.3946 34.822 87.8906 32.5833 90.1753C31.4333 91.3559 30.0073 92.3986 28.3973 92.6286C26.7873 92.8586 24.6713 92.2146 24.196 90.3286C24.1653 90.2059 24.1346 90.0679 24.1193 89.9453C23.9046 88.0899 25.2386 85.8206 27.0326 85.4986C29.7926 85.0079 32.4913 86.1579 33.7026 88.9486C35.0826 92.0919 34.8373 95.9253 34.086 99.2066C33.672 101.031 32.936 102.887 31.924 104.481C30.59 106.597 28.3973 109.357 25.7446 107.916C23.092 106.475 23.322 101.921 26.128 100.847C28.06 100.096 30.3753 100.035 32.0773 101.522C33.9786 103.178 34.7913 105.969 35.0826 108.483C35.4966 112.148 35.006 116.349 32.9666 119.416C30.9273 122.483 26.0666 124.384 23.2146 121.21C23.1226 121.118 23.046 121.011 22.9693 120.919C21.1753 118.573 22.2333 115.077 24.5946 113.697C27.3393 112.102 31.1113 113.482 32.8593 116.104C34.4386 118.481 34.6686 121.639 34.3006 124.461C33.8406 127.957 31.464 135.332 26.9866 134.397C23.7053 133.707 23.6286 128.631 26.864 127.696C28.3206 127.267 30.0226 127.343 31.3413 128.064C39.6366 132.526 37.2753 146.019 27.9986 147.123C18.1546 147.951 18.9213 135.194 28.382 137.203C36.57 140.392 35.512 155.434 28.474 157.872C25.1006 159.037 23.276 153.625 26.588 152.26C32.1233 149.975 40.572 157.09 33.6566 167.685C31.8166 170.507 27.83 172.178 24.8246 170.614C21.4973 168.881 22.5553 164.205 25.9133 163.208C29.854 162.043 33.2886 166.581 34.9446 169.817C36.6006 173.067 37.7353 177.468 36.018 180.949C35.466 182.068 34.6226 183.019 33.5646 183.647C31.8166 184.69 29.6393 184.613 27.922 183.509C23.1073 180.443 29.3326 172.239 36.6313 175.505" stroke="#262929" stroke-width="0.37" stroke-miterlimit="10"/>
<path d="M3.2507 -25.9747L3.17404 -26.036C0.506035 -28.6887 2.6527 -34.1167 6.2867 -34.7607C9.9207 -35.4047 13.4474 -32.1234 14.1374 -28.3514C15.1034 -22.6934 11.4234 -15.0114 7.6207 -14.398C5.67337 -14.076 4.5387 -15.9007 5.94937 -17.3727C7.1607 -18.63 8.4487 -18.8447 10.1507 -18.6147C18.7987 -16.5754 16.8054 -4.58471 9.4607 -1.82471C6.3327 -0.383381 1.2727 -1.70204 1.76337 -5.21338C2.22337 -8.52538 7.14537 -8.57138 9.52204 -6.31738C14.7507 -1.34938 12.2667 9.19996 6.07204 10.3806C3.72604 10.8253 1.53337 4.06329 8.78604 5.96462C15.5174 7.72795 14.8274 21.4973 8.66337 24.8246C5.4587 26.4346 0.674702 23.8893 1.15004 20.2093C1.5487 17.112 5.35137 15.4866 8.1727 16.5446C10.994 17.6026 12.8494 20.4393 13.9994 23.322C19.8107 37.2753 5.61204 42.55 3.35804 33.6413C3.2047 30.6666 6.1487 28.1673 9.0007 28.3053C17.664 29.2713 18.7987 42.5653 12.3587 47.3646C10.442 49.3273 7.3447 48.576 6.7927 45.7086C5.8267 41.538 10.8407 37.8273 14.7507 39.1766C21.7887 41.63 22.954 54.4333 16.2534 58.0366C13.294 59.524 8.93937 57.5613 8.8167 54.142C10.304 45.4173 23.6134 49.726 19.136 61.916C18.0474 64.86 14.8274 67.7886 12.2974 66.0406C7.55937 60.812 19.2434 53.5593 21.896 66.9453C23.5367 73.3546 19.1054 82.156 12.0214 80.178C10.028 77.4333 13.11 73.0173 16.3914 73.416C19.6727 73.8146 21.8654 77.5866 21.62 81.0366C21.39 84.41 19.3047 87.906 17.066 90.1906C15.916 91.3713 14.49 92.4139 12.88 92.6439C11.27 92.874 9.15404 92.23 8.6787 90.3439C8.64804 90.2213 8.61737 90.0833 8.60204 89.9606C8.38737 88.1053 9.72137 85.836 11.5154 85.514C14.2754 85.0233 16.974 86.1733 18.1854 88.964C19.5654 92.1073 19.32 95.9406 18.5687 99.222C18.1547 101.047 17.4187 102.902 16.4067 104.497C15.0727 106.613 12.88 109.373 10.2274 107.931C7.5747 106.49 7.8047 101.936 10.6107 100.863C12.5427 100.111 14.858 100.05 16.56 101.537C18.4614 103.193 19.274 105.984 19.5654 108.499C19.9794 112.163 19.4887 116.365 17.4494 119.431C15.3487 122.59 10.5494 124.399 7.69737 121.225C7.60537 121.133 7.5287 121.026 7.45204 120.934C5.65804 118.588 6.71604 115.092 9.07737 113.712C11.822 112.117 15.594 113.497 17.342 116.119C18.9214 118.496 19.1514 121.655 18.7834 124.476C18.3234 127.972 15.9467 135.347 11.4694 134.412C8.18804 133.722 8.11137 128.647 11.3467 127.711C12.8034 127.282 14.5054 127.359 15.824 128.079C24.1194 132.541 21.758 146.035 12.4814 147.139C2.63737 147.967 3.40404 135.209 12.8647 137.218C21.0527 140.407 19.9947 155.449 12.9567 157.887C9.58337 159.053 7.7587 153.64 11.0707 152.275C16.606 149.991 25.0547 157.105 18.1394 167.701C16.2994 170.522 12.3127 172.193 9.30737 170.629C5.98004 168.897 7.03804 164.22 10.396 163.223C14.3367 162.058 17.7714 166.597 19.4274 169.832C21.0834 173.067 22.218 177.483 20.5007 180.964C19.9487 182.083 19.1054 183.034 18.0474 183.663C16.2994 184.705 14.122 184.629 12.4047 183.525C7.59004 180.458 13.8154 172.255 21.114 175.521" stroke="#262929" stroke-width="0.37" stroke-miterlimit="10"/>
<path d="M51.2133 -32.476L51.1366 -32.5374C48.4686 -35.19 50.6153 -40.618 54.2493 -41.262C57.8833 -41.906 61.41 -38.6247 62.1 -34.8527C63.066 -29.1947 59.386 -21.5127 55.5833 -20.8994C53.636 -20.5774 52.5013 -22.402 53.912 -23.874C55.1233 -25.1314 56.4113 -25.346 58.1133 -25.116C66.7613 -23.0767 64.768 -11.086 57.4233 -8.32604C54.3106 -6.90004 49.266 -8.2187 49.7566 -11.73C50.2166 -15.042 55.1386 -15.088 57.5153 -12.834C62.744 -7.86604 60.26 2.6833 54.0653 3.86397C51.7193 4.30863 49.5266 -2.45337 56.7793 -0.55204C63.5106 1.2113 62.8206 14.9806 56.6566 18.308C53.452 19.918 48.668 17.3726 49.1433 13.6926C49.542 10.5953 53.3446 8.96996 56.166 10.028C58.9873 11.086 60.8426 13.9226 61.9926 16.8053C67.804 30.7586 53.6053 36.0333 51.3513 27.1246C51.198 24.15 54.142 21.6506 56.994 21.7886C65.6573 22.7546 66.792 36.0486 60.352 40.848C58.4353 42.8106 55.338 42.0593 54.786 39.192C53.82 35.0213 58.834 31.3106 62.744 32.66C69.782 35.1133 70.9473 47.9166 64.2466 51.52C61.2873 53.0073 56.9326 51.0446 56.81 47.6253C58.2973 38.9006 71.6066 43.2093 67.1293 55.3993C66.0406 58.3433 62.8206 61.272 60.2906 59.524C55.5526 54.2953 67.2366 47.0426 69.8893 60.4286C71.53 66.838 67.0986 75.6393 60.0146 73.6613C58.0213 70.9166 61.1033 66.5006 64.3846 66.8993C67.666 67.298 69.8586 71.07 69.6133 74.52C69.3833 77.8933 67.298 81.3893 65.0593 83.674C63.9093 84.8546 62.4833 85.8973 60.8733 86.1273C59.2633 86.3573 57.1473 85.7133 56.672 83.8273C56.6413 83.7046 56.6106 83.5666 56.5953 83.444C56.3806 81.5886 57.7146 79.3193 59.5086 78.9973C62.2686 78.5066 64.9673 79.6566 66.1786 82.4473C67.5586 85.5906 67.3133 89.424 66.562 92.7053C66.148 94.53 65.412 96.3853 64.4 97.98C63.066 100.096 60.8733 102.856 58.2206 101.415C55.568 99.9733 55.798 95.4193 58.604 94.346C60.536 93.5946 62.8513 93.5333 64.5533 95.0206C66.4546 96.6766 67.2673 99.4673 67.5586 101.982C67.9726 105.647 67.482 109.848 65.4426 112.915C63.4033 115.981 58.5426 117.883 55.6906 114.709C55.5986 114.617 55.522 114.509 55.4453 114.417C53.6513 112.071 54.7093 108.575 57.0706 107.195C59.8153 105.601 63.5873 106.981 65.3353 109.603C66.9146 111.979 67.1446 115.138 66.7766 117.959C66.3166 121.455 63.94 128.831 59.4626 127.895C56.1813 127.205 56.1046 122.13 59.34 121.195C60.7966 120.765 62.4986 120.842 63.8173 121.563C72.1126 126.025 69.7513 139.518 60.4746 140.622C50.6306 141.45 51.3973 128.693 60.858 130.701C69.046 133.891 67.988 148.933 60.95 151.371C57.5766 152.536 55.752 147.123 59.064 145.759C64.5993 143.474 73.048 150.589 66.1326 161.184C64.2926 164.005 60.306 165.677 57.3006 164.113C53.9733 162.38 55.0313 157.703 58.3893 156.707C62.33 155.541 65.7646 160.08 67.4206 163.315C69.0766 166.551 70.2113 170.967 68.494 174.447C67.942 175.567 67.0986 176.517 66.0406 177.146C64.2926 178.189 62.1153 178.112 60.398 177.008C55.5833 173.941 61.8086 165.738 69.1073 169.004" stroke="#262929" stroke-width="0.37" stroke-miterlimit="10"/>
<path d="M67.206 -32.476L67.1294 -32.5374C64.4614 -35.19 66.608 -40.618 70.242 -41.262C73.876 -41.906 77.4027 -38.6247 78.0927 -34.8527C79.0587 -29.1947 75.3787 -21.5127 71.576 -20.8994C69.6287 -20.5774 68.494 -22.402 69.9047 -23.874C71.116 -25.1314 72.404 -25.346 74.106 -25.116C82.754 -23.0767 80.7607 -11.086 73.416 -8.32604C70.3034 -6.90004 65.2587 -8.2187 65.7494 -11.73C66.2094 -15.042 71.1314 -15.088 73.508 -12.834C78.7367 -7.86604 76.2527 2.6833 70.058 3.86397C67.712 4.30863 65.5194 -2.45337 72.772 -0.55204C79.5034 1.2113 78.8134 14.9806 72.6494 18.308C69.4447 19.918 64.6607 17.3726 65.136 13.6926C65.5347 10.5953 69.3374 8.96996 72.1587 10.028C74.98 11.086 76.8354 13.9226 77.9854 16.8053C83.7967 30.7586 69.598 36.0333 67.344 27.1246C67.1907 24.15 70.1347 21.6506 72.9867 21.7886C81.65 22.7546 82.7847 36.0486 76.3447 40.848C74.428 42.8106 71.3307 42.0593 70.7787 39.192C69.8127 35.0213 74.8267 31.3106 78.7367 32.66C85.7747 35.1133 86.94 47.9166 80.2394 51.52C77.28 53.0073 72.9254 51.0446 72.8027 47.6253C74.29 38.9006 87.5994 43.2093 83.122 55.3993C82.0334 58.3433 78.8134 61.272 76.2834 59.524C71.5454 54.2953 83.2294 47.0426 85.882 60.4286C87.5227 66.838 83.0914 75.6393 76.0074 73.6613C74.014 70.9166 77.096 66.5006 80.3774 66.8993C83.6587 67.298 85.8514 71.07 85.606 74.52C85.376 77.8933 83.2907 81.3893 81.052 83.674C79.902 84.8546 78.476 85.8973 76.866 86.1273C75.256 86.3573 73.14 85.7133 72.6647 83.8273C72.634 83.7046 72.6034 83.5666 72.588 83.444C72.3734 81.5886 73.7074 79.3193 75.5014 78.9973C78.2614 78.5066 80.96 79.6566 82.1714 82.4473C83.5514 85.5906 83.306 89.424 82.5547 92.7053C82.1407 94.53 81.4047 96.3853 80.3927 97.98C79.0587 100.096 76.866 102.856 74.2134 101.415C71.5607 99.9733 71.7907 95.4193 74.5967 94.346C76.5287 93.5946 78.844 93.5333 80.546 95.0206C82.4474 96.6766 83.26 99.4673 83.5514 101.982C83.9654 105.647 83.4747 109.848 81.4354 112.915C79.396 115.981 74.5354 117.883 71.6834 114.709C71.5914 114.617 71.5147 114.509 71.438 114.417C69.644 112.071 70.702 108.575 73.0634 107.195C75.808 105.601 79.58 106.981 81.328 109.603C82.9074 111.979 83.1374 115.138 82.7694 117.959C82.3094 121.455 79.9327 128.831 75.4554 127.895C72.174 127.205 72.0974 122.13 75.3327 121.195C76.7894 120.765 78.4914 120.842 79.81 121.563C88.1054 126.025 85.744 139.518 76.4674 140.622C66.6234 141.45 67.39 128.693 76.8507 130.701C85.0387 133.891 83.9807 148.933 76.9427 151.371C73.5694 152.536 71.7447 147.123 75.0567 145.759C80.592 143.474 89.0407 150.589 82.1254 161.184C80.2854 164.005 76.2987 165.677 73.2934 164.113C69.966 162.38 71.024 157.703 74.382 156.707C78.3227 155.541 81.7574 160.08 83.4134 163.315C85.0694 166.566 86.204 170.967 84.4867 174.447C83.9347 175.567 83.0914 176.517 82.0334 177.146C80.2854 178.189 78.108 178.112 76.3907 177.008C71.576 173.941 77.8014 165.738 85.1 169.004" stroke="#262929" stroke-width="0.37" stroke-miterlimit="10"/>
<path d="M81.2054 -35.4661L81.1287 -35.5275C78.4607 -38.1801 80.6074 -43.6081 84.2414 -44.2521C87.8754 -44.8961 91.402 -41.6148 92.092 -37.8428C93.058 -32.1848 89.378 -24.5028 85.5754 -23.8895C83.628 -23.5675 82.4934 -25.3921 83.904 -26.8641C85.1154 -28.1215 86.4034 -28.3361 88.1054 -28.1061C96.7534 -26.0668 94.76 -14.0761 87.4154 -11.3161C84.3027 -9.89015 79.258 -11.2088 79.7487 -14.7201C80.2087 -18.0321 85.1307 -18.0781 87.5074 -15.8241C92.736 -10.8561 90.252 -0.306814 84.0574 0.873853C81.7114 1.31851 79.5187 -5.44348 86.7714 -3.54215C93.5027 -1.77882 92.8127 11.9905 86.6487 15.3179C83.444 16.9279 78.66 14.3825 79.1354 10.7025C79.534 7.60518 83.3367 5.97985 86.158 7.03785C88.9794 8.09585 90.8347 10.9325 91.9847 13.8152C97.796 27.7685 83.5974 33.0432 81.3434 24.1345C81.19 21.1599 84.134 18.6605 86.986 18.7985C95.6494 19.7645 96.784 33.0585 90.344 37.8579C88.4274 39.8205 85.33 39.0692 84.778 36.2019C83.812 32.0312 88.826 28.3205 92.736 29.6699C99.774 32.1232 100.939 44.9265 94.2387 48.5299C91.2794 50.0172 86.9247 48.0545 86.802 44.6352C88.2894 35.9105 101.599 40.2192 97.1214 52.4092C96.0327 55.3532 92.8127 58.2819 90.2827 56.5339C85.5447 51.3052 97.2287 44.0525 99.8814 57.4385C101.522 63.8479 97.0907 72.6492 90.0067 70.6712C88.0134 67.9265 91.0954 63.5105 94.3767 63.9092C97.658 64.3079 99.8507 68.0799 99.6054 71.5299C99.3754 74.9032 97.29 78.3992 95.0514 80.6839C93.9014 81.8645 92.4754 82.9072 90.8654 83.1372C89.2554 83.3672 87.1394 82.7232 86.664 80.8372C86.6334 80.7145 86.6027 80.5765 86.5874 80.4539C86.3727 78.5985 87.7067 76.3292 89.5007 76.0072C92.2607 75.5165 94.9594 76.6665 96.1707 79.4572C97.5507 82.6005 97.3054 86.4339 96.554 89.7152C96.14 91.5399 95.404 93.3952 94.392 94.9899C93.058 97.1059 90.8654 99.8659 88.2127 98.4245C85.56 96.9832 85.79 92.4292 88.596 91.3559C90.528 90.6045 92.8434 90.5432 94.5454 92.0305C96.4467 93.6865 97.2594 96.4772 97.5507 98.9919C97.9647 102.656 97.474 106.858 95.4347 109.924C93.334 113.083 88.5347 114.892 85.6827 111.718C85.5907 111.626 85.514 111.519 85.4374 111.427C83.6434 109.081 84.7014 105.585 87.0627 104.205C89.8074 102.61 93.5794 103.99 95.3274 106.612C96.9067 108.989 97.1367 112.148 96.7687 114.969C96.3087 118.465 93.932 125.841 89.4547 124.905C86.1734 124.215 86.0967 119.14 89.332 118.205C90.7887 117.775 92.4907 117.852 93.8094 118.573C102.105 123.035 99.7434 136.528 90.4667 137.632C80.6227 138.46 81.3894 125.703 90.85 127.711C99.038 130.901 97.98 145.943 90.942 148.381C87.5687 149.546 85.744 144.133 89.056 142.769C94.5914 140.484 103.04 147.599 96.1247 158.194C94.2847 161.015 90.298 162.687 87.2927 161.123C83.9654 159.39 85.0234 154.713 88.3814 153.717C92.322 152.551 95.7567 157.09 97.4127 160.325C99.0687 163.561 100.203 167.977 98.4861 171.457C97.9341 172.577 97.0907 173.527 96.0327 174.156C94.2847 175.199 92.1074 175.122 90.39 174.018C85.5754 170.951 91.8007 162.748 99.0994 166.014" stroke="#262929" stroke-width="0.37" stroke-miterlimit="10"/>
<path d="M95.1894 -35.4661L95.1127 -35.5275C92.4447 -38.1801 94.5914 -43.6081 98.2254 -44.2521C101.859 -44.8961 105.386 -41.6148 106.076 -37.8428C107.042 -32.1848 103.362 -24.5028 99.5594 -23.8895C97.6121 -23.5675 96.4774 -25.3921 97.8881 -26.8641C99.0994 -28.1215 100.387 -28.3361 102.089 -28.1061C110.737 -26.0668 108.744 -14.0761 101.399 -11.3161C98.2867 -9.89015 93.2421 -11.2088 93.7328 -14.7201C94.1928 -18.0321 99.1148 -18.0781 101.491 -15.8241C106.72 -10.8561 104.236 -0.306814 98.0414 0.873853C95.6954 1.31851 93.5027 -5.44348 100.755 -3.54215C107.487 -1.77882 106.797 11.9905 100.633 15.3179C97.4281 16.9279 92.6441 14.3825 93.1194 10.7025C93.5181 7.60518 97.3207 5.97985 100.142 7.03785C102.963 8.09585 104.819 10.9325 105.969 13.8152C111.78 27.7685 97.5814 33.0432 95.3274 24.1345C95.1741 21.1599 98.1181 18.6605 100.97 18.7985C109.633 19.7645 110.768 33.0585 104.328 37.8579C102.411 39.8205 99.3141 39.0692 98.7621 36.2019C97.7961 32.0312 102.81 28.3205 106.72 29.6699C113.758 32.1232 114.923 44.9265 108.223 48.5299C105.263 50.0172 100.909 48.0545 100.786 44.6352C102.273 35.9105 115.583 40.2192 111.105 52.4092C110.017 55.3532 106.797 58.2819 104.267 56.5339C99.5287 51.3052 111.213 44.0525 113.865 57.4385C115.506 63.8479 111.075 72.6492 103.991 70.6712C101.997 67.9265 105.079 63.5105 108.361 63.9092C111.642 64.3079 113.835 68.0799 113.589 71.5299C113.359 74.9032 111.274 78.3992 109.035 80.6839C107.885 81.8645 106.459 82.9072 104.849 83.1372C103.239 83.3672 101.123 82.7232 100.648 80.8372C100.617 80.7145 100.587 80.5765 100.571 80.4539C100.357 78.5985 101.691 76.3292 103.485 76.0072C106.245 75.5165 108.943 76.6665 110.155 79.4572C111.535 82.6005 111.289 86.4339 110.538 89.7152C110.124 91.5399 109.388 93.3952 108.376 94.9899C107.042 97.1059 104.849 99.8659 102.197 98.4245C99.5441 96.9832 99.7741 92.4292 102.58 91.3559C104.512 90.6045 106.827 90.5432 108.529 92.0305C110.431 93.6865 111.243 96.4772 111.535 98.9919C111.949 102.656 111.458 106.858 109.419 109.924C107.379 112.991 102.519 114.892 99.6667 111.718C99.5747 111.626 99.4981 111.519 99.4214 111.427C97.6274 109.081 98.6854 105.585 101.047 104.205C103.791 102.61 107.563 103.99 109.311 106.612C110.891 108.989 111.121 112.148 110.753 114.969C110.293 118.465 107.916 125.841 103.439 124.905C100.157 124.215 100.081 119.14 103.316 118.205C104.773 117.775 106.475 117.852 107.793 118.573C116.089 123.035 113.727 136.528 104.451 137.632C94.6068 138.46 95.3734 125.703 104.834 127.711C113.022 130.901 111.964 145.943 104.926 148.381C101.553 149.546 99.7281 144.133 103.04 142.769C108.575 140.484 117.024 147.599 110.109 158.194C108.269 161.015 104.282 162.687 101.277 161.123C97.9494 159.39 99.0074 154.713 102.365 153.717C106.306 152.551 109.741 157.09 111.397 160.325C113.053 163.561 114.187 167.977 112.47 171.457C111.918 172.577 111.075 173.527 110.017 174.156C108.269 175.199 106.091 175.122 104.374 174.018C99.5594 170.951 105.785 162.748 113.083 166.014" stroke="#262929" stroke-width="0.37" stroke-miterlimit="10"/>
<path d="M108.683 -35.4661L108.606 -35.5275C105.938 -38.1801 108.085 -43.6081 111.719 -44.2521C115.353 -44.8961 118.879 -41.6148 119.569 -37.8428C120.535 -32.1848 116.855 -24.5028 113.053 -23.8895C111.105 -23.5675 109.971 -25.3921 111.381 -26.8641C112.593 -28.1215 113.881 -28.3361 115.583 -28.1061C124.231 -26.0668 122.237 -14.0761 114.893 -11.3161C111.78 -9.89015 106.735 -11.2088 107.226 -14.7201C107.686 -18.0321 112.608 -18.0781 114.985 -15.8241C120.213 -10.8561 117.729 -0.306814 111.535 0.873853C109.189 1.31851 106.996 -5.44348 114.249 -3.54215C120.98 -1.77882 120.29 11.9905 114.126 15.3179C110.921 16.9279 106.137 14.3825 106.613 10.7025C107.011 7.60518 110.814 5.97985 113.635 7.03785C116.457 8.09585 118.312 10.9325 119.462 13.8152C125.273 27.7685 111.075 33.0432 108.821 24.1345C108.667 21.1599 111.611 18.6605 114.463 18.7985C123.127 19.7645 124.261 33.0585 117.821 37.8579C115.905 39.8205 112.807 39.0692 112.255 36.2019C111.289 32.0312 116.303 28.3205 120.213 29.6699C127.251 32.1232 128.417 44.9265 121.716 48.5299C118.757 50.0172 114.402 48.0545 114.279 44.6352C115.767 35.9105 129.076 40.2192 124.599 52.4092C123.51 55.3532 120.29 58.2819 117.76 56.5339C113.022 51.3052 124.706 44.0525 127.359 57.4385C128.999 63.8479 124.568 72.6492 117.484 70.6712C115.491 67.9265 118.573 63.5105 121.854 63.9092C125.135 64.3079 127.328 68.0799 127.083 71.5299C126.853 74.9032 124.767 78.3992 122.529 80.6839C121.379 81.8645 119.953 82.9072 118.343 83.1372C116.733 83.3672 114.617 82.7232 114.141 80.8372C114.111 80.7145 114.08 80.5765 114.065 80.4539C113.85 78.5985 115.184 76.3292 116.978 76.0072C119.738 75.5165 122.437 76.6665 123.648 79.4572C125.028 82.6005 124.783 86.4339 124.031 89.7152C123.617 91.5399 122.881 93.3952 121.869 94.9899C120.535 97.1059 118.343 99.8659 115.69 98.4245C113.037 96.9832 113.267 92.4292 116.073 91.3559C118.005 90.6045 120.321 90.5432 122.023 92.0305C123.924 93.6865 124.737 96.4772 125.028 98.9919C125.442 102.656 124.951 106.858 122.912 109.924C120.811 113.083 116.012 114.892 113.16 111.718C113.068 111.626 112.991 111.519 112.915 111.427C111.121 109.081 112.179 105.585 114.54 104.205C117.285 102.61 121.057 103.99 122.805 106.612C124.384 108.989 124.614 112.148 124.246 114.969C123.786 118.465 121.409 125.841 116.932 124.905C113.651 124.215 113.574 119.14 116.809 118.205C118.266 117.775 119.968 117.852 121.287 118.573C129.582 123.035 127.221 136.528 117.944 137.632C108.1 138.46 108.867 125.703 118.327 127.711C126.515 130.901 125.457 145.943 118.419 148.381C115.046 149.546 113.221 144.133 116.533 142.769C122.069 140.484 130.517 147.599 123.602 158.194C121.762 161.015 117.775 162.687 114.77 161.123C111.443 159.39 112.501 154.713 115.859 153.717C119.799 152.551 123.234 157.09 124.89 160.325C126.546 163.561 127.681 167.977 125.963 171.457C125.411 172.577 124.568 173.527 123.51 174.156C121.762 175.199 119.585 175.122 117.867 174.018C113.053 170.951 119.278 162.748 126.577 166.014" stroke="#262929" stroke-width="0.37" stroke-miterlimit="10"/>
</g>
<rect x="0.5" y="0.5" width="137" height="137" rx="68.5" stroke="#6B6B6B"/>
<defs>
<clipPath id="clip0_6_94">
<rect width="138" height="138" rx="69" fill="white"/>
</clipPath>
</defs>
</svg>
