<svg width="138" height="138" viewBox="0 0 138 138" fill="none" xmlns="http://www.w3.org/2000/svg">
<g clip-path="url(#clip0_6_146)">
<path d="M44.068 -18.6448C54.2186 -15.3635 46.4293 5.48985 40.342 10.9945C36.8153 14.9505 34.6993 10.3505 37.0606 6.54785C46 -7.26749 47.2573 17.1125 46.046 23.3225C45.6166 26.6805 44.666 30.2225 42.1973 32.3232C39.7286 34.4239 35.3893 34.1172 34.1166 31.0352C32.798 27.3859 35.6806 22.4332 38.87 20.9152C42.366 19.6885 45.4326 23.8899 46.4293 27.7079C48.1006 34.0405 47.7173 41.7379 44.6506 47.5185C42.5193 51.5512 36.5853 55.8139 32.1693 53.6519C29.6853 52.4405 28.52 48.9905 29.4246 46.2305C30.3293 43.4705 32.982 41.5999 35.7113 41.4465C38.4406 41.2932 41.124 42.7039 42.9486 44.8812C44.7733 47.0432 45.8006 49.8952 46.184 52.7779C46.7206 56.8412 46.23 61.6712 44.0526 65.1825C42.6726 67.4365 39.1 69.8899 36.5086 68.9852C32.6446 67.6205 33.5033 62.5605 36.432 60.7819C39.56 58.8959 43.7306 59.7239 46.046 62.6219C47.8246 64.8452 48.4993 67.8812 48.714 70.7639C48.898 73.2785 48.7446 75.8239 48.2233 78.2925C47.702 80.8072 46.7973 83.3219 45.2026 85.2692C43.7 87.0939 41.5226 88.3819 39.238 88.3205C36.9533 88.2592 34.684 86.7105 34.0246 84.3799C33.4573 82.3712 34.178 80.0405 35.7113 78.7219C39.6673 75.3179 45.356 79.3045 46.5213 83.7972C48.484 91.2645 46.966 105.586 39.744 109.266C37.8273 110.048 35.374 109.603 34.178 107.794C33.626 106.935 33.4266 105.939 33.4726 104.896C33.8253 98.3946 42.5346 97.4745 44.2366 103.73C47.1193 114.341 44.9726 133.078 34.96 129.168C31.9086 127.574 31.4793 122.452 33.856 119.861C39.836 114.096 47.8093 121.548 47.2266 129.076C47.518 135.808 40.802 153.778 32.5833 152.996C31.1113 152.92 29.9766 151.846 29.302 150.42C28.4126 148.519 28.5353 146.28 29.44 144.394C30.912 141.312 33.396 138.69 36.7386 138.307C40.48 137.878 44.114 140.699 45.6473 144.394C47.1806 148.09 46.874 152.398 45.6473 156.216C44.6506 159.329 42.964 162.334 40.3573 164.067C37.7506 165.8 34.0706 165.968 31.7246 163.837C29.3786 161.706 29.1793 157.167 31.694 155.281C34.96 152.843 39.4373 155.312 41.2773 158.516C42.8566 161.292 43.148 164.711 42.8566 167.946C42.6726 169.986 42.228 172.056 41.1393 173.727C39.8206 175.766 37.3826 177.146 35.0673 176.15C34.132 175.751 33.3806 174.938 33.0433 173.926C32.2766 171.672 33.81 169.756 35.604 168.989C38.4713 167.762 41.8753 169.096 44.0066 171.488C48.024 175.981 47.7173 184.077 43.3626 188.217C40.5873 190.854 35.834 191.575 33.35 188.631" stroke="#262929" stroke-width="0.37" stroke-miterlimit="10"/>
<path d="M25.6066 -4.43098C35.7573 -1.14965 27.968 19.7036 21.8806 25.2083C18.354 29.1643 16.238 24.5643 18.5993 20.7616C27.5386 6.94636 28.796 31.3263 27.5846 37.5363C27.1553 40.8943 26.2046 44.4363 23.736 46.537C21.2673 48.6376 16.928 48.3311 15.6553 45.2491C14.3366 41.5996 17.2193 36.6471 20.4086 35.1291C23.9046 33.9023 26.9713 38.1036 27.968 41.9216C29.6393 48.2543 29.256 55.9516 26.1893 61.7323C24.058 65.7651 18.124 70.0276 13.708 67.8656C11.224 66.6543 10.0586 63.2043 10.9633 60.4443C11.868 57.6843 14.5206 55.8136 17.25 55.6603C19.9793 55.507 22.6626 56.9176 24.4873 59.0951C26.312 61.2571 27.3393 64.1091 27.7226 66.9916C28.2593 71.0551 27.7686 75.885 25.5913 79.3963C24.2113 81.6503 20.6386 84.1036 18.0473 83.199C14.1833 81.8343 15.042 76.7743 17.9706 74.9956C21.0986 73.1096 25.2693 73.9376 27.5846 76.8356C29.3633 79.059 30.038 82.095 30.2526 84.9776C30.4366 87.4923 30.2833 90.0376 29.762 92.5063C29.2406 94.975 28.336 97.5356 26.7413 99.483C25.2386 101.308 23.0613 102.596 20.7766 102.534C18.492 102.473 16.2226 100.924 15.5633 98.5936C14.996 96.585 15.7166 94.2543 17.25 92.9356C21.206 89.5316 26.8946 93.5183 28.06 98.011C30.0226 105.478 28.5046 119.8 21.2826 123.48C19.366 124.262 16.9126 123.817 15.7166 122.008C15.1646 121.149 14.9653 120.152 15.0113 119.11C15.364 112.608 24.0733 111.688 25.7753 117.944C28.658 128.555 26.5113 147.292 16.4986 143.382C13.4473 141.788 13.018 136.666 15.3946 134.075C21.3746 128.31 29.348 135.762 28.7653 143.29C29.0566 150.022 22.3406 167.992 14.122 167.21C12.65 167.134 11.5153 166.06 10.8406 164.634C9.95129 162.733 10.074 160.494 10.9786 158.608C12.4506 155.526 14.9346 152.904 18.2773 152.521C22.0186 152.092 25.6526 154.913 27.186 158.608C28.7193 162.304 28.4126 166.612 27.186 170.43C26.1893 173.543 24.5026 176.548 21.896 178.281C19.274 180.014 15.6093 180.182 13.2633 178.051C10.9173 175.92 10.718 171.381 13.2326 169.495C16.4986 167.057 20.976 169.526 22.816 172.73C24.3953 175.506 24.6866 178.925 24.3953 182.16C24.2113 184.2 23.7666 186.27 22.678 187.941C21.3593 189.98 18.9213 191.36 16.606 190.364C15.6706 189.965 14.9193 189.152 14.582 188.14C13.8153 185.886 15.3486 183.97 17.1426 183.203C20.01 181.976 23.414 183.31 25.5453 185.702C29.5626 190.195 29.256 198.291 24.9013 202.431C22.126 205.068 17.3726 205.789 14.8886 202.845" stroke="#262929" stroke-width="0.37" stroke-miterlimit="10"/>
<path d="M64.4306 -27.1705C74.5813 -23.8891 66.792 -3.03577 60.7046 2.4689C57.178 6.4249 55.062 1.8249 57.4233 -1.97777C66.3626 -15.7931 67.62 8.5869 66.4086 14.7969C65.9793 18.1549 65.0286 21.6969 62.56 23.7975C60.0913 25.8982 55.752 25.5915 54.4793 22.5095C53.1606 18.8602 56.0433 13.9075 59.2326 12.3895C62.7286 11.1629 65.7953 15.3642 66.792 19.1822C68.4633 25.5149 68.08 33.2122 65.0133 38.9929C62.882 43.0255 56.948 47.2882 52.532 45.1262C50.048 43.9149 48.8826 40.4649 49.7873 37.7049C50.692 34.9449 53.3446 33.0742 56.074 32.9209C58.8033 32.7675 61.4866 34.1782 63.3113 36.3555C65.136 38.5329 66.1633 41.3695 66.5467 44.2522C67.0833 48.3155 66.5926 53.1455 64.4153 56.6569C63.0353 58.9109 59.4626 61.3642 56.8713 60.4595C53.0073 59.0949 53.866 54.0349 56.7946 52.2562C59.9226 50.3702 64.0933 51.1982 66.4086 54.0962C68.1873 56.3195 68.862 59.3555 69.0766 62.2382C69.2606 64.7529 69.1073 67.2982 68.586 69.7669C68.0646 72.2355 67.16 74.7962 65.5653 76.7435C64.0626 78.5682 61.8853 79.8562 59.6006 79.7949C57.316 79.7335 55.0467 78.1849 54.3873 75.8542C53.82 73.8455 54.5406 71.5149 56.074 70.1962C60.03 66.7922 65.7186 70.7789 66.884 75.2715C68.8466 82.7389 67.3286 97.0602 60.1066 100.74C58.19 101.522 55.7366 101.078 54.5406 99.2682C53.9886 98.4095 53.7893 97.4129 53.8353 96.3702C54.188 89.8689 62.8973 88.9489 64.5993 95.2049C67.482 105.816 65.3353 124.553 55.3227 120.643C52.2713 119.048 51.842 113.927 54.2186 111.336C60.1986 105.57 68.172 113.022 67.5893 120.551C67.8807 127.282 61.1646 145.253 52.946 144.471C51.474 144.394 50.3393 143.321 49.6646 141.895C48.7753 139.994 48.898 137.755 49.8026 135.869C51.2746 132.787 53.7587 130.165 57.1013 129.782C60.8427 129.352 64.4766 132.174 66.01 135.869C67.528 139.564 67.2366 143.873 66.01 147.691C65.0133 150.804 63.3266 153.809 60.72 155.542C58.098 157.274 54.4333 157.443 52.0873 155.312C49.7413 153.18 49.542 148.642 52.0566 146.756C55.3226 144.318 59.8 146.786 61.64 149.991C63.2193 152.766 63.5106 156.186 63.2193 159.421C63.0353 161.46 62.5906 163.53 61.502 165.202C60.1833 167.241 57.7453 168.621 55.43 167.624C54.4947 167.226 53.7433 166.413 53.406 165.401C52.6393 163.147 54.1726 161.23 55.9666 160.464C58.834 159.237 62.238 160.571 64.3693 162.963C68.3866 167.456 68.08 175.552 63.7253 179.692C60.95 182.329 56.1966 183.05 53.7126 180.106" stroke="#262929" stroke-width="0.37" stroke-miterlimit="10"/>
<path d="M81.9566 -11.546C92.1073 -8.26471 84.318 12.5886 78.2306 18.0933C74.704 22.0493 72.588 17.4493 74.9493 13.6466C83.8886 -0.1687 85.146 24.2113 83.9346 30.4213C83.5053 33.7793 82.5546 37.3213 80.086 39.422C77.6173 41.5226 73.278 41.216 72.0053 38.134C70.6866 34.4846 73.5693 29.532 76.7586 28.014C80.2546 26.7873 83.3213 30.9886 84.318 34.8066C85.9893 41.1393 85.606 48.8366 82.5393 54.6173C80.408 58.65 74.474 62.9126 70.058 60.7506C67.574 59.5393 66.4086 56.0893 67.3133 53.3293C68.218 50.5693 70.8706 48.6986 73.6 48.5453C76.3293 48.392 79.0126 49.8026 80.8373 51.98C82.662 54.1573 83.6893 56.994 84.0726 59.8766C84.6093 63.94 84.1186 68.77 81.9413 72.2813C80.5613 74.5353 76.9886 76.9886 74.3973 76.084C70.5333 74.7193 71.392 69.6593 74.3206 67.8806C77.4486 65.9946 81.6193 66.8226 83.9346 69.7206C85.7133 71.944 86.388 74.98 86.6026 77.8626C86.7866 80.3773 86.6333 82.9226 86.112 85.3913C85.5906 87.86 84.686 90.4206 83.0913 92.368C81.5886 94.1926 79.4113 95.4806 77.1266 95.4193C74.842 95.358 72.5726 93.8093 71.9133 91.4786C71.346 89.47 72.0666 87.1393 73.6 85.8206C77.556 82.4166 83.2446 86.4033 84.41 90.896C86.3726 98.3633 84.8546 112.685 77.6326 116.365C75.716 117.147 73.2626 116.702 72.0666 114.893C71.5146 114.034 71.3153 113.037 71.3613 111.995C71.714 105.493 80.4233 104.573 82.1253 110.829C85.008 121.44 82.8613 140.177 72.8486 136.267C69.7973 134.673 69.368 129.551 71.7446 126.96C77.7246 121.195 85.698 128.647 85.1153 136.175C85.4066 142.907 78.6906 160.877 70.472 160.095C69 160.019 67.8653 158.945 67.1906 157.519C66.3013 155.618 66.424 153.379 67.3286 151.493C68.8006 148.411 71.2846 145.789 74.6273 145.406C78.3686 144.977 82.0026 147.798 83.536 151.493C85.0693 155.189 84.7626 159.497 83.536 163.315C82.5393 166.428 80.8526 169.433 78.246 171.166C75.624 172.899 71.9593 173.067 69.6133 170.936C67.2673 168.805 67.068 164.266 69.5826 162.38C72.8486 159.942 77.326 162.411 79.166 165.615C80.7453 168.391 81.0366 171.81 80.7453 175.045C80.5613 177.085 80.1166 179.155 79.028 180.826C77.7093 182.865 75.2713 184.245 72.956 183.249C72.0206 182.85 71.2693 182.037 70.932 181.025C70.1653 178.771 71.6986 176.855 73.4926 176.088C76.36 174.861 79.764 176.195 81.8953 178.587C85.9126 183.08 85.606 191.176 81.2513 195.316C78.476 197.953 73.7226 198.674 71.2386 195.73" stroke="#262929" stroke-width="0.37" stroke-miterlimit="10"/>
<path d="M102.319 -15.8086C112.47 -12.5272 104.681 8.3261 98.5933 13.8308C95.0666 17.7868 92.9506 13.1868 95.312 9.3841C104.251 -4.43124 105.509 19.9488 104.297 26.1588C103.868 29.5168 102.917 33.0588 100.449 35.1594C97.98 37.2601 93.6406 36.9534 92.368 33.8714C91.0493 30.2221 93.932 25.2694 97.1213 23.7514C100.617 22.5248 103.684 26.7261 104.681 30.5441C106.352 36.8768 105.969 44.5741 102.902 50.3548C100.771 54.3874 94.8366 58.6501 90.4206 56.4881C87.9366 55.2768 86.7713 51.8268 87.676 49.0668C88.5806 46.3068 91.2333 44.4361 93.9626 44.2828C96.692 44.1294 99.3753 45.5401 101.2 47.7174C103.025 49.8948 104.052 52.7314 104.435 55.6141C104.972 59.6774 104.481 64.5074 102.304 68.0188C100.924 70.2728 97.3513 72.7261 94.76 71.8214C90.896 70.4568 91.7546 65.3968 94.6833 63.6181C97.8113 61.7321 101.982 62.5601 104.297 65.4581C106.076 67.6814 106.751 70.7174 106.965 73.6001C107.149 76.1148 106.996 78.6601 106.475 81.1288C105.953 83.6434 105.049 86.1581 103.454 88.1054C101.951 89.9301 99.774 91.2181 97.4893 91.1568C95.2046 91.0954 92.9353 89.5468 92.276 87.2161C91.7086 85.2074 92.4293 82.8768 93.9626 81.5581C97.9186 78.1541 103.607 82.1408 104.773 86.6334C106.735 94.1008 105.217 108.422 97.9953 112.102C96.0786 112.884 93.6253 112.439 92.4293 110.63C91.8773 109.771 91.678 108.775 91.724 107.732C92.0766 101.231 100.786 100.311 102.488 106.567C105.371 117.177 103.224 135.915 93.2113 132.005C90.16 130.41 89.7306 125.289 92.1073 122.697C98.0873 116.932 106.061 124.384 105.478 131.913C105.769 138.644 99.0533 156.615 90.8346 155.833C89.3626 155.756 88.228 154.683 87.5533 153.257C86.664 151.355 86.7866 149.117 87.6913 147.231C89.1633 144.149 91.6473 141.527 94.99 141.143C98.7313 140.714 102.365 143.535 103.899 147.231C105.417 150.926 105.125 155.235 103.899 159.053C102.902 162.165 101.215 165.171 98.6086 166.903C96.002 168.636 92.322 168.805 89.976 166.673C87.63 164.542 87.4306 160.003 89.9453 158.117C93.2113 155.679 97.6886 158.148 99.5286 161.353C101.108 164.128 101.399 167.547 101.108 170.783C100.924 172.822 100.479 174.892 99.3906 176.563C98.072 178.603 95.634 179.983 93.3186 178.986C92.3833 178.587 91.632 177.775 91.2946 176.763C90.528 174.509 92.0613 172.592 93.8553 171.825C96.7226 170.599 100.127 171.933 102.258 174.325C106.275 178.817 105.969 186.913 101.614 191.053C98.8386 193.691 94.0853 194.411 91.6013 191.467" stroke="#262929" stroke-width="0.37" stroke-miterlimit="10"/>
<path d="M122.682 -15.8086C132.832 -12.5272 125.043 8.3261 118.956 13.8308C115.429 17.7868 113.313 13.1868 115.674 9.3841C124.614 -4.43124 125.871 19.9488 124.66 26.1588C124.23 29.5168 123.28 33.0588 120.811 35.1594C118.342 37.2601 114.003 36.9534 112.73 33.8714C111.412 30.2221 114.294 25.2694 117.484 23.7514C120.98 22.5248 124.046 26.7261 125.043 30.5441C126.714 36.8768 126.331 44.5741 123.264 50.3548C121.133 54.3874 115.199 58.6501 110.783 56.4881C108.299 55.2768 107.134 51.8268 108.038 49.0668C108.943 46.3068 111.596 44.4361 114.325 44.2828C117.054 44.1294 119.738 45.5401 121.562 47.7174C123.387 49.8948 124.414 52.7314 124.798 55.6141C125.334 59.6774 124.844 64.5074 122.666 68.0188C121.286 70.2728 117.714 72.7261 115.122 71.8214C111.258 70.4568 112.117 65.3968 115.046 63.6181C118.174 61.7321 122.344 62.5601 124.66 65.4581C126.438 67.6814 127.113 70.7174 127.328 73.6001C127.512 76.1148 127.358 78.6601 126.837 81.1288C126.316 83.6434 125.411 86.1581 123.816 88.1054C122.314 89.9301 120.136 91.2181 117.852 91.1568C115.567 91.0954 113.298 89.5468 112.638 87.2161C112.071 85.2074 112.792 82.8768 114.325 81.5581C118.281 78.1541 123.97 82.1408 125.135 86.6334C127.098 94.1008 125.58 108.422 118.358 112.102C116.441 112.884 113.988 112.439 112.792 110.63C112.24 109.771 112.04 108.775 112.086 107.732C112.439 101.231 121.148 100.311 122.85 106.567C125.733 117.177 123.586 135.915 113.574 132.005C110.522 130.41 110.093 125.289 112.47 122.697C118.45 116.932 126.423 124.384 125.84 131.913C126.132 138.644 119.416 156.615 111.197 155.833C109.725 155.756 108.59 154.683 107.916 153.257C107.026 151.355 107.149 149.117 108.054 147.231C109.526 144.149 112.01 141.527 115.352 141.143C119.094 140.714 122.728 143.535 124.261 147.231C125.779 150.926 125.488 155.235 124.261 159.053C123.264 162.165 121.578 165.171 118.971 166.903C116.349 168.636 112.684 168.805 110.338 166.673C107.992 164.542 107.793 160.003 110.308 158.117C113.574 155.679 118.051 158.148 119.891 161.353C121.47 164.128 121.762 167.547 121.47 170.783C121.286 172.822 120.842 174.892 119.753 176.563C118.434 178.603 115.996 179.983 113.681 178.986C112.746 178.587 111.994 177.775 111.657 176.763C110.89 174.509 112.424 172.592 114.218 171.825C117.085 170.599 120.489 171.933 122.62 174.325C126.638 178.817 126.331 186.913 121.976 191.053C119.201 193.691 114.448 194.411 111.964 191.467" stroke="#262929" stroke-width="0.37" stroke-miterlimit="10"/>
<path d="M38.3334 137.141C39.56 138.399 41.2314 140.929 39.284 142.416C38.4407 143.06 36.7234 142.692 36.9687 141.251C37.26 139.641 39.1767 140.239 39.8667 141.097C41.1394 142.646 41.2927 145.713 40.25 147.461C39.3914 148.902 37.214 148.749 37.03 146.847C36.8307 144.777 39.33 143.719 40.7254 144.9C41.906 145.912 42.3814 147.951 42.0134 149.469C41.7374 150.619 40.9554 151.662 39.9127 152.091C39.054 152.444 37.7967 152.306 37.5207 151.187C37.4747 150.987 37.4747 150.788 37.536 150.604C37.904 149.684 39.2534 150.175 39.8514 150.512C40.8634 151.095 41.6607 152.214 41.584 153.502C41.4614 155.342 39.56 156.661 37.9194 156.369C37.3674 156.277 37.1987 155.511 37.6434 155.158C39.2994 153.839 42.5347 155.189 42.7034 157.627C42.872 160.141 40.434 162.135 38.088 162.058C37.2294 162.027 36.9227 160.847 37.6434 160.356C38.226 159.973 39.054 159.865 39.5754 160.371C41.538 163.055 39.3607 168.161 36.5547 169.909C35.834 170.369 34.9907 169.495 35.3894 168.697C36.8614 165.646 42.8107 167.425 40.7407 173.696C40.25 174.938 39.0387 176.165 37.858 175.674C36.2634 175.015 37.2754 171.933 38.9927 172.04C42.7187 172.929 42.4427 178.081 39.882 179.891C39.054 180.473 38.3027 179.998 38.318 179.262C38.3794 177.131 41.9827 176.502 42.7494 179.906C43.1787 182.589 41.4767 186.101 38.962 186.867C37.628 187.189 35.9874 186.147 36.064 184.675C37.0914 180.933 42.458 183.157 40.7714 188.845C40.48 190.026 39.9587 191.268 38.9314 191.789C38.364 192.081 37.628 191.989 37.1067 191.636C36.4934 191.222 36.8154 190.164 37.536 190.225C39.238 190.379 40.848 192.127 40.6487 193.997C40.4647 195.684 38.8854 196.926 37.3367 196.972C36.5087 196.987 36.2787 195.761 37.0607 195.454C38.5174 194.871 40.4647 195.5 41.0167 197.11C41.5687 198.72 40.5414 200.483 39.1307 201.097C38.364 201.434 37.8274 200.207 38.5634 199.809C40.71 198.643 44.022 201.894 41.17 205.896C40.7407 206.494 39.8514 206.371 39.6367 205.651V205.605C39.4067 204.869 40.0967 204.179 40.7867 204.424C43.332 205.313 45.816 208.089 43.8074 210.695C42.734 211.845 40.4034 211.094 40.4647 209.469C40.526 207.567 43.516 207.368 44.4207 209.009C46.092 211.063 42.7954 218.362 40.572 215.479C40.2654 214.575 41.308 213.655 42.182 213.885C43.056 214.115 43.6234 215.019 43.8994 215.924C45.08 218.975 42.136 222.165 40.1427 220.294C39.606 219.788 39.6367 218.883 40.2194 218.423C42.9947 216.2 45.6014 223.437 42.366 225.339C41.5074 225.814 40.3114 225.262 39.928 224.434C39.7287 223.974 40.158 223.483 40.5874 223.698C43.93 225.308 43.608 230.567 40.4494 231.947C39.376 232.423 38.2874 231.165 38.8547 230.092C39.698 228.451 42.7954 228.589 43.5007 231.641C44.252 233.665 42.6267 237.728 40.71 238.786C38.9774 239.752 37.4747 237.038 39.0847 235.827C39.4834 235.535 39.9587 235.367 40.434 235.413C44.482 235.965 44.5434 243.861 41.0934 243.125C40.48 243.003 40.572 242.021 41.1854 242.037C42.9947 242.067 44.9114 244.321 44.1294 246.299C43.7307 247.311 42.7187 247.894 41.7527 248.078C41.0474 248.216 39.7287 248.231 39.4987 247.296C39.33 246.621 39.8667 246.039 40.48 246.069C42.4274 246.177 43.608 248.722 43.4547 250.562C43.3167 252.279 42.228 254.043 40.6947 254.441C39.5907 254.733 38.226 253.567 39.5447 251.896C40.1274 251.145 41.1547 250.685 42.044 251.053C45.6934 253.414 43.2094 257.753 39.9127 258.934C39.2687 259.164 38.7167 258.382 39.1 257.784C40.388 255.821 44.3287 257.232 43.516 261.985C43.3934 262.752 43.24 263.488 42.688 264.04C41.7527 264.975 40.296 264.531 40.112 263.135C40.0047 262.338 40.2807 261.541 40.9707 261.127C41.5994 260.759 42.3507 260.667 43.01 260.943C43.8994 261.311 44.6047 262.154 45.0187 263.059C45.2947 263.672 45.448 264.347 45.5094 265.006C45.5707 265.665 45.6167 266.401 45.4634 267.045C45.1874 268.18 44.528 269.407 43.4394 269.821C42.32 270.25 41.0167 269.575 40.848 268.257C40.756 267.475 41.0934 266.739 41.7067 266.309C43.5774 264.991 45.6474 266.999 45.9694 268.977C46.1227 269.989 45.862 270.909 45.218 271.676C44.9727 271.967 44.6507 272.228 44.298 272.335C43.9454 272.443 43.5314 272.397 43.2247 272.167C42.918 271.937 42.7647 271.492 42.872 271.109C42.9947 270.71 43.378 270.48 43.746 270.373C45.586 269.836 47.3494 271.4 47.518 273.347C47.6407 274.773 46.8587 275.969 45.678 276.567C45.494 276.659 45.2947 276.736 45.0954 276.813C43.2554 277.426 42.7954 274.497 44.4514 273.884C47.2574 273.347 47.8247 277.303 46.782 279.419C46.0767 281.489 43.6694 282.9 42.3354 281.719C41.0014 280.539 43.8074 278.346 45.264 279.297C47.6867 281.014 46.8434 286.181 44.252 287.362C43.3167 287.745 41.3234 287.853 41.124 286.795C41.0014 286.135 41.7527 285.66 42.2587 286.074C45.8467 288.941 43.6694 296.685 39.284 295.504C38.18 295.213 38.456 294.032 39.7134 293.342C40.9707 292.652 42.4427 292.974 43.194 294.032C43.7154 294.768 44.0067 295.673 44.1447 296.577C44.2827 297.482 44.4207 298.571 44.1447 299.475C43.9454 300.15 43.3627 300.656 42.688 300.564C41.262 300.365 40.8634 298.448 41.6147 297.329C42.7034 295.688 44.8654 296.976 45.678 298.264C46.4447 299.46 46.414 301.039 46.1074 302.389C45.9387 303.155 45.678 304.489 44.712 304.428C43.8074 304.367 43.516 303.263 44.068 302.573C44.666 301.821 45.7394 302.082 46.368 302.634C47.0274 303.217 47.472 304.152 47.4567 305.072C47.3954 307.188 44.574 311.972 42.2894 311.788C40.526 311.635 40.434 308.813 42.1974 308.629C43.7154 308.476 45.632 310.224 44.2214 313.935C42.32 318.305 39.2687 315.315 41.2007 313.781C41.8754 313.26 42.7954 313.199 43.516 313.659C45.5554 314.931 46.506 318.795 44.7734 320.513C43.5007 321.739 40.8174 320.329 41.5227 318.642C41.998 317.507 43.5927 317.369 44.5127 318.121C46.1227 319.608 46.5827 323.349 44.85 324.867C44.0834 325.542 42.3354 324.99 42.4427 323.932C42.596 322.521 45.1107 323.411 45.8927 324.085C46.552 324.653 47.0274 325.573 46.8894 326.477C46.8127 326.922 46.6134 327.336 46.3374 327.673C45.5707 328.624 43.654 329.437 42.8107 328.149C42.7647 328.087 42.734 328.011 42.7494 327.934C42.7647 327.827 42.872 327.781 42.964 327.75C44.3594 327.275 46.0154 327.811 46.9814 328.961C47.9474 330.111 48.2694 331.706 47.886 333.147C47.6867 333.883 47.3034 334.543 46.7667 335.049C46.322 335.463 45.632 335.999 45.034 336.091C44.206 336.214 43.7614 335.355 43.884 334.573C44.0067 333.791 44.62 333.086 45.31 332.856C46.9354 332.319 48.1467 333.837 48.622 335.34C48.6987 335.555 48.76 335.785 48.806 336.015C49.588 338.897 46.8587 341.55 45.2027 339.817C44.436 339.005 45.8467 338.56 46.414 338.698C47.38 338.913 48.4227 339.833 48.9287 340.722C49.7107 342.102 49.358 343.666 48.162 344.632C47.38 345.123 46.3527 344.877 45.6934 344.279C45.034 343.681 45.6934 342.455 46.5214 342.807C49.2354 343.896 50.232 348.281 46.9354 349.569C45.8927 349.983 44.16 349.109 43.9607 347.883C43.6387 345.951 46.046 347.055 46.6594 347.775C47.2727 348.496 47.6407 349.477 47.5947 350.459C47.5027 352.406 45.9847 353.817 44.2367 353.955" stroke="#262929" stroke-width="0.37" stroke-miterlimit="10"/>
<path d="M56.8253 137.141C58.052 138.399 59.7233 140.929 57.776 142.416C56.9327 143.06 55.2153 142.692 55.4606 141.251C55.752 139.641 57.6687 140.239 58.3587 141.097C59.6313 142.646 59.7847 145.713 58.742 147.461C57.8833 148.902 55.706 148.749 55.522 146.847C55.3226 144.777 57.822 143.719 59.2173 144.9C60.398 145.912 60.8733 147.951 60.5053 149.469C60.2293 150.619 59.4473 151.662 58.4047 152.091C57.546 152.444 56.2886 152.306 56.0126 151.187C55.9666 150.987 55.9667 150.788 56.028 150.604C56.396 149.684 57.7453 150.175 58.3433 150.512C59.3553 151.095 60.1527 152.214 60.076 153.502C59.9533 155.342 58.052 156.661 56.4113 156.369C55.8593 156.277 55.6907 155.511 56.1353 155.158C57.7913 153.839 61.0267 155.189 61.1953 157.627C61.364 160.065 58.926 162.135 56.58 162.058C55.7213 162.027 55.4147 160.847 56.1353 160.356C56.718 159.973 57.546 159.865 58.0673 160.371C60.03 163.055 57.8527 168.161 55.0467 169.909C54.326 170.369 53.4826 169.495 53.8813 168.697C55.3533 165.646 61.3027 167.425 59.2327 173.696C58.742 174.938 57.5307 176.165 56.35 175.674C54.7553 175.015 55.7673 171.933 57.4847 172.04C61.2107 172.929 60.9347 178.081 58.374 179.891C57.546 180.473 56.7946 179.998 56.81 179.262C56.8713 177.131 60.4746 176.502 61.2413 179.906C61.6706 182.589 59.9687 186.101 57.454 186.867C56.12 187.189 54.4793 186.147 54.556 184.675C55.5833 180.933 60.95 183.157 59.2633 188.845C58.972 190.026 58.4507 191.268 57.4233 191.789C56.856 192.081 56.12 191.989 55.5986 191.636C54.9853 191.222 55.3073 190.164 56.028 190.225C57.73 190.379 59.34 192.127 59.1407 193.997C58.9567 195.684 57.3773 196.926 55.8287 196.972C55.0007 196.987 54.7706 195.761 55.5526 195.454C57.0093 194.871 58.9567 195.5 59.5087 197.11C60.0607 198.689 59.0333 200.483 57.6227 201.097C56.856 201.434 56.3193 200.207 57.0553 199.809C59.202 198.643 62.514 201.894 59.662 205.896C59.2327 206.494 58.3433 206.371 58.1287 205.651V205.605C57.8987 204.869 58.5887 204.179 59.2787 204.424C61.824 205.313 64.308 208.089 62.2993 210.695C61.226 211.845 58.8953 211.094 58.9567 209.469C59.018 207.567 62.008 207.368 62.9126 209.009C64.584 211.063 61.2873 218.362 59.064 215.479C58.7573 214.575 59.8 213.655 60.674 213.885C61.548 214.115 62.1153 215.019 62.3913 215.924C63.572 218.975 60.628 222.165 58.6347 220.294C58.098 219.788 58.1287 218.883 58.7113 218.423C61.4867 216.2 64.0933 223.437 60.858 225.339C59.9993 225.814 58.8033 225.262 58.42 224.434C58.2206 223.974 58.65 223.483 59.0793 223.698C62.422 225.308 62.1 230.567 58.9413 231.947C57.868 232.423 56.7793 231.165 57.3467 230.092C58.19 228.451 61.2873 228.589 61.9927 231.641C62.744 233.665 61.1187 237.728 59.202 238.786C57.4693 239.752 55.9666 237.038 57.5766 235.827C57.9753 235.535 58.4507 235.367 58.926 235.413C62.974 235.965 63.0353 243.861 59.5853 243.125C58.972 243.003 59.064 242.021 59.6773 242.037C61.4866 242.067 63.4033 244.321 62.6213 246.299C62.2227 247.311 61.2107 247.894 60.2447 248.078C59.5393 248.216 58.2207 248.231 57.9907 247.296C57.822 246.621 58.3586 246.039 58.972 246.069C60.9193 246.177 62.1 248.722 61.9467 250.562C61.8087 252.279 60.72 254.043 59.1866 254.441C58.0826 254.733 56.718 253.567 58.0366 251.896C58.6193 251.145 59.6466 250.685 60.536 251.053C64.1853 253.414 61.7013 257.753 58.4047 258.934C57.7607 259.164 57.2087 258.382 57.592 257.784C58.88 255.821 62.8206 257.232 62.008 261.985C61.8853 262.752 61.732 263.488 61.18 264.04C60.2447 264.975 58.788 264.531 58.604 263.135C58.4967 262.338 58.7726 261.541 59.4626 261.127C60.0913 260.759 60.8427 260.667 61.502 260.943C62.3913 261.311 63.0966 262.154 63.5106 263.059C63.7866 263.672 63.94 264.347 64.0013 265.006C64.0627 265.665 64.1086 266.401 63.9553 267.045C63.6793 268.18 63.02 269.407 61.9313 269.821C60.812 270.25 59.5087 269.575 59.34 268.257C59.248 267.475 59.5853 266.739 60.1986 266.309C62.0693 264.991 64.1393 266.999 64.4613 268.977C64.6147 269.989 64.354 270.909 63.71 271.676C63.4646 271.967 63.1427 272.228 62.79 272.335C62.4373 272.443 62.0233 272.397 61.7167 272.167C61.41 271.937 61.2567 271.492 61.364 271.109C61.4867 270.71 61.87 270.48 62.238 270.373C64.078 269.836 65.8413 271.4 66.01 273.347C66.1326 274.773 65.3506 275.969 64.17 276.567C63.986 276.659 63.7867 276.736 63.5873 276.813C61.7473 277.426 61.2873 274.497 62.9433 273.884C65.7493 273.347 66.3167 277.303 65.274 279.419C64.5686 281.489 62.1613 282.9 60.8273 281.719C59.4933 280.539 62.2993 278.346 63.756 279.297C66.1787 281.014 65.3353 286.181 62.744 287.362C61.8086 287.745 59.8153 287.853 59.616 286.795C59.4933 286.135 60.2446 285.66 60.7506 286.074C64.3386 288.941 62.1613 296.685 57.776 295.504C56.672 295.213 56.948 294.032 58.2053 293.342C59.4626 292.652 60.9346 292.974 61.686 294.032C62.2073 294.768 62.4986 295.673 62.6366 296.577C62.7746 297.482 62.9126 298.571 62.6366 299.475C62.4373 300.15 61.8547 300.656 61.18 300.564C59.754 300.365 59.3553 298.448 60.1067 297.329C61.1953 295.688 63.3573 296.976 64.17 298.264C64.9366 299.46 64.906 301.039 64.5993 302.389C64.4307 303.155 64.17 304.489 63.204 304.428C62.2993 304.367 62.008 303.263 62.56 302.573C63.158 301.821 64.2313 302.082 64.86 302.634C65.5193 303.217 65.964 304.152 65.9486 305.072C65.8873 307.188 63.066 311.972 60.7813 311.788C59.018 311.635 58.926 308.813 60.6893 308.629C62.2073 308.476 64.124 310.224 62.7133 313.935C60.812 318.305 57.7607 315.315 59.6927 313.781C60.3673 313.26 61.2873 313.199 62.008 313.659C64.0473 314.931 64.998 318.795 63.2653 320.513C61.9926 321.739 59.3093 320.329 60.0146 318.642C60.49 317.507 62.0847 317.369 63.0047 318.121C64.6147 319.608 65.0747 323.349 63.342 324.867C62.5753 325.542 60.8273 324.99 60.9347 323.932C61.088 322.521 63.6027 323.411 64.3847 324.085C65.044 324.653 65.5193 325.573 65.3813 326.477C65.3046 326.922 65.1053 327.336 64.8293 327.673C64.0626 328.624 62.146 329.437 61.3026 328.149C61.2566 328.087 61.226 328.011 61.2413 327.934C61.2566 327.827 61.364 327.781 61.456 327.75C62.8513 327.275 64.5073 327.811 65.4733 328.961C66.4393 330.111 66.7613 331.706 66.378 333.147C66.1787 333.883 65.7953 334.543 65.2587 335.049C64.814 335.463 64.124 335.999 63.526 336.091C62.698 336.214 62.2533 335.355 62.376 334.573C62.4987 333.791 63.112 333.086 63.802 332.856C65.4273 332.319 66.6387 333.837 67.114 335.34C67.1907 335.555 67.252 335.785 67.298 336.015C68.08 338.897 65.3507 341.55 63.6947 339.817C62.928 339.005 64.3387 338.56 64.906 338.698C65.872 338.913 66.9147 339.833 67.4207 340.722C68.2027 342.102 67.85 343.666 66.654 344.632C65.872 345.123 64.8447 344.877 64.1853 344.279C63.526 343.681 64.1853 342.455 65.0133 342.807C67.7273 343.896 68.724 348.281 65.4273 349.569C64.3846 349.983 62.652 349.109 62.4526 347.883C62.1306 345.951 64.538 347.055 65.1513 347.775C65.7647 348.496 66.1326 349.477 66.0866 350.459C65.9946 352.406 64.4767 353.817 62.7287 353.955" stroke="#262929" stroke-width="0.37" stroke-miterlimit="10"/>
<path d="M66.8227 134.642C68.0493 135.899 69.7207 138.429 67.7733 139.917C66.93 140.561 65.2127 140.193 65.458 138.751C65.7493 137.141 67.666 137.739 68.356 138.598C69.6287 140.147 69.782 143.213 68.7393 144.961C67.8807 146.403 65.7033 146.249 65.5193 144.348C65.32 142.278 67.8193 141.22 69.2147 142.401C70.3953 143.413 70.8707 145.452 70.5027 146.97C70.2267 148.12 69.4447 149.163 68.402 149.592C67.5433 149.945 66.286 149.807 66.01 148.687C65.964 148.488 65.964 148.289 66.0253 148.105C66.3933 147.185 67.7427 147.675 68.3407 148.013C69.3527 148.595 70.15 149.715 70.0733 151.003C69.9507 152.843 68.0493 154.161 66.4087 153.87C65.8567 153.778 65.688 153.011 66.1327 152.659C67.7887 151.34 71.024 152.689 71.1927 155.127C71.3613 157.642 68.9233 159.635 66.5773 159.559C65.7187 159.528 65.412 158.347 66.1327 157.857C66.7153 157.473 67.5433 157.366 68.0647 157.872C70.0273 160.555 67.85 165.661 65.044 167.409C64.3233 167.869 63.48 166.995 63.8787 166.198C65.3507 163.147 71.3 164.925 69.23 171.197C68.7393 172.439 67.528 173.665 66.3473 173.175C64.7527 172.515 65.7647 169.433 67.482 169.541C71.208 170.43 70.932 175.582 68.3713 177.391C67.5433 177.974 66.792 177.499 66.8073 176.763C66.8687 174.631 70.472 174.003 71.2387 177.407C71.668 180.09 69.966 183.601 67.4513 184.368C66.1173 184.69 64.4767 183.647 64.5533 182.175C65.5807 178.434 70.9473 180.657 69.2607 186.346C68.9693 187.527 68.448 188.769 67.4207 189.29C66.8533 189.581 66.1173 189.489 65.596 189.137C64.9827 188.723 65.3047 187.665 66.0253 187.726C67.7273 187.879 69.3373 189.627 69.138 191.498C68.954 193.185 67.3747 194.427 65.826 194.473C64.998 194.488 64.768 193.261 65.55 192.955C67.0067 192.372 68.954 193.001 69.506 194.611C70.058 196.221 69.0307 197.984 67.62 198.597C66.8533 198.935 66.3167 197.708 67.0527 197.309C69.1993 196.144 72.5113 199.395 69.6593 203.397C69.23 203.995 68.3407 203.872 68.126 203.151V203.105C67.896 202.369 68.586 201.679 69.276 201.925C71.8213 202.814 74.3053 205.589 72.2967 208.196C71.2233 209.346 68.8927 208.595 68.954 206.969C69.0153 205.068 72.0053 204.869 72.91 206.509C74.5813 208.564 71.2847 215.863 69.0613 212.98C68.7547 212.075 69.7973 211.155 70.6713 211.385C71.5453 211.615 72.1127 212.52 72.3887 213.425C73.5693 216.476 70.6253 219.665 68.632 217.795C68.0953 217.289 68.126 216.384 68.7087 215.924C71.484 213.701 74.0907 220.938 70.8553 222.839C69.9967 223.315 68.8007 222.763 68.4173 221.935C68.218 221.475 68.6473 220.984 69.0767 221.199C72.4193 222.809 72.0973 228.068 68.9387 229.448C67.8653 229.923 66.7767 228.666 67.344 227.593C68.1873 225.952 71.2847 226.09 71.99 229.141C72.7413 231.165 71.116 235.229 69.1993 236.287C67.4667 237.253 65.964 234.539 67.574 233.327C67.9727 233.036 68.448 232.867 68.9233 232.913C72.9713 233.465 73.0327 241.362 69.5827 240.626C68.9693 240.503 69.0613 239.522 69.6747 239.537C71.484 239.568 73.4007 241.822 72.6187 243.8C72.22 244.812 71.208 245.395 70.242 245.579C69.5367 245.717 68.218 245.732 67.988 244.797C67.8193 244.122 68.356 243.539 68.9693 243.57C70.9167 243.677 72.0973 246.223 71.944 248.063C71.806 249.78 70.7173 251.543 69.184 251.942C68.08 252.233 66.7153 251.068 68.034 249.397C68.6167 248.645 69.644 248.185 70.5333 248.553C74.1827 250.915 71.6987 255.254 68.402 256.435C67.758 256.665 67.206 255.883 67.5893 255.285C68.8773 253.322 72.818 254.733 72.0053 259.486C71.8827 260.253 71.7293 260.989 71.1773 261.541C70.242 262.476 68.7853 262.031 68.6013 260.636C68.494 259.839 68.77 259.041 69.46 258.627C70.0887 258.259 70.84 258.167 71.4993 258.443C72.3887 258.811 73.094 259.655 73.508 260.559C73.784 261.173 73.9373 261.847 73.9987 262.507C74.06 263.166 74.106 263.902 73.9527 264.546C73.6767 265.681 73.0173 266.907 71.9287 267.321C70.8093 267.751 69.506 267.076 69.3373 265.757C69.2453 264.975 69.5827 264.239 70.196 263.81C72.0667 262.491 74.1367 264.5 74.4587 266.478C74.612 267.49 74.3513 268.41 73.7073 269.177C73.462 269.468 73.14 269.729 72.7873 269.836C72.4347 269.943 72.0207 269.897 71.714 269.667C71.4073 269.437 71.254 268.993 71.3613 268.609C71.484 268.211 71.8673 267.981 72.2353 267.873C74.0753 267.337 75.8387 268.901 76.0073 270.848C76.13 272.274 75.348 273.47 74.1673 274.068C73.9833 274.16 73.784 274.237 73.5847 274.313C71.7447 274.927 71.2847 271.998 72.9407 271.385C75.7467 270.848 76.314 274.804 75.2713 276.92C74.566 278.99 72.1587 280.401 70.8247 279.22C69.4907 278.039 72.2967 275.847 73.7533 276.797C76.176 278.515 75.3327 283.682 72.7413 284.863C71.806 285.246 69.8127 285.353 69.6133 284.295C69.4907 283.636 70.242 283.161 70.748 283.575C74.336 286.442 72.1587 294.185 67.7733 293.005C66.6693 292.713 66.9453 291.533 68.2027 290.843C69.46 290.153 70.932 290.475 71.6833 291.533C72.2047 292.269 72.496 293.173 72.634 294.078C72.772 294.983 72.91 296.071 72.634 296.976C72.4347 297.651 71.852 298.157 71.1773 298.065C69.7513 297.865 69.3527 295.949 70.104 294.829C71.1927 293.189 73.3547 294.477 74.1673 295.765C74.934 296.961 74.9033 298.54 74.5967 299.889C74.428 300.656 74.1673 301.99 73.2013 301.929C72.2967 301.867 72.0053 300.763 72.5573 300.073C73.1553 299.322 74.2287 299.583 74.8573 300.135C75.5167 300.717 75.9613 301.653 75.946 302.573C75.8847 304.689 73.0633 309.473 70.7787 309.289C69.0153 309.135 68.9233 306.314 70.6867 306.13C72.2047 305.977 74.1213 307.725 72.7107 311.435C70.8093 315.805 67.758 312.815 69.69 311.282C70.3647 310.761 71.2847 310.699 72.0053 311.159C74.0447 312.432 74.9953 316.296 73.2627 318.013C71.99 319.24 69.3067 317.829 70.012 316.143C70.4873 315.008 72.082 314.87 73.002 315.621C74.612 317.109 75.072 320.85 73.3393 322.368C72.5727 323.043 70.8247 322.491 70.932 321.433C71.0853 320.022 73.6 320.911 74.382 321.586C75.0413 322.153 75.5167 323.073 75.3787 323.978C75.302 324.423 75.1027 324.837 74.8267 325.174C74.06 326.125 72.1433 326.937 71.3 325.649C71.254 325.588 71.2233 325.511 71.2387 325.435C71.254 325.327 71.3613 325.281 71.4533 325.251C72.8487 324.775 74.5047 325.312 75.4707 326.462C76.406 327.566 76.7587 329.207 76.3753 330.648C76.176 331.384 75.7927 332.043 75.256 332.549C74.8113 332.963 74.1213 333.5 73.5233 333.592C72.6953 333.715 72.2507 332.856 72.3733 332.074C72.496 331.292 73.1093 330.587 73.7993 330.357C75.4247 329.82 76.636 331.338 77.1113 332.841C77.188 333.055 77.2493 333.285 77.2953 333.515C78.0773 336.398 75.348 339.051 73.692 337.318C72.9253 336.505 74.336 336.061 74.9033 336.199C75.8693 336.413 76.912 337.333 77.418 338.223C78.2 339.603 77.8473 341.167 76.6513 342.133C75.8693 342.623 74.842 342.378 74.1827 341.78C73.5233 341.182 74.1827 339.955 75.0107 340.308C77.7247 341.397 78.7213 345.782 75.4247 347.07C74.382 347.484 72.6493 346.61 72.45 345.383C72.128 343.451 74.5353 344.555 75.1487 345.276C75.762 345.997 76.13 346.978 76.084 347.959C75.992 349.907 74.474 351.317 72.726 351.455" stroke="#262929" stroke-width="0.37" stroke-miterlimit="10"/>
<path d="M75.8233 134.642C77.05 135.899 78.7213 138.429 76.774 139.917C75.9307 140.561 74.2133 140.193 74.4587 138.751C74.75 137.141 76.6667 137.739 77.3567 138.598C78.6293 140.147 78.7827 143.213 77.74 144.961C76.8813 146.403 74.704 146.249 74.52 144.348C74.3207 142.278 76.82 141.22 78.2153 142.401C79.396 143.413 79.8713 145.452 79.5033 146.97C79.2273 148.12 78.4453 149.163 77.4027 149.592C76.544 149.945 75.2867 149.807 75.0107 148.687C74.9647 148.488 74.9647 148.289 75.026 148.105C75.394 147.185 76.7433 147.675 77.3413 148.013C78.3533 148.595 79.1507 149.715 79.074 151.003C78.9513 152.843 77.05 154.161 75.4093 153.87C74.8573 153.778 74.6887 153.011 75.1333 152.659C76.7893 151.34 80.0247 152.689 80.1933 155.127C80.362 157.565 77.924 159.635 75.578 159.559C74.7193 159.528 74.4127 158.347 75.1333 157.857C75.716 157.473 76.544 157.366 77.0653 157.872C79.028 160.555 76.8507 165.661 74.0447 167.409C73.324 167.869 72.4807 166.995 72.8793 166.198C74.3513 163.147 80.3007 164.925 78.2307 171.197C77.74 172.439 76.5287 173.665 75.348 173.175C73.7533 172.515 74.7653 169.433 76.4827 169.541C80.2087 170.43 79.9327 175.582 77.372 177.391C76.544 177.974 75.7927 177.499 75.808 176.763C75.8693 174.631 79.4727 174.003 80.2393 177.407C80.6687 180.09 78.9667 183.601 76.452 184.368C75.118 184.69 73.4773 183.647 73.554 182.175C74.5813 178.434 79.948 180.657 78.2613 186.346C77.97 187.527 77.4487 188.769 76.4213 189.29C75.854 189.581 75.118 189.489 74.5967 189.137C73.9833 188.723 74.3053 187.665 75.026 187.726C76.728 187.879 78.338 189.627 78.1387 191.498C77.9547 193.185 76.3753 194.427 74.8267 194.473C73.9987 194.488 73.7687 193.261 74.5507 192.955C76.0073 192.372 77.9547 193.001 78.5067 194.611C79.0587 196.19 78.0313 197.984 76.6207 198.597C75.854 198.935 75.3173 197.708 76.0533 197.309C78.2 196.144 81.512 199.395 78.66 203.397C78.2307 203.995 77.3413 203.872 77.1267 203.151V203.105C76.8967 202.369 77.5867 201.679 78.2767 201.925C80.822 202.814 83.306 205.589 81.2973 208.196C80.224 209.346 77.8933 208.595 77.9547 206.969C78.016 205.068 81.006 204.869 81.9107 206.509C83.582 208.564 80.2853 215.863 78.062 212.98C77.7553 212.075 78.798 211.155 79.672 211.385C80.546 211.615 81.1133 212.52 81.3893 213.425C82.57 216.476 79.626 219.665 77.6327 217.795C77.096 217.289 77.1267 216.384 77.7093 215.924C80.4847 213.701 83.0913 220.938 79.856 222.839C78.9973 223.315 77.8013 222.763 77.418 221.935C77.2187 221.475 77.648 220.984 78.0773 221.199C81.42 222.809 81.098 228.068 77.9393 229.448C76.866 229.923 75.7773 228.666 76.3447 227.593C77.188 225.952 80.2853 226.09 80.9907 229.141C81.742 231.165 80.1167 235.229 78.2 236.287C76.4673 237.253 74.9647 234.539 76.5747 233.327C76.9733 233.036 77.4487 232.867 77.924 232.913C81.972 233.465 82.0333 241.362 78.5833 240.626C77.97 240.503 78.062 239.522 78.6753 239.537C80.4847 239.568 82.4013 241.822 81.6193 243.8C81.2207 244.812 80.2087 245.395 79.2427 245.579C78.5373 245.717 77.2187 245.732 76.9887 244.797C76.82 244.122 77.3567 243.539 77.97 243.57C79.9173 243.677 81.098 246.223 80.9447 248.063C80.8067 249.78 79.718 251.543 78.1847 251.942C77.0807 252.233 75.716 251.068 77.0347 249.397C77.6173 248.645 78.6447 248.185 79.534 248.553C83.1833 250.915 80.6993 255.254 77.4027 256.435C76.7587 256.665 76.2067 255.883 76.59 255.285C77.878 253.322 81.8187 254.733 81.006 259.486C80.8833 260.253 80.73 260.989 80.178 261.541C79.2427 262.476 77.786 262.031 77.602 260.636C77.4947 259.839 77.7707 259.041 78.4607 258.627C79.0893 258.259 79.8407 258.167 80.5 258.443C81.3893 258.811 82.0947 259.655 82.5087 260.559C82.7847 261.173 82.938 261.847 82.9993 262.507C83.0607 263.166 83.1067 263.902 82.9533 264.546C82.6773 265.681 82.018 266.907 80.9293 267.321C79.81 267.751 78.5067 267.076 78.338 265.757C78.246 264.975 78.5833 264.239 79.1967 263.81C81.0673 262.491 83.1373 264.5 83.4593 266.478C83.6127 267.49 83.352 268.41 82.708 269.177C82.4627 269.468 82.1407 269.729 81.788 269.836C81.4353 269.943 81.0213 269.897 80.7147 269.667C80.408 269.437 80.2547 268.993 80.362 268.609C80.4847 268.211 80.868 267.981 81.236 267.873C83.076 267.337 84.8393 268.901 85.008 270.848C85.1307 272.274 84.3487 273.47 83.168 274.068C82.984 274.16 82.7847 274.237 82.5853 274.313C80.7453 274.927 80.2853 271.998 81.9413 271.385C84.7473 270.848 85.3147 274.804 84.272 276.92C83.5667 278.99 81.1593 280.401 79.8253 279.22C78.5067 278.07 81.2973 275.847 82.754 276.797C85.1767 278.515 84.3333 283.682 81.742 284.863C80.8067 285.246 78.8133 285.353 78.614 284.295C78.4913 283.636 79.2427 283.161 79.7487 283.575C83.3367 286.442 81.1593 294.185 76.774 293.005C75.67 292.713 75.946 291.533 77.2033 290.843C78.4607 290.153 79.9327 290.475 80.684 291.533C81.2053 292.269 81.4967 293.173 81.6347 294.078C81.7727 294.983 81.9107 296.071 81.6347 296.976C81.4353 297.651 80.8527 298.157 80.178 298.065C78.752 297.865 78.3533 295.949 79.1047 294.829C80.1933 293.189 82.3553 294.477 83.168 295.765C83.9347 296.961 83.904 298.54 83.5973 299.889C83.4287 300.656 83.168 301.99 82.202 301.929C81.2973 301.867 81.006 300.763 81.558 300.073C82.156 299.322 83.2293 299.583 83.858 300.135C84.5173 300.717 84.962 301.653 84.9467 302.573C84.8853 304.689 82.064 309.473 79.7793 309.289C78.016 309.135 77.924 306.314 79.6873 306.13C81.2053 305.977 83.122 307.725 81.7113 311.435C79.81 315.805 76.7587 312.815 78.6907 311.282C79.3653 310.761 80.2853 310.699 81.006 311.159C83.0453 312.432 83.996 316.296 82.2633 318.013C80.9907 319.24 78.3073 317.829 79.0127 316.143C79.488 315.008 81.0827 314.87 82.0027 315.621C83.6127 317.109 84.0727 320.85 82.34 322.368C81.5733 323.043 79.8253 322.491 79.9327 321.433C80.086 320.022 82.6007 320.911 83.3827 321.586C84.042 322.153 84.5173 323.073 84.3793 323.978C84.3027 324.423 84.1033 324.837 83.8273 325.174C83.0607 326.125 81.144 326.937 80.3007 325.649C80.2547 325.588 80.224 325.511 80.2393 325.435C80.2547 325.327 80.362 325.281 80.454 325.251C81.8493 324.775 83.5053 325.312 84.4713 326.462C85.4373 327.612 85.7593 329.207 85.376 330.648C85.1767 331.384 84.7933 332.043 84.2567 332.549C83.812 332.963 83.122 333.5 82.524 333.592C81.696 333.715 81.2513 332.856 81.374 332.074C81.4967 331.292 82.11 330.587 82.8 330.357C84.4253 329.82 85.6367 331.338 86.112 332.841C86.1887 333.055 86.25 333.285 86.296 333.515C87.078 336.398 84.3487 339.051 82.6927 337.318C81.926 336.505 83.3367 336.061 83.904 336.199C84.87 336.413 85.9127 337.333 86.4187 338.223C87.2007 339.603 86.848 341.167 85.652 342.133C84.87 342.623 83.8427 342.378 83.1833 341.78C82.524 341.182 83.1833 339.955 84.0113 340.308C86.7253 341.397 87.722 345.782 84.4253 347.07C83.3827 347.484 81.65 346.61 81.4507 345.383C81.1287 343.451 83.536 344.555 84.1493 345.276C84.7627 345.997 85.1307 346.978 85.0847 347.959C84.9927 349.907 83.4747 351.317 81.7267 351.455" stroke="#262929" stroke-width="0.37" stroke-miterlimit="10"/>
<path d="M85.3148 134.642C86.5414 135.899 88.2127 138.429 86.2654 139.917C85.4221 140.561 83.7048 140.193 83.9501 138.751C84.2414 137.141 86.1581 137.739 86.8481 138.598C88.1208 140.147 88.2741 143.213 87.2314 144.961C86.3728 146.403 84.1954 146.249 84.0114 144.348C83.8121 142.278 86.3114 141.22 87.7068 142.401C88.8874 143.413 89.3628 145.452 88.9948 146.97C88.7188 148.12 87.9367 149.163 86.8941 149.592C86.0354 149.945 84.7781 149.807 84.5021 148.687C84.4561 148.488 84.4561 148.289 84.5174 148.105C84.8854 147.185 86.2348 147.675 86.8328 148.013C87.8448 148.595 88.6421 149.715 88.5654 151.003C88.4427 152.843 86.5414 154.161 84.9008 153.87C84.3488 153.778 84.1801 153.011 84.6248 152.659C86.2808 151.34 89.5161 152.689 89.6848 155.127C89.8534 157.642 87.4154 159.635 85.0694 159.559C84.2108 159.528 83.9041 158.347 84.6248 157.857C85.2074 157.473 86.0354 157.366 86.5568 157.872C88.5194 160.555 86.3421 165.661 83.5361 167.409C82.8154 167.869 81.9721 166.995 82.3708 166.198C83.8428 163.147 89.7921 164.925 87.7221 171.197C87.2314 172.439 86.0201 173.665 84.8394 173.175C83.2448 172.515 84.2568 169.433 85.9741 169.541C89.7001 170.43 89.4241 175.582 86.8634 177.391C86.0354 177.974 85.2841 177.499 85.2994 176.763C85.3608 174.631 88.9641 174.003 89.7308 177.407C90.1601 180.09 88.4581 183.601 85.9434 184.368C84.6094 184.69 82.9688 183.647 83.0454 182.175C84.0728 178.434 89.4394 180.657 87.7528 186.346C87.4614 187.527 86.9401 188.769 85.9128 189.29C85.3454 189.581 84.6094 189.489 84.0881 189.137C83.4748 188.723 83.7968 187.665 84.5174 187.726C86.2194 187.879 87.8294 189.627 87.6301 191.498C87.4461 193.185 85.8668 194.427 84.3181 194.473C83.4901 194.488 83.2601 193.261 84.0421 192.955C85.4988 192.372 87.4461 193.001 87.9981 194.611C88.5501 196.221 87.5228 197.984 86.1121 198.597C85.3454 198.935 84.8088 197.708 85.5448 197.309C87.6914 196.144 91.0034 199.395 88.1514 203.397C87.7221 203.995 86.8328 203.872 86.6181 203.151V203.105C86.3881 202.369 87.0781 201.679 87.7681 201.925C90.3134 202.814 92.7974 205.589 90.7888 208.196C89.7154 209.346 87.3848 208.595 87.4461 206.969C87.5074 205.068 90.4974 204.869 91.4021 206.509C93.0734 208.564 89.7768 215.863 87.5534 212.98C87.2468 212.075 88.2894 211.155 89.1634 211.385C90.0374 211.615 90.6048 212.52 90.8808 213.425C92.0614 216.476 89.1174 219.665 87.1241 217.795C86.5874 217.289 86.6181 216.384 87.2008 215.924C89.9761 213.701 92.5828 220.938 89.3474 222.839C88.4888 223.315 87.2928 222.763 86.9094 221.935C86.7101 221.475 87.1394 220.984 87.5688 221.199C90.9114 222.809 90.5894 228.068 87.4308 229.448C86.3574 229.923 85.2688 228.666 85.8361 227.593C86.6794 225.952 89.7767 226.09 90.4821 229.141C91.2334 231.165 89.6081 235.229 87.6914 236.287C85.9588 237.253 84.4561 234.539 86.0661 233.327C86.4648 233.036 86.9401 232.867 87.4154 232.913C91.4634 233.465 91.5248 241.362 88.0748 240.626C87.4614 240.503 87.5534 239.522 88.1668 239.537C89.9761 239.568 91.8927 241.822 91.1107 243.8C90.7121 244.812 89.7001 245.395 88.7341 245.579C88.0288 245.717 86.7101 245.732 86.4801 244.797C86.3114 244.122 86.8481 243.539 87.4614 243.57C89.4088 243.677 90.5894 246.223 90.4361 248.063C90.2981 249.78 89.2094 251.543 87.6761 251.942C86.5721 252.233 85.2074 251.068 86.5261 249.397C87.1088 248.645 88.1361 248.185 89.0254 248.553C92.6748 250.915 90.1907 255.254 86.8941 256.435C86.2501 256.665 85.6981 255.883 86.0814 255.285C87.3694 253.322 91.3101 254.733 90.4974 259.486C90.3748 260.253 90.2214 260.989 89.6694 261.541C88.7341 262.476 87.2774 262.031 87.0934 260.636C86.9861 259.839 87.2621 259.041 87.9521 258.627C88.5808 258.259 89.3321 258.167 89.9914 258.443C90.8808 258.811 91.5861 259.655 92.0001 260.559C92.2761 261.173 92.4294 261.847 92.4908 262.507C92.5521 263.166 92.5981 263.902 92.4448 264.546C92.1688 265.681 91.5094 266.907 90.4208 267.321C89.3014 267.751 87.9981 267.076 87.8294 265.757C87.7374 264.975 88.0748 264.239 88.6881 263.81C90.5588 262.491 92.6288 264.5 92.9508 266.478C93.1041 267.49 92.8434 268.41 92.1994 269.177C91.9541 269.468 91.6321 269.729 91.2794 269.836C90.9268 269.943 90.5128 269.897 90.2061 269.667C89.8994 269.437 89.7461 268.993 89.8534 268.609C89.9761 268.211 90.3594 267.981 90.7274 267.873C92.5674 267.337 94.3308 268.901 94.4994 270.848C94.6221 272.274 93.8401 273.47 92.6594 274.068C92.4754 274.16 92.2761 274.237 92.0768 274.313C90.2368 274.927 89.7768 271.998 91.4328 271.385C94.2388 270.848 94.8061 274.804 93.7634 276.92C93.0581 278.99 90.6508 280.401 89.3168 279.22C87.9981 278.07 90.7888 275.847 92.2454 276.797C94.6681 278.515 93.8248 283.682 91.2334 284.863C90.2981 285.246 88.3048 285.353 88.1054 284.295C87.9828 283.636 88.7341 283.161 89.2401 283.575C92.8281 286.442 90.6507 294.185 86.2654 293.005C85.1614 292.713 85.4374 291.533 86.6948 290.843C87.9521 290.153 89.4241 290.475 90.1754 291.533C90.6968 292.269 90.9881 293.173 91.1261 294.078C91.2641 294.983 91.4021 296.071 91.1261 296.976C90.9268 297.651 90.3441 298.157 89.6694 298.065C88.2434 297.865 87.8448 295.949 88.5961 294.829C89.6848 293.189 91.8468 294.477 92.6594 295.765C93.4261 296.961 93.3954 298.54 93.0888 299.889C92.9201 300.656 92.6594 301.99 91.6934 301.929C90.7888 301.867 90.4974 300.763 91.0494 300.073C91.6474 299.322 92.7208 299.583 93.3494 300.135C94.0088 300.717 94.4534 301.653 94.4381 302.573C94.3768 304.689 91.5554 309.473 89.2708 309.289C87.5074 309.135 87.4154 306.314 89.1788 306.13C90.6968 305.977 92.6134 307.725 91.2028 311.435C89.3014 315.805 86.2501 312.815 88.1821 311.282C88.8567 310.761 89.7768 310.699 90.4974 311.159C92.5368 312.432 93.4874 316.296 91.7548 318.013C90.4821 319.24 87.7988 317.829 88.5041 316.143C88.9794 315.008 90.5741 314.87 91.4941 315.621C93.1041 317.109 93.5641 320.85 91.8314 322.368C91.0648 323.043 89.3168 322.491 89.4241 321.433C89.5774 320.022 92.0921 320.911 92.8741 321.586C93.5334 322.153 94.0088 323.073 93.8708 323.978C93.7941 324.423 93.5948 324.837 93.3188 325.174C92.5521 326.125 90.6354 326.937 89.7921 325.649C89.7461 325.588 89.7154 325.511 89.7308 325.435C89.7461 325.327 89.8534 325.281 89.9454 325.251C91.3408 324.775 92.9968 325.312 93.9628 326.462C94.8981 327.566 95.2508 329.207 94.8674 330.648C94.6681 331.384 94.2848 332.043 93.7481 332.549C93.3034 332.963 92.6134 333.5 92.0154 333.592C91.1874 333.715 90.7427 332.856 90.8654 332.074C90.9881 331.292 91.6014 330.587 92.2914 330.357C93.9167 329.82 95.1281 331.338 95.6034 332.841C95.6801 333.055 95.7414 333.285 95.7874 333.515C96.5694 336.398 93.8401 339.051 92.1841 337.318C91.4174 336.505 92.8281 336.061 93.3954 336.199C94.3614 336.413 95.4041 337.333 95.9101 338.223C96.6921 339.603 96.3394 341.167 95.1434 342.133C94.3614 342.623 93.3341 342.378 92.6748 341.78C92.0154 341.182 92.6748 339.955 93.5028 340.308C96.2168 341.397 97.2134 345.782 93.9168 347.07C92.8741 347.484 91.1414 346.61 90.9421 345.383C90.6201 343.451 93.0274 344.555 93.6408 345.276C94.2541 345.997 94.6221 346.978 94.5761 347.959C94.4841 349.907 92.9661 351.317 91.2181 351.455" stroke="#262929" stroke-width="0.37" stroke-miterlimit="10"/>
<path d="M95.312 133.645C96.5387 134.903 98.21 137.433 96.2627 138.92C95.4193 139.564 93.702 139.196 93.9473 137.755C94.2387 136.145 96.1553 136.743 96.8453 137.601C98.118 139.15 98.2713 142.217 97.2287 143.965C96.37 145.406 94.1927 145.253 94.0087 143.351C93.8093 141.281 96.3087 140.223 97.704 141.404C98.8847 142.416 99.36 144.455 98.992 145.973C98.716 147.123 97.934 148.166 96.8913 148.595C96.0327 148.948 94.7753 148.81 94.4993 147.691C94.4533 147.491 94.4533 147.292 94.5147 147.108C94.8827 146.188 96.232 146.679 96.83 147.016C97.842 147.599 98.6393 148.718 98.5627 150.006C98.44 151.846 96.5387 153.165 94.898 152.873C94.346 152.781 94.1773 152.015 94.622 151.662C96.278 150.343 99.5133 151.693 99.682 154.131C99.8507 156.569 97.4127 158.639 95.0667 158.562C94.208 158.531 93.9013 157.351 94.622 156.86C95.2047 156.477 96.0327 156.369 96.554 156.875C98.5167 159.559 96.3393 164.665 93.5333 166.413C92.8127 166.873 91.9693 165.999 92.368 165.201C93.84 162.15 99.7893 163.929 97.7193 170.2C97.2287 171.442 96.0173 172.669 94.8367 172.178C93.242 171.519 94.254 168.437 95.9713 168.544C99.6973 169.433 99.4213 174.585 96.8607 176.395C96.0327 176.977 95.2813 176.502 95.2967 175.766C95.358 173.635 98.9613 173.006 99.728 176.41C100.157 179.093 98.4553 182.605 95.9407 183.371C94.6067 183.693 92.966 182.651 93.0427 181.179C94.07 177.437 99.4367 179.661 97.75 185.349C97.4587 186.53 96.9373 187.772 95.91 188.293C95.3427 188.585 94.6067 188.493 94.0853 188.14C93.472 187.726 93.794 186.668 94.5147 186.729C96.2167 186.883 97.8267 188.631 97.6273 190.501C97.4433 192.188 95.864 193.43 94.3153 193.476C93.4873 193.491 93.2573 192.265 94.0393 191.958C95.496 191.375 97.4433 192.004 97.9953 193.614C98.5473 195.224 97.52 196.987 96.1093 197.601C95.3427 197.938 94.806 196.711 95.542 196.313C97.6887 195.147 101.001 198.398 98.1487 202.4C97.7193 202.998 96.83 202.875 96.6153 202.155V202.109C96.3853 201.373 97.0753 200.683 97.7653 200.928C100.311 201.817 102.795 204.593 100.786 207.199C99.7127 208.349 97.382 207.598 97.4433 205.973C97.5047 204.071 100.495 203.872 101.399 205.513C103.071 207.567 99.774 214.866 97.5507 211.983C97.244 211.079 98.2867 210.159 99.1607 210.389C100.035 210.619 100.602 211.523 100.878 212.428C102.059 215.479 99.1147 218.669 97.1213 216.798C96.5847 216.292 96.6153 215.387 97.198 214.927C99.9733 212.704 102.58 219.941 99.3447 221.843C98.486 222.318 97.29 221.766 96.9067 220.938C96.7073 220.478 97.1367 219.987 97.566 220.202C100.909 221.812 100.587 227.071 97.428 228.451C96.3547 228.927 95.266 227.669 95.8333 226.596C96.6767 224.955 99.774 225.093 100.479 228.145C101.231 230.169 99.6053 234.232 97.6887 235.29C95.956 236.256 94.4533 233.542 96.0633 232.331C96.462 232.039 96.9373 231.871 97.4127 231.917C101.461 232.469 101.522 240.365 98.072 239.629C97.4587 239.507 97.5507 238.525 98.164 238.541C99.9733 238.571 101.89 240.825 101.108 242.803C100.709 243.815 99.6973 244.398 98.7313 244.582C98.026 244.72 96.7073 244.735 96.4773 243.8C96.3087 243.125 96.8453 242.543 97.4587 242.573C99.406 242.681 100.587 245.226 100.433 247.066C100.295 248.783 99.2067 250.547 97.6733 250.945C96.5693 251.237 95.2047 250.071 96.5233 248.4C97.106 247.649 98.1333 247.189 99.0227 247.557C102.672 249.918 100.188 254.257 96.8913 255.438C96.2473 255.668 95.6953 254.886 96.0787 254.288C97.3667 252.325 101.307 253.736 100.495 258.489C100.372 259.256 100.219 259.992 99.6667 260.544C98.7313 261.479 97.2747 261.035 97.0907 259.639C96.9833 258.842 97.2593 258.045 97.9493 257.631C98.578 257.263 99.3293 257.171 99.9887 257.447C100.878 257.815 101.583 258.658 101.997 259.563C102.273 260.176 102.427 260.851 102.488 261.51C102.549 262.169 102.595 262.905 102.442 263.549C102.166 264.684 101.507 265.911 100.418 266.325C99.2987 266.754 97.9953 266.079 97.8267 264.761C97.7347 263.979 98.072 263.243 98.6853 262.813C100.556 261.495 102.626 263.503 102.948 265.481C103.101 266.493 102.841 267.413 102.197 268.18C101.951 268.471 101.629 268.732 101.277 268.839C100.924 268.947 100.51 268.901 100.203 268.671C99.8967 268.441 99.7433 267.996 99.8507 267.613C99.9733 267.214 100.357 266.984 100.725 266.877C102.565 266.34 104.328 267.904 104.497 269.851C104.619 271.277 103.837 272.473 102.657 273.071C102.473 273.163 102.273 273.24 102.074 273.317C100.234 273.93 99.774 271.001 101.43 270.388C104.236 269.851 104.803 273.807 103.761 275.923C103.055 277.993 100.648 279.404 99.314 278.223C97.98 277.043 100.786 274.85 102.243 275.801C104.665 277.518 103.822 282.685 101.231 283.866C100.295 284.249 98.302 284.357 98.1027 283.299C97.98 282.639 98.7313 282.164 99.2373 282.578C102.825 285.445 100.648 293.189 96.2627 292.008C95.1587 291.717 95.4347 290.536 96.692 289.846C97.9493 289.156 99.4213 289.478 100.173 290.536C100.694 291.272 100.985 292.177 101.123 293.081C101.261 293.986 101.399 295.075 101.123 295.979C100.924 296.654 100.341 297.16 99.6667 297.068C98.2407 296.869 97.842 294.952 98.5933 293.833C99.682 292.192 101.844 293.48 102.657 294.768C103.423 295.964 103.393 297.543 103.086 298.893C102.917 299.659 102.657 300.993 101.691 300.932C100.786 300.871 100.495 299.767 101.047 299.077C101.645 298.325 102.718 298.586 103.347 299.138C104.006 299.721 104.451 300.656 104.435 301.576C104.374 303.692 101.553 308.476 99.268 308.292C97.5047 308.139 97.4127 305.317 99.176 305.133C100.694 304.98 102.611 306.728 101.2 310.439C99.2987 314.809 96.2473 311.819 98.1793 310.285C98.854 309.764 99.774 309.703 100.495 310.163C102.534 311.435 103.485 315.299 101.752 317.017C100.479 318.243 97.796 316.833 98.5013 315.146C98.9767 314.011 100.571 313.873 101.491 314.625C103.101 316.112 103.561 319.853 101.829 321.371C101.062 322.046 99.314 321.494 99.4213 320.436C99.5747 319.025 102.089 319.915 102.871 320.589C103.531 321.157 104.006 322.077 103.868 322.981C103.791 323.426 103.592 323.84 103.316 324.177C102.549 325.128 100.633 325.941 99.7893 324.653C99.7433 324.591 99.7127 324.515 99.728 324.438C99.7433 324.331 99.8507 324.285 99.9427 324.254C101.338 323.779 102.994 324.315 103.96 325.465C104.926 326.615 105.248 328.21 104.865 329.651C104.665 330.387 104.282 331.047 103.745 331.553C103.301 331.967 102.611 332.503 102.013 332.595C101.185 332.718 100.74 331.859 100.863 331.077C100.985 330.295 101.599 329.59 102.289 329.36C103.914 328.823 105.125 330.341 105.601 331.844C105.677 332.059 105.739 332.289 105.785 332.519C106.567 335.401 103.837 338.054 102.181 336.321C101.415 335.509 102.825 335.064 103.393 335.202C104.359 335.417 105.401 336.337 105.907 337.226C106.689 338.606 106.337 340.17 105.141 341.136C104.359 341.627 103.331 341.381 102.672 340.783C102.013 340.185 102.672 338.959 103.5 339.311C106.214 340.4 107.211 344.785 103.914 346.073C102.871 346.487 101.139 345.613 100.939 344.387C100.617 342.455 103.025 343.559 103.638 344.279C104.251 345 104.619 345.981 104.573 346.963C104.481 348.91 102.963 350.321 101.215 350.459" stroke="#262929" stroke-width="0.37" stroke-miterlimit="10"/>
<path d="M113.804 133.645C115.031 134.903 116.702 137.433 114.755 138.92C113.911 139.564 112.194 139.196 112.439 137.755C112.731 136.145 114.647 136.743 115.337 137.601C116.61 139.15 116.763 142.217 115.721 143.965C114.862 145.406 112.685 145.253 112.501 143.351C112.301 141.281 114.801 140.223 116.196 141.404C117.377 142.416 117.852 144.455 117.484 145.973C117.208 147.123 116.426 148.166 115.383 148.595C114.525 148.948 113.267 148.81 112.991 147.691C112.945 147.491 112.945 147.292 113.007 147.108C113.375 146.188 114.724 146.679 115.322 147.016C116.334 147.599 117.131 148.718 117.055 150.006C116.932 151.846 115.031 153.165 113.39 152.873C112.838 152.781 112.669 152.015 113.114 151.662C114.77 150.343 118.005 151.693 118.174 154.131C118.343 156.645 115.905 158.639 113.559 158.562C112.7 158.531 112.393 157.351 113.114 156.86C113.697 156.477 114.525 156.369 115.046 156.875C117.009 159.559 114.831 164.665 112.025 166.413C111.305 166.873 110.461 165.999 110.86 165.201C112.332 162.15 118.281 163.929 116.211 170.2C115.721 171.442 114.509 172.669 113.329 172.178C111.734 171.519 112.746 168.437 114.463 168.544C118.189 169.433 117.913 174.585 115.353 176.395C114.525 176.977 113.773 176.502 113.789 175.766C113.85 173.635 117.453 173.006 118.22 176.41C118.649 179.093 116.947 182.605 114.433 183.371C113.099 183.693 111.458 182.651 111.535 181.179C112.562 177.437 117.929 179.661 116.242 185.349C115.951 186.53 115.429 187.772 114.402 188.293C113.835 188.585 113.099 188.493 112.577 188.14C111.964 187.726 112.286 186.668 113.007 186.729C114.709 186.883 116.319 188.631 116.119 190.501C115.935 192.188 114.356 193.43 112.807 193.476C111.979 193.491 111.749 192.265 112.531 191.958C113.988 191.375 115.935 192.004 116.487 193.614C117.039 195.193 116.012 196.987 114.601 197.601C113.835 197.938 113.298 196.711 114.034 196.313C116.181 195.147 119.493 198.398 116.641 202.4C116.211 202.998 115.322 202.875 115.107 202.155V202.109C114.877 201.373 115.567 200.683 116.257 200.928C118.803 201.817 121.287 204.593 119.278 207.199C118.205 208.349 115.874 207.598 115.935 205.973C115.997 204.071 118.987 203.872 119.891 205.513C121.563 207.567 118.266 214.866 116.043 211.983C115.736 211.079 116.779 210.159 117.653 210.389C118.527 210.619 119.094 211.523 119.37 212.428C120.551 215.479 117.607 218.669 115.613 216.798C115.077 216.292 115.107 215.387 115.69 214.927C118.465 212.704 121.072 219.941 117.837 221.843C116.978 222.318 115.782 221.766 115.399 220.938C115.199 220.478 115.629 219.987 116.058 220.202C119.401 221.812 119.079 227.071 115.92 228.451C114.847 228.927 113.758 227.669 114.325 226.596C115.169 224.955 118.266 225.093 118.971 228.145C119.723 230.169 118.097 234.232 116.181 235.29C114.448 236.256 112.945 233.542 114.555 232.331C114.954 232.039 115.429 231.871 115.905 231.917C119.953 232.469 120.014 240.365 116.564 239.629C115.951 239.507 116.043 238.525 116.656 238.541C118.465 238.571 120.382 240.825 119.6 242.803C119.201 243.815 118.189 244.398 117.223 244.582C116.518 244.72 115.199 244.735 114.969 243.8C114.801 243.125 115.337 242.543 115.951 242.573C117.898 242.681 119.079 245.226 118.925 247.066C118.787 248.783 117.699 250.547 116.165 250.945C115.061 251.237 113.697 250.071 115.015 248.4C115.598 247.649 116.625 247.189 117.515 247.557C121.164 249.918 118.68 254.257 115.383 255.438C114.739 255.668 114.187 254.886 114.571 254.288C115.859 252.325 119.799 253.736 118.987 258.489C118.864 259.256 118.711 259.992 118.159 260.544C117.223 261.479 115.767 261.035 115.583 259.639C115.475 258.842 115.751 258.045 116.441 257.631C117.07 257.263 117.821 257.171 118.481 257.447C119.37 257.815 120.075 258.658 120.489 259.563C120.765 260.176 120.919 260.851 120.98 261.51C121.041 262.169 121.087 262.905 120.934 263.549C120.658 264.684 119.999 265.911 118.91 266.325C117.791 266.754 116.487 266.079 116.319 264.761C116.227 263.979 116.564 263.243 117.177 262.813C119.048 261.495 121.118 263.503 121.44 265.481C121.593 266.493 121.333 267.413 120.689 268.18C120.443 268.471 120.121 268.732 119.769 268.839C119.416 268.947 119.002 268.901 118.695 268.671C118.389 268.441 118.235 267.996 118.343 267.613C118.465 267.214 118.849 266.984 119.217 266.877C121.057 266.34 122.82 267.904 122.989 269.851C123.111 271.277 122.329 272.473 121.149 273.071C120.965 273.163 120.765 273.24 120.566 273.317C118.726 273.93 118.266 271.001 119.922 270.388C122.728 269.851 123.295 273.807 122.253 275.923C121.547 277.993 119.14 279.404 117.806 278.223C116.472 277.043 119.278 274.85 120.735 275.801C123.157 277.518 122.314 282.685 119.723 283.866C118.787 284.249 116.794 284.357 116.595 283.299C116.472 282.639 117.223 282.164 117.729 282.578C121.317 285.445 119.14 293.189 114.755 292.008C113.651 291.717 113.927 290.536 115.184 289.846C116.441 289.156 117.913 289.478 118.665 290.536C119.186 291.272 119.477 292.177 119.615 293.081C119.753 293.986 119.891 295.075 119.615 295.979C119.416 296.654 118.833 297.16 118.159 297.068C116.733 296.869 116.334 294.952 117.085 293.833C118.174 292.192 120.336 293.48 121.149 294.768C121.915 295.964 121.885 297.543 121.578 298.893C121.409 299.659 121.149 300.993 120.183 300.932C119.278 300.871 118.987 299.767 119.539 299.077C120.137 298.325 121.21 298.586 121.839 299.138C122.498 299.721 122.943 300.656 122.927 301.576C122.866 303.692 120.045 308.476 117.76 308.292C115.997 308.139 115.905 305.317 117.668 305.133C119.186 304.98 121.103 306.728 119.692 310.439C117.791 314.809 114.739 311.819 116.671 310.285C117.346 309.764 118.266 309.703 118.987 310.163C121.026 311.435 121.977 315.299 120.244 317.017C118.971 318.243 116.288 316.833 116.993 315.146C117.469 314.011 119.063 313.873 119.983 314.625C121.593 316.112 122.053 319.853 120.321 321.371C119.554 322.046 117.806 321.494 117.913 320.436C118.067 319.025 120.581 319.915 121.363 320.589C122.023 321.157 122.498 322.077 122.36 322.981C122.283 323.426 122.084 323.84 121.808 324.177C121.041 325.128 119.125 325.941 118.281 324.653C118.235 324.591 118.205 324.515 118.22 324.438C118.235 324.331 118.343 324.285 118.435 324.254C119.83 323.779 121.486 324.315 122.452 325.465C123.387 326.569 123.74 328.21 123.357 329.651C123.157 330.387 122.774 331.047 122.237 331.553C121.793 331.967 121.103 332.503 120.505 332.595C119.677 332.718 119.232 331.859 119.355 331.077C119.477 330.295 120.091 329.59 120.781 329.36C122.406 328.823 123.617 330.341 124.093 331.844C124.169 332.059 124.231 332.289 124.277 332.519C125.059 335.401 122.329 338.054 120.673 336.321C119.907 335.509 121.317 335.064 121.885 335.202C122.851 335.417 123.893 336.337 124.399 337.226C125.181 338.606 124.829 340.17 123.633 341.136C122.851 341.627 121.823 341.381 121.164 340.783C120.505 340.185 121.164 338.959 121.992 339.311C124.706 340.4 125.703 344.785 122.406 346.073C121.363 346.487 119.631 345.613 119.431 344.387C119.109 342.455 121.517 343.559 122.13 344.279C122.743 345 123.111 345.981 123.065 346.963C122.973 348.91 121.455 350.321 119.707 350.459" stroke="#262929" stroke-width="0.37" stroke-miterlimit="10"/>
<path d="M122.299 133.645C123.525 134.903 125.197 137.433 123.249 138.92C122.406 139.564 120.689 139.196 120.934 137.755C121.225 136.145 123.142 136.743 123.832 137.601C125.105 139.15 125.258 142.217 124.215 143.965C123.357 145.406 121.179 145.253 120.995 143.351C120.796 141.281 123.295 140.223 124.691 141.404C125.871 142.416 126.347 144.455 125.979 145.973C125.703 147.123 124.921 148.166 123.878 148.595C123.019 148.948 121.762 148.81 121.486 147.691C121.44 147.491 121.44 147.292 121.501 147.108C121.869 146.188 123.219 146.679 123.817 147.016C124.829 147.599 125.626 148.718 125.549 150.006C125.427 151.846 123.525 153.165 121.885 152.873C121.333 152.781 121.164 152.015 121.609 151.662C123.265 150.343 126.5 151.693 126.669 154.131C126.837 156.569 124.399 158.639 122.053 158.562C121.195 158.531 120.888 157.351 121.609 156.86C122.191 156.477 123.019 156.369 123.541 156.875C125.503 159.559 123.326 164.665 120.52 166.413C119.799 166.873 118.956 165.999 119.355 165.201C120.827 162.15 126.776 163.929 124.706 170.2C124.215 171.442 123.004 172.669 121.823 172.178C120.229 171.519 121.241 168.437 122.958 168.544C126.684 169.433 126.408 174.585 123.847 176.395C123.019 176.977 122.268 176.502 122.283 175.766C122.345 173.635 125.948 173.006 126.715 176.41C127.144 179.093 125.442 182.605 122.927 183.371C121.593 183.693 119.953 182.651 120.029 181.179C121.057 177.437 126.423 179.661 124.737 185.349C124.445 186.53 123.924 187.772 122.897 188.293C122.329 188.585 121.593 188.493 121.072 188.14C120.459 187.726 120.781 186.668 121.501 186.729C123.203 186.883 124.813 188.631 124.614 190.501C124.43 192.188 122.851 193.43 121.302 193.476C120.474 193.491 120.244 192.265 121.026 191.958C122.483 191.375 124.43 192.004 124.982 193.614C125.534 195.224 124.507 196.987 123.096 197.601C122.329 197.938 121.793 196.711 122.529 196.313C124.675 195.147 127.987 198.398 125.135 202.4C124.706 202.998 123.817 202.875 123.602 202.155V202.109C123.372 201.373 124.062 200.683 124.752 200.928C127.297 201.817 129.781 204.593 127.773 207.199C126.699 208.349 124.369 207.598 124.43 205.973C124.491 204.071 127.481 203.872 128.386 205.513C130.057 207.567 126.761 214.866 124.537 211.983C124.231 211.079 125.273 210.159 126.147 210.389C127.021 210.619 127.589 211.523 127.865 212.428C129.045 215.479 126.101 218.669 124.108 216.798C123.571 216.292 123.602 215.387 124.185 214.927C126.96 212.704 129.567 219.941 126.331 221.843C125.473 222.318 124.277 221.766 123.893 220.938C123.694 220.478 124.123 219.987 124.553 220.202C127.895 221.812 127.573 227.071 124.415 228.451C123.341 228.927 122.253 227.669 122.82 226.596C123.663 224.955 126.761 225.093 127.466 228.145C128.217 230.169 126.592 234.232 124.675 235.29C122.943 236.256 121.44 233.542 123.05 232.331C123.449 232.039 123.924 231.871 124.399 231.917C128.447 232.469 128.509 240.365 125.059 239.629C124.445 239.507 124.537 238.525 125.151 238.541C126.96 238.571 128.877 240.825 128.095 242.803C127.696 243.815 126.684 244.398 125.718 244.582C125.013 244.72 123.694 244.735 123.464 243.8C123.295 243.125 123.832 242.543 124.445 242.573C126.393 242.681 127.573 245.226 127.42 247.066C127.282 248.783 126.193 250.547 124.66 250.945C123.556 251.237 122.191 250.071 123.51 248.4C124.093 247.649 125.12 247.189 126.009 247.557C129.659 249.918 127.175 254.257 123.878 255.438C123.234 255.668 122.682 254.886 123.065 254.288C124.353 252.325 128.294 253.736 127.481 258.489C127.359 259.256 127.205 259.992 126.653 260.544C125.718 261.479 124.261 261.035 124.077 259.639C123.97 258.842 124.246 258.045 124.936 257.631C125.565 257.263 126.316 257.171 126.975 257.447C127.865 257.815 128.57 258.658 128.984 259.563C129.26 260.176 129.413 260.851 129.475 261.51C129.536 262.169 129.582 262.905 129.429 263.549C129.153 264.684 128.493 265.911 127.405 266.325C126.285 266.754 124.982 266.079 124.813 264.761C124.721 263.979 125.059 263.243 125.672 262.813C127.543 261.495 129.613 263.503 129.935 265.481C130.088 266.493 129.827 267.413 129.183 268.18C128.938 268.471 128.616 268.732 128.263 268.839C127.911 268.947 127.497 268.901 127.19 268.671C126.883 268.441 126.73 267.996 126.837 267.613C126.96 267.214 127.343 266.984 127.711 266.877C129.551 266.34 131.315 267.904 131.483 269.851C131.606 271.277 130.824 272.473 129.643 273.071C129.459 273.163 129.26 273.24 129.061 273.317C127.221 273.93 126.761 271.001 128.417 270.388C131.223 269.851 131.79 273.807 130.747 275.923C130.042 277.993 127.635 279.404 126.301 278.223C124.967 277.043 127.773 274.85 129.229 275.801C131.652 277.518 130.809 282.685 128.217 283.866C127.282 284.249 125.289 284.357 125.089 283.299C124.967 282.639 125.718 282.164 126.224 282.578C129.812 285.445 127.635 293.189 123.249 292.008C122.145 291.717 122.421 290.536 123.679 289.846C124.936 289.156 126.408 289.478 127.159 290.536C127.681 291.272 127.972 292.177 128.11 293.081C128.248 293.986 128.386 295.075 128.11 295.979C127.911 296.654 127.328 297.16 126.653 297.068C125.227 296.869 124.829 294.952 125.58 293.833C126.669 292.192 128.831 293.48 129.643 294.768C130.41 295.964 130.379 297.543 130.073 298.893C129.904 299.659 129.643 300.993 128.677 300.932C127.773 300.871 127.481 299.767 128.033 299.077C128.631 298.325 129.705 298.586 130.333 299.138C130.993 299.721 131.437 300.656 131.422 301.576C131.361 303.692 128.539 308.476 126.255 308.292C124.491 308.139 124.399 305.317 126.163 305.133C127.681 304.98 129.597 306.728 128.187 310.439C126.285 314.809 123.234 311.819 125.166 310.285C125.841 309.764 126.761 309.703 127.481 310.163C129.521 311.435 130.471 315.299 128.739 317.017C127.466 318.243 124.783 316.833 125.488 315.146C125.963 314.011 127.558 313.873 128.478 314.625C130.088 316.112 130.548 319.853 128.815 321.371C128.049 322.046 126.301 321.494 126.408 320.436C126.561 319.025 129.076 319.915 129.858 320.589C130.517 321.157 130.993 322.077 130.855 322.981C130.778 323.426 130.579 323.84 130.303 324.177C129.536 325.128 127.619 325.941 126.776 324.653C126.73 324.591 126.699 324.515 126.715 324.438C126.73 324.331 126.837 324.285 126.929 324.254C128.325 323.779 129.981 324.315 130.947 325.465C131.913 326.615 132.235 328.21 131.851 329.651C131.652 330.387 131.269 331.047 130.732 331.553C130.287 331.967 129.597 332.503 128.999 332.595C128.171 332.718 127.727 331.859 127.849 331.077C127.972 330.295 128.585 329.59 129.275 329.36C130.901 328.823 132.112 330.341 132.587 331.844C132.664 332.059 132.725 332.289 132.771 332.519C133.553 335.401 130.824 338.054 129.168 336.321C128.401 335.509 129.812 335.064 130.379 335.202C131.345 335.417 132.388 336.337 132.894 337.226C133.676 338.606 133.323 340.17 132.127 341.136C131.345 341.627 130.318 341.381 129.659 340.783C128.999 340.185 129.659 338.959 130.487 339.311C133.201 340.4 134.197 344.785 130.901 346.073C129.858 346.487 128.125 345.613 127.926 344.387C127.604 342.455 130.011 343.559 130.625 344.279C131.238 345 131.606 345.981 131.56 346.963C131.468 348.91 129.95 350.321 128.202 350.459" stroke="#262929" stroke-width="0.37" stroke-miterlimit="10"/>
</g>
<rect x="0.5" y="0.5" width="137" height="137" rx="68.5" stroke="#6B6B6B"/>
<defs>
<clipPath id="clip0_6_146">
<rect width="138" height="138" rx="69" fill="white"/>
</clipPath>
</defs>
</svg>
