<svg width="138" height="138" viewBox="0 0 138 138" fill="none" xmlns="http://www.w3.org/2000/svg">
<g clip-path="url(#clip0_6_18)">
<path d="M39.79 196.773L38.3487 -22.9691" stroke="#262929" stroke-width="0.37" stroke-miterlimit="10"/>
<path d="M32.3073 196.773L30.866 -22.9691" stroke="#262929" stroke-width="0.37" stroke-miterlimit="10"/>
<path d="M23.3066 196.773L21.8653 -22.9691" stroke="#262929" stroke-width="0.37" stroke-miterlimit="10"/>
<path d="M14.812 196.773L13.3706 -22.9691" stroke="#262929" stroke-width="0.37" stroke-miterlimit="10"/>
<path d="M49.7873 196.773L48.346 -22.9691" stroke="#262929" stroke-width="0.37" stroke-miterlimit="10"/>
<path d="M59.7847 196.773L58.3433 -22.9691" stroke="#262929" stroke-width="0.37" stroke-miterlimit="10"/>
<path d="M69.782 196.773L68.3406 -22.9691" stroke="#262929" stroke-width="0.37" stroke-miterlimit="10"/>
<path d="M79.7793 196.773L78.338 -22.9691" stroke="#262929" stroke-width="0.37" stroke-miterlimit="10"/>
<path d="M88.7646 196.773L87.3233 -22.9691" stroke="#262929" stroke-width="0.37" stroke-miterlimit="10"/>
<path d="M96.7686 196.773L95.3273 -22.9691" stroke="#262929" stroke-width="0.37" stroke-miterlimit="10"/>
<path d="M105.769 196.773L104.328 -22.9691" stroke="#262929" stroke-width="0.37" stroke-miterlimit="10"/>
<path d="M115.261 196.773L113.819 -22.9691" stroke="#262929" stroke-width="0.37" stroke-miterlimit="10"/>
<path d="M124.752 196.773L123.311 -22.9691" stroke="#262929" stroke-width="0.37" stroke-miterlimit="10"/>
</g>
<rect x="0.5" y="0.5" width="137" height="137" rx="68.5" stroke="#6B6B6B"/>
<defs>
<clipPath id="clip0_6_18">
<rect width="138" height="138" rx="69" fill="white"/>
</clipPath>
</defs>
</svg>
