<svg width="138" height="138" viewBox="0 0 138 138" fill="none" xmlns="http://www.w3.org/2000/svg">
<g clip-path="url(#clip0_6_61)">
<path d="M9.84406 -38.1954C11.0707 -36.938 12.742 -34.408 10.7947 -32.9207C9.95139 -32.2767 8.23406 -32.6447 8.47939 -34.086C8.77072 -35.696 10.6874 -35.098 11.3774 -34.2394C12.65 -32.6907 12.8034 -29.624 11.7607 -27.876C10.9021 -26.4347 8.72472 -26.588 8.54072 -28.4894C8.34139 -30.5594 10.8407 -31.6174 12.236 -30.4367C13.4167 -29.4247 13.892 -27.3854 13.524 -25.8674C13.248 -24.7174 12.466 -23.6747 11.4234 -23.2454C10.5647 -22.8927 9.30739 -23.0307 9.03139 -24.15C8.98539 -24.3494 8.98539 -24.5487 9.04672 -24.7327C9.41472 -25.6527 10.7641 -25.162 11.3621 -24.8247C12.374 -24.242 13.1714 -23.1227 13.0947 -21.8347C12.972 -19.9947 11.0707 -18.676 9.43006 -18.9674C8.87806 -19.0594 8.70939 -19.826 9.15405 -20.1787C10.8101 -21.4974 14.0454 -20.148 14.214 -17.71C14.3827 -15.272 11.9447 -13.202 9.59872 -13.2787C8.74006 -13.3094 8.43339 -14.49 9.15405 -14.9807C9.73672 -15.364 10.5647 -15.4714 11.0861 -14.9654C13.0487 -12.282 10.8714 -7.17605 8.06539 -5.42805C7.34472 -4.96805 6.50139 -5.84204 6.90006 -6.63938C8.37206 -9.69071 14.3214 -7.91204 12.2514 -1.64071C11.7607 -0.398711 10.5494 0.827956 9.36872 0.33729C7.77406 -0.322044 8.78606 -3.40404 10.5034 -3.29671C14.2294 -2.40738 13.9534 2.74462 11.3927 4.55395C10.5647 5.13662 9.81339 4.66129 9.82872 3.92529C9.89005 1.79395 13.4934 1.16529 14.26 4.56929C14.6894 7.25262 12.9874 10.764 10.4727 11.5306C9.13872 11.8526 7.49806 10.81 7.57472 9.33796C8.60206 5.59662 13.9687 7.81996 12.282 13.5086C11.9907 14.6893 11.4694 15.9313 10.4421 16.4526C9.87472 16.744 9.13872 16.652 8.61739 16.2993C8.00405 15.8853 8.32606 14.8273 9.04672 14.8886C10.7487 15.042 12.3587 16.79 12.1594 18.6606C11.9754 20.3473 10.3961 21.5893 8.84739 21.6353C8.01939 21.6506 7.78939 20.424 8.57139 20.1173C10.0281 19.5346 11.9754 20.1633 12.5274 21.7733C13.0794 23.3526 12.052 25.1466 10.6414 25.76C9.87472 26.0973 9.33806 24.8706 10.0741 24.472C12.2207 23.3066 15.5327 26.5573 12.6807 30.5593C12.2514 31.1573 11.3621 31.0346 11.1474 30.314V30.268C10.9174 29.532 11.6074 28.842 12.2974 29.0873C14.8427 29.9766 17.3267 32.752 15.318 35.3586C14.2447 36.5086 11.914 35.7573 11.9754 34.132C12.0367 32.2306 15.0267 32.0313 15.9314 33.672C17.6027 35.7266 14.306 43.0253 12.0827 40.1426C11.776 39.238 12.8187 38.318 13.6927 38.548C14.5667 38.778 15.134 39.6826 15.41 40.5873C16.5907 43.6386 13.6467 46.828 11.6534 44.9573C11.1167 44.4513 11.1474 43.5466 11.73 43.0866C14.5054 40.8633 17.112 48.1006 13.8767 50.002C13.018 50.4773 11.822 49.9253 11.4387 49.0973C11.2394 48.6373 11.6687 48.1466 12.098 48.3613C15.4407 49.9713 15.1187 55.2306 11.96 56.6106C10.8867 57.086 9.79806 55.8286 10.3654 54.7553C11.2087 53.1146 14.306 53.2526 15.0114 56.304C15.7627 58.328 14.1374 62.3913 12.2207 63.4493C10.4881 64.4153 8.98539 61.7013 10.5954 60.49C10.9941 60.1986 11.4694 60.03 11.9447 60.076C15.9927 60.628 16.054 68.5246 12.604 67.7886C11.9907 67.666 12.0827 66.6846 12.696 66.7C14.5054 66.7306 16.422 68.9846 15.64 70.9626C15.2414 71.9746 14.2294 72.5573 13.2634 72.7413C12.558 72.8793 11.2394 72.8946 11.0094 71.9593C10.8407 71.2846 11.3774 70.702 11.9907 70.7326C13.938 70.84 15.1187 73.3853 14.9654 75.2253C14.8274 76.9426 13.7387 78.706 12.2054 79.1046C11.1014 79.396 9.73672 78.2306 11.0554 76.5593C11.638 75.808 12.6654 75.348 13.5547 75.716C17.204 78.0773 14.72 82.4166 11.4234 83.5973C10.7794 83.8273 10.2274 83.0453 10.6107 82.4473C11.8987 80.4846 15.8394 81.8953 15.0267 86.6486C14.904 87.4153 14.7507 88.1513 14.1987 88.7033C13.2634 89.6386 11.8067 89.194 11.6227 87.7986C11.5154 87.0013 11.7914 86.204 12.4814 85.79C13.11 85.422 13.8614 85.33 14.5207 85.606C15.41 85.974 16.1154 86.8173 16.5294 87.722C16.8054 88.3353 16.9587 89.01 17.02 89.6693C17.0814 90.3286 17.1274 91.0646 16.974 91.7086C16.698 92.8433 16.0387 94.07 14.95 94.484C13.8307 94.9133 12.5274 94.2386 12.3587 92.92C12.2667 92.138 12.604 91.402 13.2174 90.9726C15.088 89.654 17.158 91.6626 17.48 93.6406C17.6334 94.6526 17.3727 95.5726 16.7287 96.3393C16.4834 96.6306 16.1614 96.8913 15.8087 96.9986C15.456 97.106 15.042 97.06 14.7354 96.83C14.4287 96.6 14.2754 96.1553 14.3827 95.772C14.5054 95.3733 14.8887 95.1433 15.2567 95.036C17.0967 94.4993 18.86 96.0633 19.0287 98.0106C19.1514 99.4366 18.3694 100.633 17.1887 101.231C17.0047 101.323 16.8054 101.399 16.606 101.476C14.766 102.089 14.306 99.1606 15.962 98.5473C18.768 98.0106 19.3354 101.967 18.2927 104.083C17.5874 106.153 15.18 107.563 13.846 106.383C12.5274 105.233 15.318 103.009 16.7747 103.96C19.1974 105.677 18.354 110.845 15.7627 112.025C14.8274 112.409 12.834 112.516 12.6347 111.458C12.512 110.799 13.2634 110.323 13.7694 110.737C17.3574 113.605 15.18 121.348 10.7947 120.167C9.69072 119.876 9.96672 118.695 11.2241 118.005C12.4814 117.315 13.9534 117.637 14.7047 118.695C15.226 119.431 15.5174 120.336 15.6554 121.241C15.7934 122.145 15.9314 123.234 15.6554 124.139C15.456 124.813 14.8734 125.319 14.1987 125.227C12.7727 125.028 12.374 123.111 13.1254 121.992C14.214 120.351 16.376 121.639 17.1887 122.927C17.9554 124.123 17.9247 125.703 17.618 127.052C17.4494 127.819 17.1887 129.153 16.2227 129.091C15.318 129.03 15.0267 127.926 15.5787 127.236C16.1767 126.485 17.25 126.745 17.8787 127.297C18.538 127.88 18.9827 128.815 18.9674 129.735C18.906 131.851 16.0847 136.635 13.8 136.451C12.0367 136.298 11.9447 133.477 13.708 133.293C15.226 133.139 17.1427 134.887 15.732 138.598C13.8307 142.968 10.7794 139.978 12.7114 138.445C13.386 137.923 14.306 137.862 15.0267 138.322C17.066 139.595 18.0167 143.459 16.284 145.176C15.0114 146.403 12.328 144.992 13.0334 143.305C13.5087 142.171 15.1034 142.033 16.0234 142.784C17.6334 144.271 18.0934 148.013 16.3607 149.531C15.594 150.205 13.846 149.653 13.9534 148.595C14.1067 147.185 16.6214 148.074 17.4034 148.749C18.0627 149.316 18.538 150.236 18.4 151.141C18.3234 151.585 18.124 151.999 17.848 152.337C17.0814 153.287 15.1647 154.1 14.3214 152.812C14.2754 152.751 14.2447 152.674 14.26 152.597C14.2754 152.49 14.3827 152.444 14.4747 152.413C15.87 151.938 17.526 152.475 18.492 153.625C19.458 154.775 19.78 156.369 19.3967 157.811C19.1974 158.547 18.814 159.206 18.2774 159.712C17.8327 160.126 17.1427 160.663 16.5447 160.755C15.7167 160.877 15.272 160.019 15.3947 159.237C15.5174 158.455 16.1307 157.749 16.8207 157.519C18.446 156.983 19.6574 158.501 20.1327 160.003C20.2094 160.218 20.2707 160.448 20.3167 160.678C21.0987 163.561 18.3694 166.213 16.7134 164.481C15.9467 163.668 17.3574 163.223 17.9247 163.361C18.8907 163.576 19.9334 164.496 20.4394 165.385C21.2214 166.765 20.8687 168.329 19.6727 169.295C18.8907 169.786 17.8634 169.541 17.204 168.943C16.5447 168.345 17.204 167.118 18.032 167.471C20.746 168.559 21.7427 172.945 18.446 174.233C17.4034 174.647 15.6707 173.773 15.4714 172.546C15.1494 170.614 17.5567 171.718 18.17 172.439C18.7834 173.159 19.1514 174.141 19.1054 175.122C19.0134 177.069 17.4954 178.48 15.7474 178.618" stroke="#262929" stroke-width="0.37" stroke-miterlimit="10"/>
<path d="M18.8447 -38.1954C20.0714 -36.938 21.7427 -34.408 19.7954 -32.9207C18.952 -32.2767 17.2347 -32.6447 17.48 -34.086C17.7714 -35.696 19.688 -35.098 20.378 -34.2394C21.6507 -32.6907 21.804 -29.624 20.7614 -27.876C19.9027 -26.4347 17.7254 -26.588 17.5414 -28.4894C17.342 -30.5594 19.8414 -31.6174 21.2367 -30.4367C22.4174 -29.4247 22.8927 -27.3854 22.5247 -25.8674C22.2487 -24.7174 21.4667 -23.6747 20.424 -23.2454C19.5654 -22.8927 18.308 -23.0307 18.032 -24.15C17.986 -24.3494 17.986 -24.5487 18.0474 -24.7327C18.4154 -25.6527 19.7647 -25.162 20.3627 -24.8247C21.3747 -24.242 22.172 -23.1227 22.0954 -21.8347C21.9727 -19.9947 20.0714 -18.676 18.4307 -18.9674C17.8787 -19.0594 17.71 -19.826 18.1547 -20.1787C19.8107 -21.4974 23.046 -20.148 23.2147 -17.71C23.3834 -15.272 20.9454 -13.202 18.5994 -13.2787C17.7407 -13.3094 17.434 -14.49 18.1547 -14.9807C18.7374 -15.364 19.5654 -15.4714 20.0867 -14.9654C22.0494 -12.282 19.872 -7.17605 17.066 -5.42805C16.3454 -4.96805 15.502 -5.84204 15.9007 -6.63938C17.3727 -9.69071 23.322 -7.91204 21.252 -1.64071C20.7614 -0.398711 19.55 0.827956 18.3694 0.33729C16.7747 -0.322044 17.7867 -3.40404 19.504 -3.29671C23.23 -2.40738 22.954 2.74462 20.3934 4.55395C19.5654 5.13662 18.814 4.66129 18.8294 3.92529C18.8907 1.79395 22.494 1.16529 23.2607 4.56929C23.69 7.25262 21.988 10.764 19.4734 11.5306C18.1394 11.8526 16.4987 10.81 16.5754 9.33796C17.6027 5.59662 22.9694 7.81996 21.2827 13.5086C20.9914 14.6893 20.47 15.9313 19.4427 16.4526C18.8754 16.744 18.1394 16.652 17.618 16.2993C17.0047 15.8853 17.3267 14.8273 18.0474 14.8886C19.7494 15.042 21.3594 16.79 21.16 18.6606C20.976 20.3473 19.3967 21.5893 17.848 21.6353C17.02 21.6506 16.79 20.424 17.572 20.1173C19.0287 19.5346 20.976 20.1633 21.528 21.7733C22.08 23.3833 21.0527 25.1466 19.642 25.76C18.8754 26.0973 18.3387 24.8706 19.0747 24.472C21.2214 23.3066 24.5334 26.5573 21.6814 30.5593C21.252 31.1573 20.3627 31.0346 20.148 30.314V30.268C19.918 29.532 20.608 28.842 21.298 29.0873C23.8434 29.9766 26.3274 32.752 24.3187 35.3586C23.2454 36.5086 20.9147 35.7573 20.976 34.132C21.0374 32.2306 24.0274 32.0313 24.932 33.672C26.6034 35.7266 23.3067 43.0253 21.0834 40.1426C20.7767 39.238 21.8194 38.318 22.6934 38.548C23.5674 38.778 24.1347 39.6826 24.4107 40.5873C25.5914 43.6386 22.6474 46.828 20.654 44.9573C20.1174 44.4513 20.148 43.5466 20.7307 43.0866C23.506 40.8633 26.1127 48.1006 22.8774 50.002C22.0187 50.4773 20.8227 49.9253 20.4394 49.0973C20.24 48.6373 20.6694 48.1466 21.0987 48.3613C24.4414 49.9713 24.1194 55.2306 20.9607 56.6106C19.8874 57.086 18.7987 55.8286 19.366 54.7553C20.2094 53.1146 23.3067 53.2526 24.012 56.304C24.7634 58.328 23.138 62.3913 21.2214 63.4493C19.4887 64.4153 17.986 61.7013 19.596 60.49C19.9947 60.1986 20.47 60.03 20.9454 60.076C24.9934 60.628 25.0547 68.5246 21.6047 67.7886C20.9914 67.666 21.0834 66.6846 21.6967 66.7C23.506 66.7306 25.4227 68.9846 24.6407 70.9626C24.242 71.9746 23.23 72.5573 22.264 72.7413C21.5587 72.8793 20.24 72.8946 20.01 71.9593C19.8414 71.2846 20.378 70.702 20.9914 70.7326C22.9387 70.84 24.1194 73.3853 23.966 75.2253C23.828 76.9426 22.7394 78.706 21.206 79.1046C20.102 79.396 18.7374 78.2306 20.056 76.5593C20.6387 75.808 21.666 75.348 22.5554 75.716C26.2047 78.0773 23.7207 82.4166 20.424 83.5973C19.78 83.8273 19.228 83.0453 19.6114 82.4473C20.8994 80.4846 24.84 81.8953 24.0274 86.6486C23.9047 87.4153 23.7514 88.1513 23.1994 88.7033C22.264 89.6386 20.8074 89.194 20.6234 87.7986C20.516 87.0013 20.792 86.204 21.482 85.79C22.1107 85.422 22.862 85.33 23.5214 85.606C24.4107 85.974 25.116 86.8173 25.53 87.722C25.806 88.3353 25.9594 89.01 26.0207 89.6693C26.082 90.3286 26.128 91.0646 25.9747 91.7086C25.6987 92.8433 25.0394 94.07 23.9507 94.484C22.8314 94.9133 21.528 94.2386 21.3594 92.92C21.2674 92.138 21.6047 91.402 22.218 90.9726C24.0887 89.654 26.1587 91.6626 26.4807 93.6406C26.634 94.6526 26.3734 95.5726 25.7294 96.3393C25.484 96.6306 25.162 96.8913 24.8094 96.9986C24.4567 97.106 24.0427 97.06 23.736 96.83C23.4294 96.6 23.276 96.1553 23.3834 95.772C23.506 95.3733 23.8894 95.1433 24.2574 95.036C26.0974 94.4993 27.8607 96.0633 28.0294 98.0106C28.152 99.4366 27.37 100.633 26.1894 101.231C26.0054 101.323 25.806 101.399 25.6067 101.476C23.7667 102.089 23.3067 99.1606 24.9627 98.5473C27.7687 98.0106 28.336 101.967 27.2934 104.083C26.588 106.153 24.1807 107.563 22.8467 106.383C21.5127 105.202 24.3187 103.009 25.7754 103.96C28.198 105.677 27.3547 110.845 24.7634 112.025C23.828 112.409 21.8347 112.516 21.6354 111.458C21.5127 110.799 22.264 110.323 22.77 110.737C26.358 113.605 24.1807 121.348 19.7954 120.167C18.6914 119.876 18.9674 118.695 20.2247 118.005C21.482 117.315 22.954 117.637 23.7054 118.695C24.2267 119.431 24.518 120.336 24.656 121.241C24.794 122.145 24.932 123.234 24.656 124.139C24.4567 124.813 23.874 125.319 23.1994 125.227C21.7734 125.028 21.3747 123.111 22.126 121.992C23.2147 120.351 25.3767 121.639 26.1894 122.927C26.956 124.123 26.9254 125.703 26.6187 127.052C26.45 127.819 26.1894 129.153 25.2234 129.091C24.3187 129.03 24.0274 127.926 24.5794 127.236C25.1774 126.485 26.2507 126.745 26.8794 127.297C27.5387 127.88 27.9834 128.815 27.968 129.735C27.9067 131.851 25.0854 136.635 22.8007 136.451C21.0374 136.298 20.9454 133.477 22.7087 133.293C24.2267 133.139 26.1434 134.887 24.7327 138.598C22.8314 142.968 19.78 139.978 21.712 138.445C22.3867 137.923 23.3067 137.862 24.0274 138.322C26.0667 139.595 27.0174 143.459 25.2847 145.176C24.012 146.403 21.3287 144.992 22.034 143.305C22.5094 142.171 24.104 142.033 25.024 142.784C26.634 144.271 27.094 148.013 25.3614 149.531C24.5947 150.205 22.8467 149.653 22.954 148.595C23.1074 147.185 25.622 148.074 26.404 148.749C27.0634 149.316 27.5387 150.236 27.4007 151.141C27.324 151.585 27.1247 151.999 26.8487 152.337C26.082 153.287 24.1654 154.1 23.322 152.812C23.276 152.751 23.2454 152.674 23.2607 152.597C23.276 152.49 23.3834 152.444 23.4754 152.413C24.8707 151.938 26.5267 152.475 27.4927 153.625C28.4587 154.775 28.7807 156.369 28.3974 157.811C28.198 158.547 27.8147 159.206 27.278 159.712C26.8334 160.126 26.1434 160.663 25.5454 160.755C24.7174 160.877 24.2727 160.019 24.3954 159.237C24.518 158.455 25.1314 157.749 25.8214 157.519C27.4467 156.983 28.658 158.501 29.1334 160.003C29.21 160.218 29.2714 160.448 29.3174 160.678C30.0994 163.561 27.37 166.213 25.714 164.481C24.9474 163.668 26.358 163.223 26.9254 163.361C27.8914 163.576 28.934 164.496 29.44 165.385C30.222 166.765 29.8694 168.329 28.6734 169.295C27.8914 169.786 26.864 169.541 26.2047 168.943C25.5454 168.345 26.2047 167.118 27.0327 167.471C29.7467 168.559 30.7434 172.945 27.4467 174.233C26.404 174.647 24.6714 173.773 24.472 172.546C24.15 170.614 26.5574 171.718 27.1707 172.439C27.784 173.159 28.152 174.141 28.106 175.122C28.014 177.069 26.496 178.48 24.748 178.618" stroke="#262929" stroke-width="0.37" stroke-miterlimit="10"/>
<path d="M28.336 -38.1954C29.5627 -36.938 31.234 -34.408 29.2867 -32.9207C28.4433 -32.2767 26.726 -32.6447 26.9713 -34.086C27.2627 -35.696 29.1793 -35.098 29.8693 -34.2394C31.142 -32.6907 31.2953 -29.624 30.2527 -27.876C29.394 -26.4347 27.2167 -26.588 27.0327 -28.4894C26.8333 -30.5594 29.3327 -31.6174 30.728 -30.4367C31.9087 -29.4247 32.384 -27.3854 32.016 -25.8674C31.74 -24.7174 30.958 -23.6747 29.9153 -23.2454C29.0567 -22.8927 27.7993 -23.0307 27.5233 -24.15C27.4773 -24.3494 27.4773 -24.5487 27.5387 -24.7327C27.9067 -25.6527 29.256 -25.162 29.854 -24.8247C30.866 -24.242 31.6633 -23.1227 31.5867 -21.8347C31.464 -19.9947 29.5627 -18.676 27.922 -18.9674C27.37 -19.0594 27.2013 -19.826 27.646 -20.1787C29.302 -21.4974 32.5373 -20.148 32.706 -17.71C32.8747 -15.272 30.4367 -13.202 28.0907 -13.2787C27.232 -13.3094 26.9253 -14.49 27.646 -14.9807C28.2287 -15.364 29.0567 -15.4714 29.578 -14.9654C31.5407 -12.282 29.3633 -7.17605 26.5573 -5.42805C25.8367 -4.96805 24.9933 -5.84204 25.392 -6.63938C26.864 -9.69071 32.8133 -7.91204 30.7433 -1.64071C30.2527 -0.398711 29.0413 0.827956 27.8607 0.33729C26.266 -0.322044 27.278 -3.40404 28.9953 -3.29671C32.7213 -2.40738 32.4453 2.74462 29.8847 4.55395C29.0567 5.13662 28.3053 4.66129 28.3207 3.92529C28.382 1.79395 31.9853 1.16529 32.752 4.56929C33.1813 7.25262 31.4793 10.764 28.9647 11.5306C27.6307 11.8526 25.99 10.81 26.0667 9.33796C27.094 5.59662 32.4607 7.81996 30.774 13.5086C30.4827 14.6893 29.9613 15.9313 28.934 16.4526C28.3667 16.744 27.6307 16.652 27.1093 16.2993C26.496 15.8853 26.818 14.8273 27.5387 14.8886C29.2407 15.042 30.8507 16.79 30.6513 18.6606C30.4673 20.3473 28.888 21.5893 27.3393 21.6353C26.5113 21.6506 26.2813 20.424 27.0633 20.1173C28.52 19.5346 30.4673 20.1633 31.0193 21.7733C31.5713 23.3833 30.544 25.1466 29.1333 25.76C28.3667 26.0973 27.83 24.8706 28.566 24.472C30.7127 23.3066 34.0247 26.5573 31.1727 30.5593C30.7433 31.1573 29.854 31.0346 29.6393 30.314V30.268C29.4093 29.532 30.0993 28.842 30.7893 29.0873C33.3347 29.9766 35.8187 32.752 33.81 35.3586C32.7367 36.5086 30.406 35.7573 30.4673 34.132C30.5287 32.2306 33.5187 32.0313 34.4233 33.672C36.0947 35.7266 32.798 43.0253 30.5747 40.1426C30.268 39.238 31.3107 38.318 32.1847 38.548C33.0587 38.778 33.626 39.6826 33.902 40.5873C35.0827 43.6386 32.1387 46.828 30.1453 44.9573C29.6087 44.4513 29.6393 43.5466 30.222 43.0866C32.9973 40.8633 35.604 48.1006 32.3687 50.002C31.51 50.4773 30.314 49.9253 29.9307 49.0973C29.7313 48.6373 30.1607 48.1466 30.59 48.3613C33.9327 49.9713 33.6107 55.2306 30.452 56.6106C29.3787 57.086 28.29 55.8286 28.8573 54.7553C29.7007 53.1146 32.798 53.2526 33.5033 56.304C34.2547 58.328 32.6293 62.3913 30.7127 63.4493C28.98 64.4153 27.4773 61.7013 29.0873 60.49C29.486 60.1986 29.9613 60.03 30.4367 60.076C34.4847 60.628 34.546 68.5246 31.096 67.7886C30.4827 67.666 30.5747 66.6846 31.188 66.7C32.9973 66.7306 34.914 68.9846 34.132 70.9626C33.7333 71.9746 32.7213 72.5573 31.7553 72.7413C31.05 72.8793 29.7313 72.8946 29.5013 71.9593C29.3327 71.2846 29.8693 70.702 30.4827 70.7326C32.43 70.84 33.6107 73.3853 33.4573 75.2253C33.3193 76.9426 32.2307 78.706 30.6973 79.1046C29.5933 79.396 28.2287 78.2306 29.5473 76.5593C30.13 75.808 31.1573 75.348 32.0467 75.716C35.696 78.0773 33.212 82.4166 29.9153 83.5973C29.2713 83.8273 28.7193 83.0453 29.1027 82.4473C30.3907 80.4846 34.3313 81.8953 33.5187 86.6486C33.396 87.4153 33.2427 88.1513 32.6907 88.7033C31.7553 89.6386 30.2987 89.194 30.1147 87.7986C30.0073 87.0013 30.2833 86.204 30.9733 85.79C31.602 85.422 32.3533 85.33 33.0127 85.606C33.902 85.974 34.6073 86.8173 35.0213 87.722C35.2973 88.3353 35.4507 89.01 35.512 89.6693C35.5733 90.3286 35.6193 91.0646 35.466 91.7086C35.19 92.8433 34.5307 94.07 33.442 94.484C32.3227 94.9133 31.0193 94.2386 30.8507 92.92C30.7587 92.138 31.096 91.402 31.7093 90.9726C33.58 89.654 35.65 91.6626 35.972 93.6406C36.1253 94.6526 35.8647 95.5726 35.2207 96.3393C34.9753 96.6306 34.6533 96.8913 34.3007 96.9986C33.948 97.106 33.534 97.06 33.2273 96.83C32.9207 96.6 32.7673 96.1553 32.8747 95.772C32.9973 95.3733 33.3807 95.1433 33.7487 95.036C35.5887 94.4993 37.352 96.0633 37.5207 98.0106C37.6433 99.4366 36.8613 100.633 35.6807 101.231C35.4967 101.323 35.2973 101.399 35.098 101.476C33.258 102.089 32.798 99.1606 34.454 98.5473C37.26 98.0106 37.8273 101.967 36.7847 104.083C36.0793 106.153 33.672 107.563 32.338 106.383C31.004 105.202 33.81 103.009 35.2667 103.96C37.6893 105.677 36.846 110.845 34.2547 112.025C33.3193 112.409 31.326 112.516 31.1267 111.458C31.004 110.799 31.7553 110.323 32.2613 110.737C35.8493 113.605 33.672 121.348 29.2867 120.167C28.1827 119.876 28.4587 118.695 29.716 118.005C30.9733 117.315 32.4453 117.637 33.1967 118.695C33.718 119.431 34.0093 120.336 34.1473 121.241C34.2853 122.145 34.4233 123.234 34.1473 124.139C33.948 124.813 33.3653 125.319 32.6907 125.227C31.2647 125.028 30.866 123.111 31.6173 121.992C32.706 120.351 34.868 121.639 35.6807 122.927C36.4473 124.123 36.4167 125.703 36.11 127.052C35.9413 127.819 35.6807 129.153 34.7147 129.091C33.81 129.03 33.5187 127.926 34.0707 127.236C34.6687 126.485 35.742 126.745 36.3707 127.297C37.03 127.88 37.4747 128.815 37.4593 129.735C37.398 131.851 34.5767 136.635 32.292 136.451C30.5287 136.298 30.4367 133.477 32.2 133.293C33.718 133.139 35.6347 134.887 34.224 138.598C32.3227 142.968 29.2713 139.978 31.2033 138.445C31.878 137.923 32.798 137.862 33.5187 138.322C35.558 139.595 36.5087 143.459 34.776 145.176C33.5033 146.403 30.82 144.992 31.5253 143.305C32.0007 142.171 33.5953 142.033 34.5153 142.784C36.1253 144.271 36.5853 148.013 34.8527 149.531C34.086 150.205 32.338 149.653 32.4453 148.595C32.5987 147.185 35.1133 148.074 35.8953 148.749C36.5547 149.316 37.03 150.236 36.892 151.141C36.8153 151.585 36.616 151.999 36.34 152.337C35.5733 153.287 33.6567 154.1 32.8133 152.812C32.7673 152.751 32.7367 152.674 32.752 152.597C32.7673 152.49 32.8747 152.444 32.9667 152.413C34.362 151.938 36.018 152.475 36.984 153.625C37.95 154.775 38.272 156.369 37.8887 157.811C37.6893 158.547 37.306 159.206 36.7693 159.712C36.3247 160.126 35.6347 160.663 35.0367 160.755C34.2087 160.877 33.764 160.019 33.8867 159.237C34.0093 158.455 34.6227 157.749 35.3127 157.519C36.938 156.983 38.1493 158.501 38.6247 160.003C38.7013 160.218 38.7627 160.448 38.8087 160.678C39.5907 163.561 36.8613 166.213 35.2053 164.481C34.4387 163.668 35.8493 163.223 36.4167 163.361C37.3827 163.576 38.4253 164.496 38.9313 165.385C39.7133 166.765 39.3607 168.329 38.1647 169.295C37.3827 169.786 36.3553 169.541 35.696 168.943C35.0367 168.345 35.696 167.118 36.524 167.471C39.238 168.559 40.2347 172.945 36.938 174.233C35.8953 174.647 34.1627 173.773 33.9633 172.546C33.6413 170.614 36.0487 171.718 36.662 172.439C37.2753 173.159 37.6433 174.141 37.5973 175.122C37.5053 177.069 35.9873 178.48 34.2393 178.618" stroke="#262929" stroke-width="0.37" stroke-miterlimit="10"/>
<path d="M38.3334 -39.1921C39.56 -37.9347 41.2314 -35.4047 39.284 -33.9174C38.4407 -33.2734 36.7234 -33.6414 36.9687 -35.0827C37.26 -36.6927 39.1767 -36.0947 39.8667 -35.2361C41.1394 -33.6874 41.2927 -30.6207 40.25 -28.8727C39.3914 -27.4314 37.214 -27.5847 37.03 -29.4861C36.8307 -31.5561 39.33 -32.6141 40.7254 -31.4334C41.906 -30.4214 42.3814 -28.3821 42.0134 -26.8641C41.7374 -25.7141 40.9554 -24.6714 39.9127 -24.2421C39.054 -23.8894 37.7967 -24.0274 37.5207 -25.1467C37.4747 -25.3461 37.4747 -25.5454 37.536 -25.7294C37.904 -26.6494 39.2534 -26.1587 39.8514 -25.8214C40.8634 -25.2387 41.6607 -24.1194 41.584 -22.8314C41.4614 -20.9914 39.56 -19.6727 37.9194 -19.9641C37.3674 -20.0561 37.1987 -20.8227 37.6434 -21.1754C39.2994 -22.4941 42.5347 -21.1447 42.7034 -18.7067C42.872 -16.1921 40.434 -14.1987 38.088 -14.2754C37.2294 -14.3061 36.9227 -15.4867 37.6434 -15.9774C38.226 -16.3607 39.054 -16.4681 39.5754 -15.9621C41.538 -13.2787 39.3607 -8.17276 36.5547 -6.42476C35.834 -5.96476 34.9907 -6.83874 35.3894 -7.63608C36.8614 -10.6874 42.8107 -8.90874 40.7407 -2.63741C40.25 -1.39541 39.0387 -0.168752 37.858 -0.659419C36.2634 -1.31875 37.2754 -4.40074 38.9927 -4.29341C42.7187 -3.40408 42.4427 1.74792 39.882 3.55726C39.054 4.13992 38.3027 3.66458 38.318 2.92858C38.3794 0.797249 41.9827 0.168585 42.7494 3.57259C43.1787 6.25592 41.4767 9.76726 38.962 10.5339C37.628 10.8559 35.9874 9.81326 36.064 8.34126C37.0914 4.59992 42.458 6.82325 40.7714 12.5119C40.48 13.6926 39.9587 14.9346 38.9314 15.4559C38.364 15.7473 37.628 15.6553 37.1067 15.3026C36.4934 14.8886 36.8154 13.8306 37.536 13.8919C39.238 14.0453 40.848 15.7933 40.6487 17.6639C40.4647 19.3506 38.8854 20.5926 37.3367 20.6386C36.5087 20.6539 36.2787 19.4273 37.0607 19.1206C38.5174 18.5379 40.4647 19.1666 41.0167 20.7766C41.5687 22.3866 40.5414 24.1499 39.1307 24.7633C38.364 25.1006 37.8274 23.8739 38.5634 23.4753C40.71 22.3099 44.022 25.5606 41.17 29.5626C40.7407 30.1606 39.8514 30.0379 39.6367 29.3173V29.2713C39.4067 28.5353 40.0967 27.8453 40.7867 28.0906C43.332 28.9799 45.816 31.7553 43.8074 34.3619C42.734 35.5119 40.4034 34.7606 40.4647 33.1353C40.526 31.2339 43.516 31.0346 44.4207 32.6753C46.092 34.7299 42.7954 42.0286 40.572 39.1459C40.2654 38.2413 41.308 37.3213 42.182 37.5513C43.056 37.7813 43.6234 38.6859 43.8994 39.5906C45.08 42.6419 42.136 45.8313 40.1427 43.9606C39.606 43.4546 39.6367 42.5499 40.2194 42.0899C42.9947 39.8666 45.6014 47.1039 42.366 49.0053C41.5074 49.4806 40.3114 48.9286 39.928 48.1006C39.7287 47.6406 40.158 47.1499 40.5874 47.3646C43.93 48.9746 43.608 54.2339 40.4494 55.6139C39.376 56.0893 38.2874 54.8319 38.8547 53.7586C39.698 52.1179 42.7954 52.2559 43.5007 55.3073C44.252 57.3313 42.6267 61.3946 40.71 62.4526C38.9774 63.4186 37.4747 60.7046 39.0847 59.4933C39.4834 59.2019 39.9587 59.0333 40.434 59.0793C44.482 59.6313 44.5434 67.5279 41.0934 66.7919C40.48 66.6693 40.572 65.6879 41.1854 65.7033C42.9947 65.7339 44.9114 67.9879 44.1294 69.9659C43.7307 70.9779 42.7187 71.5606 41.7527 71.7446C41.0474 71.8826 39.7287 71.8979 39.4987 70.9626C39.33 70.2879 39.8667 69.7053 40.48 69.7359C42.4274 69.8433 43.608 72.3886 43.4547 74.2286C43.3167 75.9459 42.228 77.7093 40.6947 78.1079C39.5907 78.3993 38.226 77.2339 39.5447 75.5626C40.1274 74.8113 41.1547 74.3513 42.044 74.7193C45.6934 77.0806 43.2094 81.4199 39.9127 82.6006C39.2687 82.8306 38.7167 82.0486 39.1 81.4506C40.388 79.4879 44.3287 80.8986 43.516 85.6519C43.3934 86.4186 43.24 87.1546 42.688 87.7066C41.7527 88.6419 40.296 88.1973 40.112 86.8019C40.0047 86.0046 40.2807 85.2073 40.9707 84.7933C41.5994 84.4253 42.3507 84.3333 43.01 84.6093C43.8994 84.9773 44.6047 85.8206 45.0187 86.7253C45.2947 87.3386 45.448 88.0133 45.5094 88.6726C45.5707 89.3319 45.6167 90.0679 45.4634 90.7119C45.1874 91.8466 44.528 93.0733 43.4394 93.4873C42.32 93.9166 41.0167 93.2419 40.848 91.9233C40.756 91.1413 41.0934 90.4053 41.7067 89.9759C43.5774 88.6573 45.6474 90.6659 45.9694 92.6439C46.1227 93.6559 45.862 94.5759 45.218 95.3426C44.9727 95.6339 44.6507 95.8946 44.298 96.0019C43.9454 96.1093 43.5314 96.0633 43.2247 95.8333C42.918 95.6033 42.7647 95.1586 42.872 94.7753C42.9947 94.3766 43.378 94.1466 43.746 94.0393C45.586 93.5026 47.3494 95.0666 47.518 97.0139C47.6407 98.4399 46.8587 99.6359 45.678 100.234C45.494 100.326 45.2947 100.403 45.0954 100.479C43.2554 101.093 42.7954 98.1639 44.4514 97.5506C47.2574 97.0139 47.8247 100.97 46.782 103.086C46.0767 105.156 43.6694 106.567 42.3354 105.386C41.0014 104.205 43.8074 102.013 45.264 102.963C47.6867 104.681 46.8434 109.848 44.252 111.029C43.3167 111.412 41.3234 111.519 41.124 110.461C41.0014 109.802 41.7527 109.327 42.2587 109.741C45.8467 112.608 43.6694 120.351 39.284 119.171C38.18 118.879 38.456 117.699 39.7134 117.009C40.9707 116.319 42.4427 116.641 43.194 117.699C43.7154 118.435 44.0067 119.339 44.1447 120.244C44.2827 121.149 44.4207 122.237 44.1447 123.142C43.9454 123.817 43.3627 124.323 42.688 124.231C41.262 124.031 40.8634 122.115 41.6147 120.995C42.7034 119.355 44.8654 120.643 45.678 121.931C46.4447 123.127 46.414 124.706 46.1074 126.055C45.9387 126.822 45.678 128.156 44.712 128.095C43.8074 128.033 43.516 126.929 44.068 126.239C44.666 125.488 45.7394 125.749 46.368 126.301C47.0274 126.883 47.472 127.819 47.4567 128.739C47.3954 130.855 44.574 135.639 42.2894 135.455C40.526 135.301 40.434 132.48 42.1974 132.296C43.7154 132.143 45.632 133.891 44.2214 137.601C42.32 141.971 39.2687 138.981 41.2007 137.448C41.8754 136.927 42.7954 136.865 43.516 137.325C45.5554 138.598 46.506 142.462 44.7734 144.179C43.5007 145.406 40.8174 143.995 41.5227 142.309C41.998 141.174 43.5927 141.036 44.5127 141.787C46.1227 143.275 46.5827 147.016 44.85 148.534C44.0834 149.209 42.3354 148.657 42.4427 147.599C42.596 146.188 45.1107 147.077 45.8927 147.752C46.552 148.319 47.0274 149.239 46.8894 150.144C46.8127 150.589 46.6134 151.003 46.3374 151.34C45.5707 152.291 43.654 153.103 42.8107 151.815C42.7647 151.754 42.734 151.677 42.7494 151.601C42.7647 151.493 42.872 151.447 42.964 151.417C44.3594 150.941 46.0154 151.478 46.9814 152.628C47.9474 153.778 48.2694 155.373 47.886 156.814C47.6867 157.55 47.3034 158.209 46.7667 158.715C46.322 159.129 45.632 159.666 45.034 159.758C44.206 159.881 43.7614 159.022 43.884 158.24C44.0067 157.458 44.62 156.753 45.31 156.523C46.9354 155.986 48.1467 157.504 48.622 159.007C48.6987 159.221 48.76 159.451 48.806 159.681C49.588 162.564 46.8587 165.217 45.2027 163.484C44.436 162.671 45.8467 162.227 46.414 162.365C47.38 162.579 48.4227 163.499 48.9287 164.389C49.7107 165.769 49.358 167.333 48.162 168.299C47.38 168.789 46.3527 168.544 45.6934 167.946C45.034 167.348 45.6934 166.121 46.5214 166.474C49.2354 167.563 50.232 171.948 46.9354 173.236C45.8927 173.65 44.16 172.776 43.9607 171.549C43.6387 169.617 46.046 170.721 46.6594 171.442C47.2727 172.163 47.6407 173.144 47.5947 174.125C47.5027 176.073 45.9847 177.483 44.2367 177.621" stroke="#262929" stroke-width="0.37" stroke-miterlimit="10"/>
<path d="M47.8247 -32.2C49.0513 -30.9427 50.7227 -28.4127 48.7753 -26.9253C47.932 -26.2813 46.2147 -26.6493 46.46 -28.0907C46.7513 -29.7007 48.668 -29.1027 49.358 -28.244C50.6307 -26.6953 50.784 -23.6287 49.7413 -21.8807C48.8827 -20.4393 46.7053 -20.5927 46.5213 -22.494C46.322 -24.564 48.8213 -25.622 50.2167 -24.4413C51.3973 -23.4293 51.8727 -21.39 51.5047 -19.872C51.2287 -18.722 50.4467 -17.6793 49.404 -17.25C48.5453 -16.8973 47.288 -17.0353 47.012 -18.1547C46.966 -18.354 46.966 -18.5533 47.0273 -18.7373C47.3953 -19.6573 48.7447 -19.1667 49.3427 -18.8293C50.3547 -18.2467 51.152 -17.1273 51.0753 -15.8393C50.9527 -13.9993 49.0513 -12.6807 47.4107 -12.972C46.8587 -13.064 46.69 -13.8307 47.1347 -14.1833C48.7907 -15.502 52.026 -14.1527 52.1947 -11.7147C52.3633 -9.2 49.9253 -7.20667 47.5793 -7.28333C46.7207 -7.314 46.414 -8.49467 47.1347 -8.98533C47.7173 -9.36867 48.5453 -9.476 49.0667 -8.97C51.0293 -6.28667 48.852 -1.18066 46.046 0.567338C45.3253 1.02734 44.482 0.153336 44.8807 -0.643997C46.3527 -3.69533 52.302 -1.91667 50.232 4.35467C49.7413 5.59667 48.53 6.82334 47.3493 6.33267C45.7547 5.67334 46.7667 2.59133 48.484 2.69867C52.21 3.588 51.934 8.74 49.3733 10.5493C48.5453 11.132 47.794 10.6567 47.8093 9.92067C47.8707 7.78933 51.474 7.16067 52.2407 10.5647C52.67 13.248 50.968 16.7593 48.4533 17.526C47.1193 17.848 45.4787 16.8053 45.5553 15.3333C46.5827 11.592 51.9493 13.8153 50.2627 19.504C49.9713 20.6847 49.45 21.9267 48.4227 22.448C47.8553 22.7393 47.1193 22.6473 46.598 22.2947C45.9847 21.8807 46.3067 20.8227 47.0273 20.884C48.7293 21.0373 50.3393 22.7853 50.14 24.656C49.956 26.3427 48.3767 27.5847 46.828 27.6307C46 27.646 45.77 26.4193 46.552 26.1127C48.0087 25.53 49.956 26.1587 50.508 27.7687C51.06 29.3787 50.0327 31.142 48.622 31.7553C47.8553 32.0927 47.3187 30.866 48.0547 30.4673C50.2013 29.302 53.5133 32.5527 50.6613 36.5547C50.232 37.1527 49.3427 37.03 49.128 36.3093V36.2633C48.898 35.5273 49.588 34.8373 50.278 35.0827C52.8233 35.972 55.3073 38.7473 53.2987 41.354C52.2253 42.504 49.8947 41.7527 49.956 40.1273C50.0173 38.226 53.0073 38.0267 53.912 39.6673C55.5833 41.722 52.2867 49.0207 50.0633 46.138C49.7567 45.2333 50.7993 44.3133 51.6733 44.5433C52.5473 44.7733 53.1147 45.678 53.3907 46.5827C54.5713 49.634 51.6273 52.8233 49.634 50.9527C49.0973 50.4467 49.128 49.542 49.7107 49.082C52.486 46.8587 55.0927 54.096 51.8573 55.9973C50.9987 56.4727 49.8027 55.9207 49.4193 55.0927C49.22 54.6327 49.6493 54.142 50.0787 54.3567C53.4213 55.9667 53.0993 61.226 49.9407 62.606C48.8673 63.0813 47.7787 61.824 48.346 60.7507C49.1893 59.11 52.2867 59.248 52.992 62.2993C53.7433 64.3233 52.118 68.3867 50.2013 69.4447C48.4687 70.4107 46.966 67.6967 48.576 66.4853C48.9747 66.194 49.45 66.0253 49.9253 66.0713C53.9733 66.6233 54.0347 74.52 50.5847 73.784C49.9713 73.6613 50.0633 72.68 50.6767 72.6953C52.486 72.726 54.4027 74.98 53.6207 76.958C53.222 77.97 52.21 78.5527 51.244 78.7367C50.5387 78.8747 49.22 78.89 48.99 77.9547C48.8213 77.28 49.358 76.6973 49.9713 76.728C51.9187 76.8353 53.0993 79.3807 52.946 81.2207C52.808 82.938 51.7193 84.7013 50.186 85.1C49.082 85.3913 47.7173 84.226 49.036 82.5547C49.6187 81.8033 50.646 81.3433 51.5353 81.7113C55.1847 84.0727 52.7007 88.412 49.404 89.5927C48.76 89.8227 48.208 89.0407 48.5913 88.4427C49.8793 86.48 53.82 87.8907 53.0073 92.644C52.8847 93.4107 52.7313 94.1467 52.1793 94.6987C51.244 95.634 49.7873 95.1893 49.6033 93.794C49.496 92.9967 49.772 92.1993 50.462 91.7853C51.0907 91.4173 51.842 91.3253 52.5013 91.6013C53.3907 91.9693 54.096 92.8127 54.51 93.7173C54.786 94.3307 54.9393 95.0053 55.0007 95.6647C55.062 96.324 55.108 97.06 54.9547 97.704C54.6787 98.8387 54.0193 100.065 52.9307 100.479C51.8113 100.909 50.508 100.234 50.3393 98.9153C50.2473 98.1333 50.5847 97.3973 51.198 96.968C53.0687 95.6493 55.1387 97.658 55.4607 99.636C55.614 100.648 55.3533 101.568 54.7093 102.335C54.464 102.626 54.142 102.887 53.7893 102.994C53.4367 103.101 53.0227 103.055 52.716 102.825C52.4093 102.595 52.256 102.151 52.3633 101.767C52.486 101.369 52.8693 101.139 53.2373 101.031C55.0773 100.495 56.8407 102.059 57.0093 104.006C57.132 105.432 56.35 106.628 55.1693 107.226C54.9853 107.318 54.786 107.395 54.5867 107.471C52.7467 108.085 52.2867 105.156 53.9427 104.543C56.7487 104.006 57.316 107.962 56.2733 110.078C55.568 112.148 53.1607 113.559 51.8267 112.378C50.4927 111.197 53.2987 109.005 54.7553 109.955C57.178 111.673 56.3347 116.84 53.7433 118.021C52.808 118.404 50.8147 118.511 50.6153 117.453C50.4927 116.794 51.244 116.319 51.75 116.733C55.338 119.6 53.1607 127.343 48.7753 126.163C47.6713 125.871 47.9473 124.691 49.2047 124.001C50.462 123.311 51.934 123.633 52.6853 124.691C53.2067 125.427 53.498 126.331 53.636 127.236C53.774 128.141 53.912 129.229 53.636 130.134C53.4367 130.809 52.854 131.315 52.1793 131.223C50.7533 131.023 50.3547 129.107 51.106 127.987C52.1947 126.347 54.3567 127.635 55.1693 128.923C55.936 130.119 55.9053 131.698 55.5987 133.047C55.43 133.814 55.1693 135.148 54.2033 135.087C53.2987 135.025 53.0073 133.921 53.5593 133.231C54.1573 132.48 55.2307 132.741 55.8593 133.293C56.5187 133.875 56.9633 134.811 56.948 135.731C56.8867 137.847 54.0653 142.631 51.7807 142.447C50.0173 142.293 49.9253 139.472 51.6887 139.288C53.2067 139.135 55.1233 140.883 53.7127 144.593C51.8113 148.963 48.76 145.973 50.692 144.44C51.3667 143.919 52.2867 143.857 53.0073 144.317C55.0467 145.59 55.9973 149.454 54.2647 151.171C52.992 152.398 50.3087 150.987 51.014 149.301C51.4893 148.166 53.084 148.028 54.004 148.779C55.614 150.267 56.074 154.008 54.3413 155.526C53.5747 156.201 51.8267 155.649 51.934 154.591C52.0873 153.18 54.602 154.069 55.384 154.744C56.0433 155.311 56.5187 156.231 56.3807 157.136C56.304 157.581 56.1047 157.995 55.8287 158.332C55.062 159.283 53.1453 160.095 52.302 158.807C52.256 158.746 52.2253 158.669 52.2407 158.593C52.256 158.485 52.3633 158.439 52.4553 158.409C53.8507 157.933 55.5067 158.47 56.4727 159.62C57.4387 160.77 57.7607 162.365 57.3773 163.806C57.178 164.542 56.7947 165.201 56.258 165.707C55.8133 166.121 55.1233 166.658 54.5253 166.75C53.6973 166.873 53.2527 166.014 53.3753 165.232C53.498 164.45 54.1113 163.745 54.8013 163.515C56.4267 162.978 57.638 164.496 58.1133 165.999C58.19 166.213 58.2513 166.443 58.2973 166.673C59.0793 169.556 56.35 172.209 54.694 170.476C53.9273 169.663 55.338 169.219 55.9053 169.357C56.8713 169.571 57.914 170.491 58.42 171.381C59.202 172.761 58.8493 174.325 57.6533 175.291C56.8713 175.781 55.844 175.536 55.1847 174.938C54.5253 174.34 55.1847 173.113 56.0127 173.466C58.7267 174.555 59.7233 178.94 56.4267 180.228C55.384 180.642 53.6513 179.768 53.452 178.541C53.13 176.609 55.5373 177.713 56.1507 178.434C56.764 179.155 57.132 180.136 57.086 181.117C56.994 183.065 55.476 184.475 53.728 184.613" stroke="#262929" stroke-width="0.37" stroke-miterlimit="10"/>
<path d="M56.8253 -39.1921C58.052 -37.9347 59.7233 -35.4047 57.776 -33.9174C56.9327 -33.2734 55.2153 -33.6414 55.4606 -35.0827C55.752 -36.6927 57.6687 -36.0947 58.3587 -35.2361C59.6313 -33.6874 59.7847 -30.6207 58.742 -28.8727C57.8833 -27.4314 55.706 -27.5847 55.522 -29.4861C55.3226 -31.5561 57.822 -32.6141 59.2173 -31.4334C60.398 -30.4214 60.8733 -28.3821 60.5053 -26.8641C60.2293 -25.7141 59.4473 -24.6714 58.4047 -24.2421C57.546 -23.8894 56.2886 -24.0274 56.0126 -25.1467C55.9666 -25.3461 55.9667 -25.5454 56.028 -25.7294C56.396 -26.6494 57.7453 -26.1587 58.3433 -25.8214C59.3553 -25.2387 60.1527 -24.1194 60.076 -22.8314C59.9533 -20.9914 58.052 -19.6727 56.4113 -19.9641C55.8593 -20.0561 55.6907 -20.8227 56.1353 -21.1754C57.7913 -22.4941 61.0267 -21.1447 61.1953 -18.7067C61.364 -16.2687 58.926 -14.1987 56.58 -14.2754C55.7213 -14.3061 55.4147 -15.4867 56.1353 -15.9774C56.718 -16.3607 57.546 -16.4681 58.0673 -15.9621C60.03 -13.2787 57.8527 -8.17276 55.0467 -6.42476C54.326 -5.96476 53.4826 -6.83874 53.8813 -7.63608C55.3533 -10.6874 61.3027 -8.90874 59.2327 -2.63741C58.742 -1.39541 57.5307 -0.168752 56.35 -0.659419C54.7553 -1.31875 55.7673 -4.40074 57.4847 -4.29341C61.2107 -3.40408 60.9347 1.74792 58.374 3.55726C57.546 4.13992 56.7946 3.66458 56.81 2.92858C56.8713 0.797249 60.4746 0.168585 61.2413 3.57259C61.6706 6.25592 59.9687 9.76726 57.454 10.5339C56.12 10.8559 54.4793 9.81326 54.556 8.34126C55.5833 4.59992 60.95 6.82325 59.2633 12.5119C58.972 13.6926 58.4507 14.9346 57.4233 15.4559C56.856 15.7473 56.12 15.6553 55.5986 15.3026C54.9853 14.8886 55.3073 13.8306 56.028 13.8919C57.73 14.0453 59.34 15.7933 59.1407 17.6639C58.9567 19.3506 57.3773 20.5926 55.8287 20.6386C55.0007 20.6539 54.7706 19.4273 55.5526 19.1206C57.0093 18.5379 58.9567 19.1666 59.5087 20.7766C60.0607 22.3559 59.0333 24.1499 57.6227 24.7633C56.856 25.1006 56.3193 23.8739 57.0553 23.4753C59.202 22.3099 62.514 25.5606 59.662 29.5626C59.2327 30.1606 58.3433 30.0379 58.1287 29.3173V29.2713C57.8987 28.5353 58.5887 27.8453 59.2787 28.0906C61.824 28.9799 64.308 31.7553 62.2993 34.3619C61.226 35.5119 58.8953 34.7606 58.9567 33.1353C59.018 31.2339 62.008 31.0346 62.9126 32.6753C64.584 34.7299 61.2873 42.0286 59.064 39.1459C58.7573 38.2413 59.8 37.3213 60.674 37.5513C61.548 37.7813 62.1153 38.6859 62.3913 39.5906C63.572 42.6419 60.628 45.8313 58.6347 43.9606C58.098 43.4546 58.1287 42.5499 58.7113 42.0899C61.4867 39.8666 64.0933 47.1039 60.858 49.0053C59.9993 49.4806 58.8033 48.9286 58.42 48.1006C58.2206 47.6406 58.65 47.1499 59.0793 47.3646C62.422 48.9746 62.1 54.2339 58.9413 55.6139C57.868 56.0893 56.7793 54.8319 57.3467 53.7586C58.19 52.1179 61.2873 52.2559 61.9927 55.3073C62.744 57.3313 61.1187 61.3946 59.202 62.4526C57.4693 63.4186 55.9666 60.7046 57.5766 59.4933C57.9753 59.2019 58.4507 59.0333 58.926 59.0793C62.974 59.6313 63.0353 67.5279 59.5853 66.7919C58.972 66.6693 59.064 65.6879 59.6773 65.7033C61.4866 65.7339 63.4033 67.9879 62.6213 69.9659C62.2227 70.9779 61.2107 71.5606 60.2447 71.7446C59.5393 71.8826 58.2207 71.8979 57.9907 70.9626C57.822 70.2879 58.3586 69.7053 58.972 69.7359C60.9193 69.8433 62.1 72.3886 61.9467 74.2286C61.8087 75.9459 60.72 77.7093 59.1866 78.1079C58.0826 78.3993 56.718 77.2339 58.0366 75.5626C58.6193 74.8113 59.6466 74.3513 60.536 74.7193C64.1853 77.0806 61.7013 81.4199 58.4047 82.6006C57.7607 82.8306 57.2087 82.0486 57.592 81.4506C58.88 79.4879 62.8206 80.8986 62.008 85.6519C61.8853 86.4186 61.732 87.1546 61.18 87.7066C60.2447 88.6419 58.788 88.1973 58.604 86.8019C58.4967 86.0046 58.7726 85.2073 59.4626 84.7933C60.0913 84.4253 60.8427 84.3333 61.502 84.6093C62.3913 84.9773 63.0966 85.8206 63.5106 86.7253C63.7866 87.3386 63.94 88.0133 64.0013 88.6726C64.0627 89.3319 64.1086 90.0679 63.9553 90.7119C63.6793 91.8466 63.02 93.0733 61.9313 93.4873C60.812 93.9166 59.5087 93.2419 59.34 91.9233C59.248 91.1413 59.5853 90.4053 60.1986 89.9759C62.0693 88.6573 64.1393 90.6659 64.4613 92.6439C64.6147 93.6559 64.354 94.5759 63.71 95.3426C63.4646 95.6339 63.1427 95.8946 62.79 96.0019C62.4373 96.1093 62.0233 96.0633 61.7167 95.8333C61.41 95.6033 61.2567 95.1586 61.364 94.7753C61.4867 94.3766 61.87 94.1466 62.238 94.0393C64.078 93.5026 65.8413 95.0666 66.01 97.0139C66.1326 98.4399 65.3506 99.6359 64.17 100.234C63.986 100.326 63.7867 100.403 63.5873 100.479C61.7473 101.093 61.2873 98.1639 62.9433 97.5506C65.7493 97.0139 66.3167 100.97 65.274 103.086C64.5686 105.156 62.1613 106.567 60.8273 105.386C59.4933 104.205 62.2993 102.013 63.756 102.963C66.1787 104.681 65.3353 109.848 62.744 111.029C61.8086 111.412 59.8153 111.519 59.616 110.461C59.4933 109.802 60.2446 109.327 60.7506 109.741C64.3386 112.608 62.1613 120.351 57.776 119.171C56.672 118.879 56.948 117.699 58.2053 117.009C59.4626 116.319 60.9346 116.641 61.686 117.699C62.2073 118.435 62.4986 119.339 62.6366 120.244C62.7746 121.149 62.9126 122.237 62.6366 123.142C62.4373 123.817 61.8547 124.323 61.18 124.231C59.754 124.031 59.3553 122.115 60.1067 120.995C61.1953 119.355 63.3573 120.643 64.17 121.931C64.9366 123.127 64.906 124.706 64.5993 126.055C64.4307 126.822 64.17 128.156 63.204 128.095C62.2993 128.033 62.008 126.929 62.56 126.239C63.158 125.488 64.2313 125.749 64.86 126.301C65.5193 126.883 65.964 127.819 65.9486 128.739C65.8873 130.855 63.066 135.639 60.7813 135.455C59.018 135.301 58.926 132.48 60.6893 132.296C62.2073 132.143 64.124 133.891 62.7133 137.601C60.812 141.971 57.7607 138.981 59.6927 137.448C60.3673 136.927 61.2873 136.865 62.008 137.325C64.0473 138.598 64.998 142.462 63.2653 144.179C61.9926 145.406 59.3093 143.995 60.0146 142.309C60.49 141.174 62.0847 141.036 63.0047 141.787C64.6147 143.275 65.0747 147.016 63.342 148.534C62.5753 149.209 60.8273 148.657 60.9347 147.599C61.088 146.188 63.6027 147.077 64.3847 147.752C65.044 148.319 65.5193 149.239 65.3813 150.144C65.3046 150.589 65.1053 151.003 64.8293 151.34C64.0626 152.291 62.146 153.103 61.3026 151.815C61.2566 151.754 61.226 151.677 61.2413 151.601C61.2566 151.493 61.364 151.447 61.456 151.417C62.8513 150.941 64.5073 151.478 65.4733 152.628C66.4393 153.778 66.7613 155.373 66.378 156.814C66.1787 157.55 65.7953 158.209 65.2587 158.715C64.814 159.129 64.124 159.666 63.526 159.758C62.698 159.881 62.2533 159.022 62.376 158.24C62.4987 157.458 63.112 156.753 63.802 156.523C65.4273 155.986 66.6387 157.504 67.114 159.007C67.1907 159.221 67.252 159.451 67.298 159.681C68.08 162.564 65.3507 165.217 63.6947 163.484C62.928 162.671 64.3387 162.227 64.906 162.365C65.872 162.579 66.9147 163.499 67.4207 164.389C68.2027 165.769 67.85 167.333 66.654 168.299C65.872 168.789 64.8447 168.544 64.1853 167.946C63.526 167.348 64.1853 166.121 65.0133 166.474C67.7273 167.563 68.724 171.948 65.4273 173.236C64.3846 173.65 62.652 172.776 62.4526 171.549C62.1306 169.617 64.538 170.721 65.1513 171.442C65.7647 172.163 66.1326 173.144 66.0866 174.125C65.9946 176.073 64.4767 177.483 62.7287 177.621" stroke="#262929" stroke-width="0.37" stroke-miterlimit="10"/>
<path d="M66.8227 -41.6914C68.0493 -40.4341 69.7207 -37.9041 67.7733 -36.4168C66.93 -35.7728 65.2127 -36.1408 65.458 -37.5821C65.7493 -39.1921 67.666 -38.5941 68.356 -37.7354C69.6287 -36.1868 69.782 -33.1201 68.7393 -31.3721C67.8807 -29.9307 65.7033 -30.0841 65.5193 -31.9854C65.32 -34.0554 67.8193 -35.1134 69.2147 -33.9327C70.3953 -32.9207 70.8707 -30.8814 70.5027 -29.3634C70.2267 -28.2134 69.4447 -27.1708 68.402 -26.7414C67.5433 -26.3888 66.286 -26.5268 66.01 -27.6461C65.964 -27.8454 65.964 -28.0448 66.0253 -28.2288C66.3933 -29.1488 67.7427 -28.6581 68.3407 -28.3207C69.3527 -27.7381 70.15 -26.6188 70.0733 -25.3308C69.9507 -23.4908 68.0493 -22.1721 66.4087 -22.4634C65.8567 -22.5554 65.688 -23.3221 66.1327 -23.6747C67.7887 -24.9934 71.024 -23.6441 71.1927 -21.2061C71.3613 -18.6914 68.9233 -16.6981 66.5773 -16.7748C65.7187 -16.8054 65.412 -17.9861 66.1327 -18.4768C66.7153 -18.8601 67.5433 -18.9674 68.0647 -18.4614C70.0273 -15.7781 67.85 -10.6721 65.044 -8.92409C64.3233 -8.46409 63.48 -9.33809 63.8787 -10.1354C65.3507 -13.1868 71.3 -11.4081 69.23 -5.13676C68.7393 -3.89476 67.528 -2.66809 66.3473 -3.15876C64.7527 -3.81809 65.7647 -6.90009 67.482 -6.79276C71.208 -5.90343 70.932 -0.751426 68.3713 1.05791C67.5433 1.64057 66.792 1.16524 66.8073 0.429242C66.8687 -1.70209 70.472 -2.33076 71.2387 1.07324C71.668 3.75657 69.966 7.26791 67.4513 8.03457C66.1173 8.35657 64.4767 7.31391 64.5533 5.84191C65.5807 2.10057 70.9473 4.32391 69.2607 10.0126C68.9693 11.1932 68.448 12.4352 67.4207 12.9566C66.8533 13.2479 66.1173 13.1559 65.596 12.8033C64.9827 12.3893 65.3047 11.3312 66.0253 11.3926C67.7273 11.5459 69.3373 13.2939 69.138 15.1646C68.954 16.8513 67.3747 18.0933 65.826 18.1393C64.998 18.1546 64.768 16.9279 65.55 16.6212C67.0067 16.0386 68.954 16.6673 69.506 18.2773C70.058 19.8873 69.0307 21.6506 67.62 22.2639C66.8533 22.6012 66.3167 21.3746 67.0527 20.9759C69.1993 19.8106 72.5113 23.0613 69.6593 27.0633C69.23 27.6613 68.3407 27.5386 68.126 26.8179V26.7719C67.896 26.0359 68.586 25.3459 69.276 25.5913C71.8213 26.4806 74.3053 29.2559 72.2967 31.8626C71.2233 33.0126 68.8927 32.2612 68.954 30.6359C69.0153 28.7346 72.0053 28.5353 72.91 30.1759C74.5813 32.2306 71.2847 39.5293 69.0613 36.6466C68.7547 35.7419 69.7973 34.8219 70.6713 35.0519C71.5453 35.2819 72.1127 36.1866 72.3887 37.0913C73.5693 40.1426 70.6253 43.3319 68.632 41.4613C68.0953 40.9553 68.126 40.0506 68.7087 39.5906C71.484 37.3673 74.0907 44.6046 70.8553 46.5059C69.9967 46.9813 68.8007 46.4293 68.4173 45.6013C68.218 45.1413 68.6473 44.6506 69.0767 44.8653C72.4193 46.4753 72.0973 51.7346 68.9387 53.1146C67.8653 53.5899 66.7767 52.3326 67.344 51.2593C68.1873 49.6186 71.2847 49.7566 71.99 52.8079C72.7413 54.8319 71.116 58.8953 69.1993 59.9533C67.4667 60.9193 65.964 58.2053 67.574 56.9939C67.9727 56.7026 68.448 56.5339 68.9233 56.5799C72.9713 57.1319 73.0327 65.0286 69.5827 64.2926C68.9693 64.1699 69.0613 63.1886 69.6747 63.2039C71.484 63.2346 73.4007 65.4886 72.6187 67.4666C72.22 68.4786 71.208 69.0612 70.242 69.2452C69.5367 69.3832 68.218 69.3986 67.988 68.4633C67.8193 67.7886 68.356 67.2059 68.9693 67.2366C70.9167 67.3439 72.0973 69.8893 71.944 71.7293C71.806 73.4466 70.7173 75.2099 69.184 75.6086C68.08 75.8999 66.7153 74.7346 68.034 73.0633C68.6167 72.3119 69.644 71.8519 70.5333 72.2199C74.1827 74.5813 71.6987 78.9206 68.402 80.1013C67.758 80.3313 67.206 79.5493 67.5893 78.9513C68.8773 76.9886 72.818 78.3992 72.0053 83.1526C71.8827 83.9192 71.7293 84.6553 71.1773 85.2073C70.242 86.1426 68.7853 85.6979 68.6013 84.3026C68.494 83.5052 68.77 82.7079 69.46 82.2939C70.0887 81.9259 70.84 81.8339 71.4993 82.1099C72.3887 82.4779 73.094 83.3213 73.508 84.2259C73.784 84.8393 73.9373 85.5139 73.9987 86.1733C74.06 86.8326 74.106 87.5686 73.9527 88.2126C73.6767 89.3473 73.0173 90.5739 71.9287 90.9879C70.8093 91.4173 69.506 90.7426 69.3373 89.4239C69.2453 88.6419 69.5827 87.9059 70.196 87.4766C72.0667 86.1579 74.1367 88.1666 74.4587 90.1446C74.612 91.1566 74.3513 92.0766 73.7073 92.8432C73.462 93.1346 73.14 93.3952 72.7873 93.5026C72.4347 93.6099 72.0207 93.5639 71.714 93.3339C71.4073 93.1039 71.254 92.6593 71.3613 92.2759C71.484 91.8773 71.8673 91.6473 72.2353 91.5399C74.0753 91.0033 75.8387 92.5673 76.0073 94.5146C76.13 95.9406 75.348 97.1366 74.1673 97.7346C73.9833 97.8266 73.784 97.9033 73.5847 97.9799C71.7447 98.5933 71.2847 95.6646 72.9407 95.0513C75.7467 94.5146 76.314 98.4706 75.2713 100.587C74.566 102.657 72.1587 104.067 70.8247 102.887C69.4907 101.706 72.2967 99.5133 73.7533 100.464C76.176 102.181 75.3327 107.349 72.7413 108.529C71.806 108.913 69.8127 109.02 69.6133 107.962C69.4907 107.303 70.242 106.827 70.748 107.241C74.336 110.109 72.1587 117.852 67.7733 116.671C66.6693 116.38 66.9453 115.199 68.2027 114.509C69.46 113.819 70.932 114.141 71.6833 115.199C72.2047 115.935 72.496 116.84 72.634 117.745C72.772 118.649 72.91 119.738 72.634 120.643C72.4347 121.317 71.852 121.823 71.1773 121.731C69.7513 121.532 69.3527 119.615 70.104 118.496C71.1927 116.855 73.3547 118.143 74.1673 119.431C74.934 120.627 74.9033 122.207 74.5967 123.556C74.428 124.323 74.1673 125.657 73.2013 125.595C72.2967 125.534 72.0053 124.43 72.5573 123.74C73.1553 122.989 74.2287 123.249 74.8573 123.801C75.5167 124.384 75.9613 125.319 75.946 126.239C75.8847 128.355 73.0633 133.139 70.7787 132.955C69.0153 132.802 68.9233 129.981 70.6867 129.797C72.2047 129.643 74.1213 131.391 72.7107 135.102C70.8093 139.472 67.758 136.482 69.69 134.949C70.3647 134.427 71.2847 134.366 72.0053 134.826C74.0447 136.099 74.9953 139.963 73.2627 141.68C71.99 142.907 69.3067 141.496 70.012 139.809C70.4873 138.675 72.082 138.537 73.002 139.288C74.612 140.775 75.072 144.517 73.3393 146.035C72.5727 146.709 70.8247 146.157 70.932 145.099C71.0853 143.689 73.6 144.578 74.382 145.253C75.0413 145.82 75.5167 146.74 75.3787 147.645C75.302 148.089 75.1027 148.503 74.8267 148.841C74.06 149.791 72.1433 150.604 71.3 149.316C71.254 149.255 71.2233 149.178 71.2387 149.101C71.254 148.994 71.3613 148.948 71.4533 148.917C72.8487 148.442 74.5047 148.979 75.4707 150.129C76.406 151.233 76.7587 152.873 76.3753 154.315C76.176 155.051 75.7927 155.71 75.256 156.216C74.8113 156.63 74.1213 157.167 73.5233 157.259C72.6953 157.381 72.2507 156.523 72.3733 155.741C72.496 154.959 73.1093 154.253 73.7993 154.023C75.4247 153.487 76.636 155.005 77.1113 156.507C77.188 156.722 77.2493 156.952 77.2953 157.182C78.0773 160.065 75.348 162.717 73.692 160.985C72.9253 160.172 74.336 159.727 74.9033 159.865C75.8693 160.08 76.912 161 77.418 161.889C78.2 163.269 77.8473 164.833 76.6513 165.799C75.8693 166.29 74.842 166.045 74.1827 165.447C73.5233 164.849 74.1827 163.622 75.0107 163.975C77.7247 165.063 78.7213 169.449 75.4247 170.737C74.382 171.151 72.6493 170.277 72.45 169.05C72.128 167.118 74.5353 168.222 75.1487 168.943C75.762 169.663 76.13 170.645 76.084 171.626C75.992 173.573 74.474 174.984 72.726 175.122" stroke="#262929" stroke-width="0.37" stroke-miterlimit="10"/>
<path d="M75.8233 -41.6914C77.05 -40.4341 78.7213 -37.9041 76.774 -36.4168C75.9307 -35.7728 74.2133 -36.1408 74.4587 -37.5821C74.75 -39.1921 76.6667 -38.5941 77.3567 -37.7354C78.6293 -36.1868 78.7827 -33.1201 77.74 -31.3721C76.8813 -29.9307 74.704 -30.0841 74.52 -31.9854C74.3207 -34.0554 76.82 -35.1134 78.2153 -33.9327C79.396 -32.9207 79.8713 -30.8814 79.5033 -29.3634C79.2273 -28.2134 78.4453 -27.1708 77.4027 -26.7414C76.544 -26.3888 75.2867 -26.5268 75.0107 -27.6461C74.9647 -27.8454 74.9647 -28.0448 75.026 -28.2288C75.394 -29.1488 76.7433 -28.6581 77.3413 -28.3207C78.3533 -27.7381 79.1507 -26.6188 79.074 -25.3308C78.9513 -23.4908 77.05 -22.1721 75.4093 -22.4634C74.8573 -22.5554 74.6887 -23.3221 75.1333 -23.6747C76.7893 -24.9934 80.0247 -23.6441 80.1933 -21.2061C80.362 -18.7681 77.924 -16.6981 75.578 -16.7748C74.7193 -16.8054 74.4127 -17.9861 75.1333 -18.4768C75.716 -18.8601 76.544 -18.9674 77.0653 -18.4614C79.028 -15.7781 76.8507 -10.6721 74.0447 -8.92409C73.324 -8.46409 72.4807 -9.33809 72.8793 -10.1354C74.3513 -13.1868 80.3007 -11.4081 78.2307 -5.13676C77.74 -3.89476 76.5287 -2.66809 75.348 -3.15876C73.7533 -3.81809 74.7653 -6.90009 76.4827 -6.79276C80.2087 -5.90343 79.9327 -0.751426 77.372 1.05791C76.544 1.64057 75.7927 1.16524 75.808 0.429242C75.8693 -1.70209 79.4727 -2.33076 80.2393 1.07324C80.6687 3.75657 78.9667 7.26791 76.452 8.03457C75.118 8.35657 73.4773 7.31391 73.554 5.84191C74.5813 2.10057 79.948 4.32391 78.2613 10.0126C77.97 11.1932 77.4487 12.4352 76.4213 12.9566C75.854 13.2479 75.118 13.1559 74.5967 12.8033C73.9833 12.3893 74.3053 11.3312 75.026 11.3926C76.728 11.5459 78.338 13.2939 78.1387 15.1646C77.9547 16.8513 76.3753 18.0933 74.8267 18.1393C73.9987 18.1546 73.7687 16.9279 74.5507 16.6212C76.0073 16.0386 77.9547 16.6673 78.5067 18.2773C79.0587 19.8566 78.0313 21.6506 76.6207 22.2639C75.854 22.6012 75.3173 21.3746 76.0533 20.9759C78.2 19.8106 81.512 23.0613 78.66 27.0633C78.2307 27.6613 77.3413 27.5386 77.1267 26.8179V26.7719C76.8967 26.0359 77.5867 25.3459 78.2767 25.5913C80.822 26.4806 83.306 29.2559 81.2973 31.8626C80.224 33.0126 77.8933 32.2612 77.9547 30.6359C78.016 28.7346 81.006 28.5353 81.9107 30.1759C83.582 32.2306 80.2853 39.5293 78.062 36.6466C77.7553 35.7419 78.798 34.8219 79.672 35.0519C80.546 35.2819 81.1133 36.1866 81.3893 37.0913C82.57 40.1426 79.626 43.3319 77.6327 41.4613C77.096 40.9553 77.1267 40.0506 77.7093 39.5906C80.4847 37.3673 83.0913 44.6046 79.856 46.5059C78.9973 46.9813 77.8013 46.4293 77.418 45.6013C77.2187 45.1413 77.648 44.6506 78.0773 44.8653C81.42 46.4753 81.098 51.7346 77.9393 53.1146C76.866 53.5899 75.7773 52.3326 76.3447 51.2593C77.188 49.6186 80.2853 49.7566 80.9907 52.8079C81.742 54.8319 80.1167 58.8953 78.2 59.9533C76.4673 60.9193 74.9647 58.2053 76.5747 56.9939C76.9733 56.7026 77.4487 56.5339 77.924 56.5799C81.972 57.1319 82.0333 65.0286 78.5833 64.2926C77.97 64.1699 78.062 63.1886 78.6753 63.2039C80.4847 63.2346 82.4013 65.4886 81.6193 67.4666C81.2207 68.4786 80.2087 69.0612 79.2427 69.2452C78.5373 69.3832 77.2187 69.3986 76.9887 68.4633C76.82 67.7886 77.3567 67.2059 77.97 67.2366C79.9173 67.3439 81.098 69.8893 80.9447 71.7293C80.8067 73.4466 79.718 75.2099 78.1847 75.6086C77.0807 75.8999 75.716 74.7346 77.0347 73.0633C77.6173 72.3119 78.6447 71.8519 79.534 72.2199C83.1833 74.5813 80.6993 78.9206 77.4027 80.1013C76.7587 80.3313 76.2067 79.5493 76.59 78.9513C77.878 76.9886 81.8187 78.3992 81.006 83.1526C80.8833 83.9192 80.73 84.6553 80.178 85.2073C79.2427 86.1426 77.786 85.6979 77.602 84.3026C77.4947 83.5052 77.7707 82.7079 78.4607 82.2939C79.0893 81.9259 79.8407 81.8339 80.5 82.1099C81.3893 82.4779 82.0947 83.3213 82.5087 84.2259C82.7847 84.8393 82.938 85.5139 82.9993 86.1733C83.0607 86.8326 83.1067 87.5686 82.9533 88.2126C82.6773 89.3473 82.018 90.5739 80.9293 90.9879C79.81 91.4173 78.5067 90.7426 78.338 89.4239C78.246 88.6419 78.5833 87.9059 79.1967 87.4766C81.0673 86.1579 83.1373 88.1666 83.4593 90.1446C83.6127 91.1566 83.352 92.0766 82.708 92.8432C82.4627 93.1346 82.1407 93.3952 81.788 93.5026C81.4353 93.6099 81.0213 93.5639 80.7147 93.3339C80.408 93.1039 80.2547 92.6593 80.362 92.2759C80.4847 91.8773 80.868 91.6473 81.236 91.5399C83.076 91.0033 84.8393 92.5673 85.008 94.5146C85.1307 95.9406 84.3487 97.1366 83.168 97.7346C82.984 97.8266 82.7847 97.9033 82.5853 97.9799C80.7453 98.5933 80.2853 95.6646 81.9413 95.0513C84.7473 94.5146 85.3147 98.4706 84.272 100.587C83.5667 102.657 81.1593 104.067 79.8253 102.887C78.5067 101.737 81.2973 99.5133 82.754 100.464C85.1767 102.181 84.3333 107.349 81.742 108.529C80.8067 108.913 78.8133 109.02 78.614 107.962C78.4913 107.303 79.2427 106.827 79.7487 107.241C83.3367 110.109 81.1593 117.852 76.774 116.671C75.67 116.38 75.946 115.199 77.2033 114.509C78.4607 113.819 79.9327 114.141 80.684 115.199C81.2053 115.935 81.4967 116.84 81.6347 117.745C81.7727 118.649 81.9107 119.738 81.6347 120.643C81.4353 121.317 80.8527 121.823 80.178 121.731C78.752 121.532 78.3533 119.615 79.1047 118.496C80.1933 116.855 82.3553 118.143 83.168 119.431C83.9347 120.627 83.904 122.207 83.5973 123.556C83.4287 124.323 83.168 125.657 82.202 125.595C81.2973 125.534 81.006 124.43 81.558 123.74C82.156 122.989 83.2293 123.249 83.858 123.801C84.5173 124.384 84.962 125.319 84.9467 126.239C84.8853 128.355 82.064 133.139 79.7793 132.955C78.016 132.802 77.924 129.981 79.6873 129.797C81.2053 129.643 83.122 131.391 81.7113 135.102C79.81 139.472 76.7587 136.482 78.6907 134.949C79.3653 134.427 80.2853 134.366 81.006 134.826C83.0453 136.099 83.996 139.963 82.2633 141.68C80.9907 142.907 78.3073 141.496 79.0127 139.809C79.488 138.675 81.0827 138.537 82.0027 139.288C83.6127 140.775 84.0727 144.517 82.34 146.035C81.5733 146.709 79.8253 146.157 79.9327 145.099C80.086 143.689 82.6007 144.578 83.3827 145.253C84.042 145.82 84.5173 146.74 84.3793 147.645C84.3027 148.089 84.1033 148.503 83.8273 148.841C83.0607 149.791 81.144 150.604 80.3007 149.316C80.2547 149.255 80.224 149.178 80.2393 149.101C80.2547 148.994 80.362 148.948 80.454 148.917C81.8493 148.442 83.5053 148.979 84.4713 150.129C85.4373 151.279 85.7593 152.873 85.376 154.315C85.1767 155.051 84.7933 155.71 84.2567 156.216C83.812 156.63 83.122 157.167 82.524 157.259C81.696 157.381 81.2513 156.523 81.374 155.741C81.4967 154.959 82.11 154.253 82.8 154.023C84.4253 153.487 85.6367 155.005 86.112 156.507C86.1887 156.722 86.25 156.952 86.296 157.182C87.078 160.065 84.3487 162.717 82.6927 160.985C81.926 160.172 83.3367 159.727 83.904 159.865C84.87 160.08 85.9127 161 86.4187 161.889C87.2007 163.269 86.848 164.833 85.652 165.799C84.87 166.29 83.8427 166.045 83.1833 165.447C82.524 164.849 83.1833 163.622 84.0113 163.975C86.7253 165.063 87.722 169.449 84.4253 170.737C83.3827 171.151 81.65 170.277 81.4507 169.05C81.1287 167.118 83.536 168.222 84.1493 168.943C84.7627 169.663 85.1307 170.645 85.0847 171.626C84.9927 173.573 83.4747 174.984 81.7267 175.122" stroke="#262929" stroke-width="0.37" stroke-miterlimit="10"/>
<path d="M85.3148 -41.6914C86.5414 -40.4341 88.2127 -37.9041 86.2654 -36.4168C85.4221 -35.7728 83.7048 -36.1408 83.9501 -37.5821C84.2414 -39.1921 86.1581 -38.5941 86.8481 -37.7354C88.1208 -36.1868 88.2741 -33.1201 87.2314 -31.3721C86.3728 -29.9307 84.1954 -30.0841 84.0114 -31.9854C83.8121 -34.0554 86.3114 -35.1134 87.7068 -33.9327C88.8874 -32.9207 89.3628 -30.8814 88.9948 -29.3634C88.7188 -28.2134 87.9367 -27.1708 86.8941 -26.7414C86.0354 -26.3888 84.7781 -26.5268 84.5021 -27.6461C84.4561 -27.8454 84.4561 -28.0448 84.5174 -28.2288C84.8854 -29.1488 86.2348 -28.6581 86.8328 -28.3207C87.8448 -27.7381 88.6421 -26.6188 88.5654 -25.3308C88.4427 -23.4908 86.5414 -22.1721 84.9008 -22.4634C84.3488 -22.5554 84.1801 -23.3221 84.6248 -23.6747C86.2808 -24.9934 89.5161 -23.6441 89.6848 -21.2061C89.8534 -18.6914 87.4154 -16.6981 85.0694 -16.7748C84.2108 -16.8054 83.9041 -17.9861 84.6248 -18.4768C85.2074 -18.8601 86.0354 -18.9674 86.5568 -18.4614C88.5194 -15.7781 86.3421 -10.6721 83.5361 -8.92409C82.8154 -8.46409 81.9721 -9.33809 82.3708 -10.1354C83.8428 -13.1868 89.7921 -11.4081 87.7221 -5.13676C87.2314 -3.89476 86.0201 -2.66809 84.8394 -3.15876C83.2448 -3.81809 84.2568 -6.90009 85.9741 -6.79276C89.7001 -5.90343 89.4241 -0.751426 86.8634 1.05791C86.0354 1.64057 85.2841 1.16524 85.2994 0.429242C85.3608 -1.70209 88.9641 -2.33076 89.7308 1.07324C90.1601 3.75657 88.4581 7.26791 85.9434 8.03457C84.6094 8.35657 82.9688 7.31391 83.0454 5.84191C84.0728 2.10057 89.4394 4.32391 87.7528 10.0126C87.4614 11.1932 86.9401 12.4352 85.9128 12.9566C85.3454 13.2479 84.6094 13.1559 84.0881 12.8033C83.4748 12.3893 83.7968 11.3312 84.5174 11.3926C86.2194 11.5459 87.8294 13.2939 87.6301 15.1646C87.4461 16.8513 85.8668 18.0933 84.3181 18.1393C83.4901 18.1546 83.2601 16.9279 84.0421 16.6212C85.4988 16.0386 87.4461 16.6673 87.9981 18.2773C88.5501 19.8873 87.5228 21.6506 86.1121 22.2639C85.3454 22.6012 84.8088 21.3746 85.5448 20.9759C87.6914 19.8106 91.0034 23.0613 88.1514 27.0633C87.7221 27.6613 86.8328 27.5386 86.6181 26.8179V26.7719C86.3881 26.0359 87.0781 25.3459 87.7681 25.5913C90.3134 26.4806 92.7974 29.2559 90.7888 31.8626C89.7154 33.0126 87.3848 32.2612 87.4461 30.6359C87.5074 28.7346 90.4974 28.5353 91.4021 30.1759C93.0734 32.2306 89.7768 39.5293 87.5534 36.6466C87.2468 35.7419 88.2894 34.8219 89.1634 35.0519C90.0374 35.2819 90.6048 36.1866 90.8808 37.0913C92.0614 40.1426 89.1174 43.3319 87.1241 41.4613C86.5874 40.9553 86.6181 40.0506 87.2008 39.5906C89.9761 37.3673 92.5828 44.6046 89.3474 46.5059C88.4888 46.9813 87.2928 46.4293 86.9094 45.6013C86.7101 45.1413 87.1394 44.6506 87.5688 44.8653C90.9114 46.4753 90.5894 51.7346 87.4308 53.1146C86.3574 53.5899 85.2688 52.3326 85.8361 51.2593C86.6794 49.6186 89.7767 49.7566 90.4821 52.8079C91.2334 54.8319 89.6081 58.8953 87.6914 59.9533C85.9588 60.9193 84.4561 58.2053 86.0661 56.9939C86.4648 56.7026 86.9401 56.5339 87.4154 56.5799C91.4634 57.1319 91.5248 65.0286 88.0748 64.2926C87.4614 64.1699 87.5534 63.1886 88.1668 63.2039C89.9761 63.2346 91.8927 65.4886 91.1107 67.4666C90.7121 68.4786 89.7001 69.0612 88.7341 69.2452C88.0288 69.3832 86.7101 69.3986 86.4801 68.4633C86.3114 67.7886 86.8481 67.2059 87.4614 67.2366C89.4088 67.3439 90.5894 69.8893 90.4361 71.7293C90.2981 73.4466 89.2094 75.2099 87.6761 75.6086C86.5721 75.8999 85.2074 74.7346 86.5261 73.0633C87.1088 72.3119 88.1361 71.8519 89.0254 72.2199C92.6748 74.5813 90.1907 78.9206 86.8941 80.1013C86.2501 80.3313 85.6981 79.5493 86.0814 78.9513C87.3694 76.9886 91.3101 78.3992 90.4974 83.1526C90.3748 83.9192 90.2214 84.6553 89.6694 85.2073C88.7341 86.1426 87.2774 85.6979 87.0934 84.3026C86.9861 83.5052 87.2621 82.7079 87.9521 82.2939C88.5808 81.9259 89.3321 81.8339 89.9914 82.1099C90.8808 82.4779 91.5861 83.3213 92.0001 84.2259C92.2761 84.8393 92.4294 85.5139 92.4908 86.1733C92.5521 86.8326 92.5981 87.5686 92.4448 88.2126C92.1688 89.3473 91.5094 90.5739 90.4208 90.9879C89.3014 91.4173 87.9981 90.7426 87.8294 89.4239C87.7374 88.6419 88.0748 87.9059 88.6881 87.4766C90.5588 86.1579 92.6288 88.1666 92.9508 90.1446C93.1041 91.1566 92.8434 92.0766 92.1994 92.8432C91.9541 93.1346 91.6321 93.3952 91.2794 93.5026C90.9268 93.6099 90.5128 93.5639 90.2061 93.3339C89.8994 93.1039 89.7461 92.6593 89.8534 92.2759C89.9761 91.8773 90.3594 91.6473 90.7274 91.5399C92.5674 91.0033 94.3308 92.5673 94.4994 94.5146C94.6221 95.9406 93.8401 97.1366 92.6594 97.7346C92.4754 97.8266 92.2761 97.9033 92.0768 97.9799C90.2368 98.5933 89.7768 95.6646 91.4328 95.0513C94.2388 94.5146 94.8061 98.4706 93.7634 100.587C93.0581 102.657 90.6508 104.067 89.3168 102.887C87.9981 101.737 90.7888 99.5133 92.2454 100.464C94.6681 102.181 93.8248 107.349 91.2334 108.529C90.2981 108.913 88.3048 109.02 88.1054 107.962C87.9828 107.303 88.7341 106.827 89.2401 107.241C92.8281 110.109 90.6507 117.852 86.2654 116.671C85.1614 116.38 85.4374 115.199 86.6948 114.509C87.9521 113.819 89.4241 114.141 90.1754 115.199C90.6968 115.935 90.9881 116.84 91.1261 117.745C91.2641 118.649 91.4021 119.738 91.1261 120.643C90.9268 121.317 90.3441 121.823 89.6694 121.731C88.2434 121.532 87.8448 119.615 88.5961 118.496C89.6848 116.855 91.8468 118.143 92.6594 119.431C93.4261 120.627 93.3954 122.207 93.0888 123.556C92.9201 124.323 92.6594 125.657 91.6934 125.595C90.7888 125.534 90.4974 124.43 91.0494 123.74C91.6474 122.989 92.7208 123.249 93.3494 123.801C94.0088 124.384 94.4534 125.319 94.4381 126.239C94.3768 128.355 91.5554 133.139 89.2708 132.955C87.5074 132.802 87.4154 129.981 89.1788 129.797C90.6968 129.643 92.6134 131.391 91.2028 135.102C89.3014 139.472 86.2501 136.482 88.1821 134.949C88.8567 134.427 89.7768 134.366 90.4974 134.826C92.5368 136.099 93.4874 139.963 91.7548 141.68C90.4821 142.907 87.7988 141.496 88.5041 139.809C88.9794 138.675 90.5741 138.537 91.4941 139.288C93.1041 140.775 93.5641 144.517 91.8314 146.035C91.0648 146.709 89.3168 146.157 89.4241 145.099C89.5774 143.689 92.0921 144.578 92.8741 145.253C93.5334 145.82 94.0088 146.74 93.8708 147.645C93.7941 148.089 93.5948 148.503 93.3188 148.841C92.5521 149.791 90.6354 150.604 89.7921 149.316C89.7461 149.255 89.7154 149.178 89.7308 149.101C89.7461 148.994 89.8534 148.948 89.9454 148.917C91.3408 148.442 92.9968 148.979 93.9628 150.129C94.8981 151.233 95.2508 152.873 94.8674 154.315C94.6681 155.051 94.2848 155.71 93.7481 156.216C93.3034 156.63 92.6134 157.167 92.0154 157.259C91.1874 157.381 90.7427 156.523 90.8654 155.741C90.9881 154.959 91.6014 154.253 92.2914 154.023C93.9167 153.487 95.1281 155.005 95.6034 156.507C95.6801 156.722 95.7414 156.952 95.7874 157.182C96.5694 160.065 93.8401 162.717 92.1841 160.985C91.4174 160.172 92.8281 159.727 93.3954 159.865C94.3614 160.08 95.4041 161 95.9101 161.889C96.6921 163.269 96.3394 164.833 95.1434 165.799C94.3614 166.29 93.3341 166.045 92.6748 165.447C92.0154 164.849 92.6748 163.622 93.5028 163.975C96.2168 165.063 97.2134 169.449 93.9168 170.737C92.8741 171.151 91.1414 170.277 90.9421 169.05C90.6201 167.118 93.0274 168.222 93.6408 168.943C94.2541 169.663 94.6221 170.645 94.5761 171.626C94.4841 173.573 92.9661 174.984 91.2181 175.122" stroke="#262929" stroke-width="0.37" stroke-miterlimit="10"/>
<path d="M95.312 -42.6881C96.5387 -41.4308 98.21 -38.9008 96.2627 -37.4134C95.4193 -36.7694 93.702 -37.1374 93.9473 -38.5788C94.2387 -40.1888 96.1553 -39.5908 96.8453 -38.7321C98.118 -37.1835 98.2713 -34.1168 97.2287 -32.3688C96.37 -30.9275 94.1927 -31.0808 94.0087 -32.9821C93.8093 -35.0521 96.3087 -36.1101 97.704 -34.9295C98.8847 -33.9175 99.36 -31.8781 98.992 -30.3601C98.716 -29.2101 97.934 -28.1675 96.8913 -27.7381C96.0327 -27.3855 94.7753 -27.5235 94.4993 -28.6428C94.4533 -28.8421 94.4533 -29.0414 94.5147 -29.2254C94.8827 -30.1454 96.232 -29.6548 96.83 -29.3175C97.842 -28.7348 98.6393 -27.6154 98.5627 -26.3274C98.44 -24.4874 96.5387 -23.1688 94.898 -23.4601C94.346 -23.5521 94.1773 -24.3188 94.622 -24.6715C96.278 -25.9901 99.5133 -24.6408 99.682 -22.2028C99.8507 -19.7648 97.4127 -17.6948 95.0667 -17.7714C94.208 -17.8021 93.9013 -18.9828 94.622 -19.4734C95.2047 -19.8568 96.0327 -19.9641 96.554 -19.4581C98.5167 -16.7748 96.3393 -11.6688 93.5333 -9.92079C92.8127 -9.46079 91.9693 -10.3348 92.368 -11.1321C93.84 -14.1834 99.7893 -12.4048 97.7193 -6.13347C97.2287 -4.89147 96.0173 -3.66479 94.8367 -4.15546C93.242 -4.81479 94.254 -7.89679 95.9713 -7.78946C99.6973 -6.90014 99.4213 -1.74812 96.8607 0.0612033C96.0327 0.643869 95.2813 0.168534 95.2967 -0.567466C95.358 -2.6988 98.9613 -3.32746 99.728 0.0765355C100.157 2.75987 98.4553 6.27121 95.9407 7.03786C94.6067 7.35986 92.966 6.3172 93.0427 4.8452C94.07 1.10387 99.4367 3.3272 97.75 9.01587C97.4587 10.1965 96.9373 11.4385 95.91 11.9599C95.3427 12.2512 94.6067 12.1592 94.0853 11.8066C93.472 11.3925 93.794 10.3345 94.5147 10.3959C96.2167 10.5492 97.8267 12.2972 97.6273 14.1679C97.4433 15.8546 95.864 17.0966 94.3153 17.1426C93.4873 17.1579 93.2573 15.9312 94.0393 15.6245C95.496 15.0419 97.4433 15.6706 97.9953 17.2806C98.5473 18.8906 97.52 20.6539 96.1093 21.2672C95.3427 21.6045 94.806 20.3779 95.542 19.9792C97.6887 18.8139 101.001 22.0646 98.1487 26.0666C97.7193 26.6646 96.83 26.5419 96.6153 25.8212V25.7752C96.3853 25.0392 97.0753 24.3492 97.7653 24.5946C100.311 25.4839 102.795 28.2592 100.786 30.8659C99.7127 32.0159 97.382 31.2645 97.4433 29.6392C97.5047 27.7379 100.495 27.5386 101.399 29.1792C103.071 31.2339 99.774 38.5326 97.5507 35.6499C97.244 34.7452 98.2867 33.8252 99.1607 34.0552C100.035 34.2852 100.602 35.1899 100.878 36.0946C102.059 39.1459 99.1147 42.3352 97.1213 40.4646C96.5847 39.9586 96.6153 39.0539 97.198 38.5939C99.9733 36.3706 102.58 43.6079 99.3447 45.5092C98.486 45.9846 97.29 45.4326 96.9067 44.6046C96.7073 44.1446 97.1367 43.6539 97.566 43.8686C100.909 45.4786 100.587 50.7379 97.428 52.1179C96.3547 52.5932 95.266 51.3359 95.8333 50.2626C96.6767 48.6219 99.774 48.7599 100.479 51.8112C101.231 53.8352 99.6053 57.8986 97.6887 58.9566C95.956 59.9226 94.4533 57.2086 96.0633 55.9972C96.462 55.7059 96.9373 55.5372 97.4127 55.5832C101.461 56.1352 101.522 64.0319 98.072 63.2959C97.4587 63.1732 97.5507 62.1919 98.164 62.2072C99.9733 62.2379 101.89 64.4919 101.108 66.4699C100.709 67.4819 99.6973 68.0646 98.7313 68.2486C98.026 68.3866 96.7073 68.4019 96.4773 67.4665C96.3087 66.7919 96.8453 66.2092 97.4587 66.2399C99.406 66.3472 100.587 68.8926 100.433 70.7326C100.295 72.4499 99.2067 74.2132 97.6733 74.6119C96.5693 74.9032 95.2047 73.7379 96.5233 72.0665C97.106 71.3152 98.1333 70.8552 99.0227 71.2232C102.672 73.5846 100.188 77.9239 96.8913 79.1046C96.2473 79.3346 95.6953 78.5526 96.0787 77.9546C97.3667 75.9919 101.307 77.4026 100.495 82.1559C100.372 82.9226 100.219 83.6585 99.6667 84.2105C98.7313 85.1459 97.2747 84.7012 97.0907 83.3059C96.9833 82.5086 97.2593 81.7112 97.9493 81.2972C98.578 80.9292 99.3293 80.8372 99.9887 81.1132C100.878 81.4812 101.583 82.3245 101.997 83.2292C102.273 83.8425 102.427 84.5172 102.488 85.1766C102.549 85.8359 102.595 86.5719 102.442 87.2159C102.166 88.3506 101.507 89.5772 100.418 89.9912C99.2987 90.4206 97.9953 89.7459 97.8267 88.4272C97.7347 87.6452 98.072 86.9092 98.6853 86.4799C100.556 85.1612 102.626 87.1699 102.948 89.1479C103.101 90.1599 102.841 91.0799 102.197 91.8466C101.951 92.1379 101.629 92.3986 101.277 92.5059C100.924 92.6132 100.51 92.5672 100.203 92.3372C99.8967 92.1072 99.7433 91.6625 99.8507 91.2792C99.9733 90.8805 100.357 90.6506 100.725 90.5432C102.565 90.0066 104.328 91.5706 104.497 93.5179C104.619 94.9439 103.837 96.1399 102.657 96.7379C102.473 96.8299 102.273 96.9065 102.074 96.9832C100.234 97.5965 99.774 94.6679 101.43 94.0546C104.236 93.5179 104.803 97.4739 103.761 99.5899C103.055 101.66 100.648 103.07 99.314 101.89C97.98 100.709 100.786 98.5166 102.243 99.4672C104.665 101.185 103.822 106.352 101.231 107.533C100.295 107.916 98.302 108.023 98.1027 106.965C97.98 106.306 98.7313 105.831 99.2373 106.245C102.825 109.112 100.648 116.855 96.2627 115.675C95.1587 115.383 95.4347 114.202 96.692 113.512C97.9493 112.822 99.4213 113.145 100.173 114.203C100.694 114.939 100.985 115.843 101.123 116.748C101.261 117.653 101.399 118.741 101.123 119.646C100.924 120.321 100.341 120.827 99.6667 120.735C98.2407 120.535 97.842 118.619 98.5933 117.499C99.682 115.859 101.844 117.147 102.657 118.435C103.423 119.631 103.393 121.21 103.086 122.559C102.917 123.326 102.657 124.66 101.691 124.599C100.786 124.537 100.495 123.433 101.047 122.743C101.645 121.992 102.718 122.253 103.347 122.805C104.006 123.387 104.451 124.323 104.435 125.243C104.374 127.359 101.553 132.143 99.268 131.959C97.5047 131.805 97.4127 128.984 99.176 128.8C100.694 128.647 102.611 130.395 101.2 134.105C99.2987 138.475 96.2473 135.485 98.1793 133.952C98.854 133.431 99.774 133.369 100.495 133.829C102.534 135.102 103.485 138.966 101.752 140.683C100.479 141.91 97.796 140.499 98.5013 138.813C98.9767 137.678 100.571 137.54 101.491 138.291C103.101 139.779 103.561 143.52 101.829 145.038C101.062 145.713 99.314 145.161 99.4213 144.103C99.5747 142.692 102.089 143.581 102.871 144.256C103.531 144.823 104.006 145.743 103.868 146.648C103.791 147.093 103.592 147.507 103.316 147.844C102.549 148.795 100.633 149.607 99.7893 148.319C99.7433 148.258 99.7127 148.181 99.728 148.105C99.7433 147.997 99.8507 147.951 99.9427 147.921C101.338 147.445 102.994 147.982 103.96 149.132C104.926 150.282 105.248 151.877 104.865 153.318C104.665 154.054 104.282 154.713 103.745 155.219C103.301 155.633 102.611 156.17 102.013 156.262C101.185 156.385 100.74 155.526 100.863 154.744C100.985 153.962 101.599 153.257 102.289 153.027C103.914 152.49 105.125 154.008 105.601 155.511C105.677 155.725 105.739 155.955 105.785 156.185C106.567 159.068 103.837 161.721 102.181 159.988C101.415 159.175 102.825 158.731 103.393 158.869C104.359 159.083 105.401 160.003 105.907 160.893C106.689 162.273 106.337 163.837 105.141 164.803C104.359 165.293 103.331 165.048 102.672 164.45C102.013 163.852 102.672 162.625 103.5 162.978C106.214 164.067 107.211 168.452 103.914 169.74C102.871 170.154 101.139 169.28 100.939 168.053C100.617 166.121 103.025 167.225 103.638 167.946C104.251 168.667 104.619 169.648 104.573 170.629C104.481 172.577 102.963 173.987 101.215 174.125" stroke="#262929" stroke-width="0.37" stroke-miterlimit="10"/>
<path d="M104.803 -35.696C106.03 -34.4387 107.701 -31.9087 105.754 -30.4214C104.911 -29.7774 103.193 -30.1454 103.439 -31.5867C103.73 -33.1967 105.647 -32.5987 106.337 -31.74C107.609 -30.1914 107.763 -27.1247 106.72 -25.3767C105.861 -23.9354 103.684 -24.0887 103.5 -25.99C103.301 -28.06 105.8 -29.118 107.195 -27.9374C108.376 -26.9254 108.851 -24.886 108.483 -23.368C108.207 -22.218 107.425 -21.1754 106.383 -20.746C105.524 -20.3934 104.267 -20.5314 103.991 -21.6507C103.945 -21.85 103.945 -22.0494 104.006 -22.2334C104.374 -23.1534 105.723 -22.6627 106.321 -22.3254C107.333 -21.7427 108.131 -20.6234 108.054 -19.3354C107.931 -17.4954 106.03 -16.1767 104.389 -16.468C103.837 -16.56 103.669 -17.3267 104.113 -17.6794C105.769 -18.998 109.005 -17.6487 109.173 -15.2107C109.342 -12.7727 106.904 -10.7027 104.558 -10.7794C103.699 -10.81 103.393 -11.9907 104.113 -12.4814C104.696 -12.8647 105.524 -12.972 106.045 -12.466C108.008 -9.78272 105.831 -4.67672 103.025 -2.92872C102.304 -2.46872 101.461 -3.34272 101.859 -4.14005C103.331 -7.19137 109.281 -5.41272 107.211 0.858621C106.72 2.10063 105.509 3.32728 104.328 2.83662C102.733 2.17728 103.745 -0.904713 105.463 -0.79738C109.189 0.0919537 108.913 5.24395 106.352 7.05328C105.524 7.63595 104.773 7.16063 104.788 6.42463C104.849 4.29329 108.453 3.66462 109.219 7.06862C109.649 9.75195 107.947 13.2633 105.432 14.03C104.098 14.352 102.457 13.3093 102.534 11.8373C103.561 8.09596 108.928 10.3193 107.241 16.008C106.95 17.1886 106.429 18.4306 105.401 18.952C104.834 19.2433 104.098 19.1513 103.577 18.7986C102.963 18.3846 103.285 17.3266 104.006 17.388C105.708 17.5413 107.318 19.2893 107.119 21.16C106.935 22.8466 105.355 24.0886 103.807 24.1346C102.979 24.15 102.749 22.9233 103.531 22.6166C104.987 22.034 106.935 22.6626 107.487 24.2726C108.039 25.8826 107.011 27.646 105.601 28.2593C104.834 28.5966 104.297 27.37 105.033 26.9713C107.18 25.806 110.492 29.0566 107.64 33.0586C107.211 33.6566 106.321 33.534 106.107 32.8133V32.7673C105.877 32.0313 106.567 31.3413 107.257 31.5866C109.802 32.476 112.286 35.2513 110.277 37.858C109.204 39.008 106.873 38.2566 106.935 36.6313C106.996 34.73 109.986 34.5306 110.891 36.1713C112.562 38.226 109.265 45.5246 107.042 42.642C106.735 41.7373 107.778 40.8173 108.652 41.0473C109.526 41.2773 110.093 42.182 110.369 43.0866C111.55 46.138 108.606 49.3273 106.613 47.4566C106.076 46.9506 106.107 46.046 106.689 45.586C109.465 43.3626 112.071 50.6 108.836 52.5013C107.977 52.9766 106.781 52.4246 106.398 51.5966C106.199 51.1366 106.628 50.646 107.057 50.8606C110.4 52.4706 110.078 57.73 106.919 59.11C105.846 59.5853 104.757 58.328 105.325 57.2546C106.168 55.614 109.265 55.752 109.971 58.8033C110.722 60.8273 109.097 64.8906 107.18 65.9486C105.447 66.9146 103.945 64.2006 105.555 62.9893C105.953 62.698 106.429 62.5293 106.904 62.5753C110.952 63.1273 111.013 71.024 107.563 70.288C106.95 70.1653 107.042 69.184 107.655 69.1993C109.465 69.23 111.381 71.484 110.599 73.462C110.201 74.474 109.189 75.0566 108.223 75.2406C107.517 75.3786 106.199 75.394 105.969 74.4586C105.8 73.784 106.337 73.2013 106.95 73.232C108.897 73.3393 110.078 75.8846 109.925 77.7246C109.787 79.442 108.698 81.2053 107.165 81.604C106.061 81.8953 104.696 80.73 106.015 79.0586C106.597 78.3073 107.625 77.8473 108.514 78.2153C112.163 80.5766 109.679 84.916 106.383 86.0966C105.739 86.3266 105.187 85.5446 105.57 84.9466C106.858 82.984 110.799 84.3946 109.986 89.148C109.863 89.9146 109.71 90.6506 109.158 91.2026C108.223 92.138 106.766 91.6933 106.582 90.298C106.475 89.5006 106.751 88.7033 107.441 88.2893C108.069 87.9213 108.821 87.8293 109.48 88.1053C110.369 88.4733 111.075 89.3166 111.489 90.2213C111.765 90.8346 111.918 91.5093 111.979 92.1686C112.041 92.828 112.087 93.564 111.933 94.208C111.657 95.3426 110.998 96.5693 109.909 96.9833C108.79 97.4126 107.487 96.738 107.318 95.4193C107.226 94.6373 107.563 93.9013 108.177 93.472C110.047 92.1533 112.117 94.162 112.439 96.14C112.593 97.152 112.332 98.072 111.688 98.8386C111.443 99.13 111.121 99.3906 110.768 99.498C110.415 99.6053 110.001 99.5593 109.695 99.3293C109.388 99.0993 109.235 98.6546 109.342 98.2713C109.465 97.8726 109.848 97.6426 110.216 97.5353C112.056 96.9986 113.819 98.5626 113.988 100.51C114.111 101.936 113.329 103.132 112.148 103.73C111.964 103.822 111.765 103.899 111.565 103.975C109.725 104.589 109.265 101.66 110.921 101.047C113.727 100.51 114.295 104.466 113.252 106.582C112.547 108.652 110.139 110.063 108.805 108.882C107.471 107.701 110.277 105.509 111.734 106.459C114.157 108.177 113.313 113.344 110.722 114.525C109.787 114.908 107.793 115.015 107.594 113.957C107.471 113.298 108.223 112.823 108.729 113.237C112.317 116.104 110.139 123.847 105.754 122.667C104.65 122.375 104.926 121.195 106.183 120.505C107.441 119.815 108.913 120.137 109.664 121.195C110.185 121.931 110.477 122.835 110.615 123.74C110.753 124.645 110.891 125.733 110.615 126.638C110.415 127.313 109.833 127.819 109.158 127.727C107.732 127.527 107.333 125.611 108.085 124.491C109.173 122.851 111.335 124.139 112.148 125.427C112.915 126.623 112.884 128.202 112.577 129.551C112.409 130.318 112.148 131.652 111.182 131.591C110.277 131.529 109.986 130.425 110.538 129.735C111.136 128.984 112.209 129.245 112.838 129.797C113.497 130.379 113.942 131.315 113.927 132.235C113.865 134.351 111.044 139.135 108.759 138.951C106.996 138.797 106.904 135.976 108.667 135.792C110.185 135.639 112.102 137.387 110.691 141.097C108.79 145.467 105.739 142.477 107.671 140.944C108.345 140.423 109.265 140.361 109.986 140.821C112.025 142.094 112.976 145.958 111.243 147.675C109.971 148.902 107.287 147.491 107.993 145.805C108.468 144.67 110.063 144.532 110.983 145.283C112.593 146.771 113.053 150.512 111.32 152.03C110.553 152.705 108.805 152.153 108.913 151.095C109.066 149.684 111.581 150.573 112.363 151.248C113.022 151.815 113.497 152.735 113.359 153.64C113.283 154.085 113.083 154.499 112.807 154.836C112.041 155.787 110.124 156.599 109.281 155.311C109.235 155.25 109.204 155.173 109.219 155.097C109.235 154.989 109.342 154.943 109.434 154.913C110.829 154.437 112.485 154.974 113.451 156.124C114.417 157.274 114.739 158.869 114.356 160.31C114.157 161.046 113.773 161.705 113.237 162.211C112.792 162.625 112.102 163.162 111.504 163.254C110.676 163.377 110.231 162.518 110.354 161.736C110.461 160.954 111.09 160.249 111.78 160.019C113.405 159.482 114.617 161 115.092 162.503C115.169 162.717 115.23 162.947 115.276 163.177C116.058 166.06 113.329 168.713 111.673 166.98C110.906 166.167 112.317 165.723 112.884 165.861C113.85 166.075 114.893 166.995 115.399 167.885C116.181 169.265 115.828 170.829 114.632 171.795C113.85 172.285 112.823 172.04 112.163 171.442C111.504 170.844 112.163 169.617 112.991 169.97C115.705 171.059 116.702 175.444 113.405 176.732C112.363 177.146 110.63 176.272 110.431 175.045C110.109 173.113 112.516 174.217 113.129 174.938C113.743 175.659 114.111 176.64 114.065 177.621C113.973 179.569 112.455 180.979 110.707 181.117" stroke="#262929" stroke-width="0.37" stroke-miterlimit="10"/>
<path d="M113.804 -42.6881C115.031 -41.4308 116.702 -38.9008 114.755 -37.4134C113.911 -36.7694 112.194 -37.1374 112.439 -38.5788C112.731 -40.1888 114.647 -39.5908 115.337 -38.7321C116.61 -37.1835 116.763 -34.1168 115.721 -32.3688C114.862 -30.9275 112.685 -31.0808 112.501 -32.9821C112.301 -35.0521 114.801 -36.1101 116.196 -34.9295C117.377 -33.9175 117.852 -31.8781 117.484 -30.3601C117.208 -29.2101 116.426 -28.1675 115.383 -27.7381C114.525 -27.3855 113.267 -27.5235 112.991 -28.6428C112.945 -28.8421 112.945 -29.0414 113.007 -29.2254C113.375 -30.1454 114.724 -29.6548 115.322 -29.3175C116.334 -28.7348 117.131 -27.6154 117.055 -26.3274C116.932 -24.4874 115.031 -23.1688 113.39 -23.4601C112.838 -23.5521 112.669 -24.3188 113.114 -24.6715C114.77 -25.9901 118.005 -24.6408 118.174 -22.2028C118.343 -19.6881 115.905 -17.6948 113.559 -17.7714C112.7 -17.8021 112.393 -18.9828 113.114 -19.4734C113.697 -19.8568 114.525 -19.9641 115.046 -19.4581C117.009 -16.7748 114.831 -11.6688 112.025 -9.92079C111.305 -9.46079 110.461 -10.3348 110.86 -11.1321C112.332 -14.1834 118.281 -12.4048 116.211 -6.13347C115.721 -4.89147 114.509 -3.66479 113.329 -4.15546C111.734 -4.81479 112.746 -7.89679 114.463 -7.78946C118.189 -6.90014 117.913 -1.74812 115.353 0.0612033C114.525 0.643869 113.773 0.168534 113.789 -0.567466C113.85 -2.6988 117.453 -3.32746 118.22 0.0765355C118.649 2.75987 116.947 6.27121 114.433 7.03786C113.099 7.35986 111.458 6.3172 111.535 4.8452C112.562 1.10387 117.929 3.3272 116.242 9.01587C115.951 10.1965 115.429 11.4385 114.402 11.9599C113.835 12.2512 113.099 12.1592 112.577 11.8066C111.964 11.3925 112.286 10.3345 113.007 10.3959C114.709 10.5492 116.319 12.2972 116.119 14.1679C115.935 15.8546 114.356 17.0966 112.807 17.1426C111.979 17.1579 111.749 15.9312 112.531 15.6245C113.988 15.0419 115.935 15.6706 116.487 17.2806C117.039 18.8599 116.012 20.6539 114.601 21.2672C113.835 21.6045 113.298 20.3779 114.034 19.9792C116.181 18.8139 119.493 22.0646 116.641 26.0666C116.211 26.6646 115.322 26.5419 115.107 25.8212V25.7752C114.877 25.0392 115.567 24.3492 116.257 24.5946C118.803 25.4839 121.287 28.2592 119.278 30.8659C118.205 32.0159 115.874 31.2645 115.935 29.6392C115.997 27.7379 118.987 27.5386 119.891 29.1792C121.563 31.2339 118.266 38.5326 116.043 35.6499C115.736 34.7452 116.779 33.8252 117.653 34.0552C118.527 34.2852 119.094 35.1899 119.37 36.0946C120.551 39.1459 117.607 42.3352 115.613 40.4646C115.077 39.9586 115.107 39.0539 115.69 38.5939C118.465 36.3706 121.072 43.6079 117.837 45.5092C116.978 45.9846 115.782 45.4326 115.399 44.6046C115.199 44.1446 115.629 43.6539 116.058 43.8686C119.401 45.4786 119.079 50.7379 115.92 52.1179C114.847 52.5932 113.758 51.3359 114.325 50.2626C115.169 48.6219 118.266 48.7599 118.971 51.8112C119.723 53.8352 118.097 57.8986 116.181 58.9566C114.448 59.9226 112.945 57.2086 114.555 55.9972C114.954 55.7059 115.429 55.5372 115.905 55.5832C119.953 56.1352 120.014 64.0319 116.564 63.2959C115.951 63.1732 116.043 62.1919 116.656 62.2072C118.465 62.2379 120.382 64.4919 119.6 66.4699C119.201 67.4819 118.189 68.0646 117.223 68.2486C116.518 68.3866 115.199 68.4019 114.969 67.4665C114.801 66.7919 115.337 66.2092 115.951 66.2399C117.898 66.3472 119.079 68.8926 118.925 70.7326C118.787 72.4499 117.699 74.2132 116.165 74.6119C115.061 74.9032 113.697 73.7379 115.015 72.0665C115.598 71.3152 116.625 70.8552 117.515 71.2232C121.164 73.5846 118.68 77.9239 115.383 79.1046C114.739 79.3346 114.187 78.5526 114.571 77.9546C115.859 75.9919 119.799 77.4026 118.987 82.1559C118.864 82.9226 118.711 83.6585 118.159 84.2105C117.223 85.1459 115.767 84.7012 115.583 83.3059C115.475 82.5086 115.751 81.7112 116.441 81.2972C117.07 80.9292 117.821 80.8372 118.481 81.1132C119.37 81.4812 120.075 82.3245 120.489 83.2292C120.765 83.8425 120.919 84.5172 120.98 85.1766C121.041 85.8359 121.087 86.5719 120.934 87.2159C120.658 88.3506 119.999 89.5772 118.91 89.9912C117.791 90.4206 116.487 89.7459 116.319 88.4272C116.227 87.6452 116.564 86.9092 117.177 86.4799C119.048 85.1612 121.118 87.1699 121.44 89.1479C121.593 90.1599 121.333 91.0799 120.689 91.8466C120.443 92.1379 120.121 92.3986 119.769 92.5059C119.416 92.6132 119.002 92.5672 118.695 92.3372C118.389 92.1072 118.235 91.6625 118.343 91.2792C118.465 90.8805 118.849 90.6506 119.217 90.5432C121.057 90.0066 122.82 91.5706 122.989 93.5179C123.111 94.9439 122.329 96.1399 121.149 96.7379C120.965 96.8299 120.765 96.9065 120.566 96.9832C118.726 97.5965 118.266 94.6679 119.922 94.0546C122.728 93.5179 123.295 97.4739 122.253 99.5899C121.547 101.66 119.14 103.07 117.806 101.89C116.472 100.709 119.278 98.5166 120.735 99.4672C123.157 101.185 122.314 106.352 119.723 107.533C118.787 107.916 116.794 108.023 116.595 106.965C116.472 106.306 117.223 105.831 117.729 106.245C121.317 109.112 119.14 116.855 114.755 115.675C113.651 115.383 113.927 114.202 115.184 113.512C116.441 112.822 117.913 113.145 118.665 114.203C119.186 114.939 119.477 115.843 119.615 116.748C119.753 117.653 119.891 118.741 119.615 119.646C119.416 120.321 118.833 120.827 118.159 120.735C116.733 120.535 116.334 118.619 117.085 117.499C118.174 115.859 120.336 117.147 121.149 118.435C121.915 119.631 121.885 121.21 121.578 122.559C121.409 123.326 121.149 124.66 120.183 124.599C119.278 124.537 118.987 123.433 119.539 122.743C120.137 121.992 121.21 122.253 121.839 122.805C122.498 123.387 122.943 124.323 122.927 125.243C122.866 127.359 120.045 132.143 117.76 131.959C115.997 131.805 115.905 128.984 117.668 128.8C119.186 128.647 121.103 130.395 119.692 134.105C117.791 138.475 114.739 135.485 116.671 133.952C117.346 133.431 118.266 133.369 118.987 133.829C121.026 135.102 121.977 138.966 120.244 140.683C118.971 141.91 116.288 140.499 116.993 138.813C117.469 137.678 119.063 137.54 119.983 138.291C121.593 139.779 122.053 143.52 120.321 145.038C119.554 145.713 117.806 145.161 117.913 144.103C118.067 142.692 120.581 143.581 121.363 144.256C122.023 144.823 122.498 145.743 122.36 146.648C122.283 147.093 122.084 147.507 121.808 147.844C121.041 148.795 119.125 149.607 118.281 148.319C118.235 148.258 118.205 148.181 118.22 148.105C118.235 147.997 118.343 147.951 118.435 147.921C119.83 147.445 121.486 147.982 122.452 149.132C123.387 150.236 123.74 151.877 123.357 153.318C123.157 154.054 122.774 154.713 122.237 155.219C121.793 155.633 121.103 156.17 120.505 156.262C119.677 156.385 119.232 155.526 119.355 154.744C119.477 153.962 120.091 153.257 120.781 153.027C122.406 152.49 123.617 154.008 124.093 155.511C124.169 155.725 124.231 155.955 124.277 156.185C125.059 159.068 122.329 161.721 120.673 159.988C119.907 159.175 121.317 158.731 121.885 158.869C122.851 159.083 123.893 160.003 124.399 160.893C125.181 162.273 124.829 163.837 123.633 164.803C122.851 165.293 121.823 165.048 121.164 164.45C120.505 163.852 121.164 162.625 121.992 162.978C124.706 164.067 125.703 168.452 122.406 169.74C121.363 170.154 119.631 169.28 119.431 168.053C119.109 166.121 121.517 167.225 122.13 167.946C122.743 168.667 123.111 169.648 123.065 170.629C122.973 172.577 121.455 173.987 119.707 174.125" stroke="#262929" stroke-width="0.37" stroke-miterlimit="10"/>
<path d="M122.299 -42.6881C123.525 -41.4308 125.197 -38.9008 123.249 -37.4134C122.406 -36.7694 120.689 -37.1374 120.934 -38.5788C121.225 -40.1888 123.142 -39.5908 123.832 -38.7321C125.105 -37.1835 125.258 -34.1168 124.215 -32.3688C123.357 -30.9275 121.179 -31.0808 120.995 -32.9821C120.796 -35.0521 123.295 -36.1101 124.691 -34.9295C125.871 -33.9175 126.347 -31.8781 125.979 -30.3601C125.703 -29.2101 124.921 -28.1675 123.878 -27.7381C123.019 -27.3855 121.762 -27.5235 121.486 -28.6428C121.44 -28.8421 121.44 -29.0414 121.501 -29.2254C121.869 -30.1454 123.219 -29.6548 123.817 -29.3175C124.829 -28.7348 125.626 -27.6154 125.549 -26.3274C125.427 -24.4874 123.525 -23.1688 121.885 -23.4601C121.333 -23.5521 121.164 -24.3188 121.609 -24.6715C123.265 -25.9901 126.5 -24.6408 126.669 -22.2028C126.837 -19.7648 124.399 -17.6948 122.053 -17.7714C121.195 -17.8021 120.888 -18.9828 121.609 -19.4734C122.191 -19.8568 123.019 -19.9641 123.541 -19.4581C125.503 -16.7748 123.326 -11.6688 120.52 -9.92079C119.799 -9.46079 118.956 -10.3348 119.355 -11.1321C120.827 -14.1834 126.776 -12.4048 124.706 -6.13347C124.215 -4.89147 123.004 -3.66479 121.823 -4.15546C120.229 -4.81479 121.241 -7.89679 122.958 -7.78946C126.684 -6.90014 126.408 -1.74812 123.847 0.0612033C123.019 0.643869 122.268 0.168534 122.283 -0.567466C122.345 -2.6988 125.948 -3.32746 126.715 0.0765355C127.144 2.75987 125.442 6.27121 122.927 7.03786C121.593 7.35986 119.953 6.3172 120.029 4.8452C121.057 1.10387 126.423 3.3272 124.737 9.01587C124.445 10.1965 123.924 11.4385 122.897 11.9599C122.329 12.2512 121.593 12.1592 121.072 11.8066C120.459 11.3925 120.781 10.3345 121.501 10.3959C123.203 10.5492 124.813 12.2972 124.614 14.1679C124.43 15.8546 122.851 17.0966 121.302 17.1426C120.474 17.1579 120.244 15.9312 121.026 15.6245C122.483 15.0419 124.43 15.6706 124.982 17.2806C125.534 18.8906 124.507 20.6539 123.096 21.2672C122.329 21.6045 121.793 20.3779 122.529 19.9792C124.675 18.8139 127.987 22.0646 125.135 26.0666C124.706 26.6646 123.817 26.5419 123.602 25.8212V25.7752C123.372 25.0392 124.062 24.3492 124.752 24.5946C127.297 25.4839 129.781 28.2592 127.773 30.8659C126.699 32.0159 124.369 31.2645 124.43 29.6392C124.491 27.7379 127.481 27.5386 128.386 29.1792C130.057 31.2339 126.761 38.5326 124.537 35.6499C124.231 34.7452 125.273 33.8252 126.147 34.0552C127.021 34.2852 127.589 35.1899 127.865 36.0946C129.045 39.1459 126.101 42.3352 124.108 40.4646C123.571 39.9586 123.602 39.0539 124.185 38.5939C126.96 36.3706 129.567 43.6079 126.331 45.5092C125.473 45.9846 124.277 45.4326 123.893 44.6046C123.694 44.1446 124.123 43.6539 124.553 43.8686C127.895 45.4786 127.573 50.7379 124.415 52.1179C123.341 52.5932 122.253 51.3359 122.82 50.2626C123.663 48.6219 126.761 48.7599 127.466 51.8112C128.217 53.8352 126.592 57.8986 124.675 58.9566C122.943 59.9226 121.44 57.2086 123.05 55.9972C123.449 55.7059 123.924 55.5372 124.399 55.5832C128.447 56.1352 128.509 64.0319 125.059 63.2959C124.445 63.1732 124.537 62.1919 125.151 62.2072C126.96 62.2379 128.877 64.4919 128.095 66.4699C127.696 67.4819 126.684 68.0646 125.718 68.2486C125.013 68.3866 123.694 68.4019 123.464 67.4665C123.295 66.7919 123.832 66.2092 124.445 66.2399C126.393 66.3472 127.573 68.8926 127.42 70.7326C127.282 72.4499 126.193 74.2132 124.66 74.6119C123.556 74.9032 122.191 73.7379 123.51 72.0665C124.093 71.3152 125.12 70.8552 126.009 71.2232C129.659 73.5846 127.175 77.9239 123.878 79.1046C123.234 79.3346 122.682 78.5526 123.065 77.9546C124.353 75.9919 128.294 77.4026 127.481 82.1559C127.359 82.9226 127.205 83.6585 126.653 84.2105C125.718 85.1459 124.261 84.7012 124.077 83.3059C123.97 82.5086 124.246 81.7112 124.936 81.2972C125.565 80.9292 126.316 80.8372 126.975 81.1132C127.865 81.4812 128.57 82.3245 128.984 83.2292C129.26 83.8425 129.413 84.5172 129.475 85.1766C129.536 85.8359 129.582 86.5719 129.429 87.2159C129.153 88.3506 128.493 89.5772 127.405 89.9912C126.285 90.4206 124.982 89.7459 124.813 88.4272C124.721 87.6452 125.059 86.9092 125.672 86.4799C127.543 85.1612 129.613 87.1699 129.935 89.1479C130.088 90.1599 129.827 91.0799 129.183 91.8466C128.938 92.1379 128.616 92.3986 128.263 92.5059C127.911 92.6132 127.497 92.5672 127.19 92.3372C126.883 92.1072 126.73 91.6625 126.837 91.2792C126.96 90.8805 127.343 90.6506 127.711 90.5432C129.551 90.0066 131.315 91.5706 131.483 93.5179C131.606 94.9439 130.824 96.1399 129.643 96.7379C129.459 96.8299 129.26 96.9065 129.061 96.9832C127.221 97.5965 126.761 94.6679 128.417 94.0546C131.223 93.5179 131.79 97.4739 130.747 99.5899C130.042 101.66 127.635 103.07 126.301 101.89C124.967 100.709 127.773 98.5166 129.229 99.4672C131.652 101.185 130.809 106.352 128.217 107.533C127.282 107.916 125.289 108.023 125.089 106.965C124.967 106.306 125.718 105.831 126.224 106.245C129.812 109.112 127.635 116.855 123.249 115.675C122.145 115.383 122.421 114.202 123.679 113.512C124.936 112.822 126.408 113.145 127.159 114.203C127.681 114.939 127.972 115.843 128.11 116.748C128.248 117.653 128.386 118.741 128.11 119.646C127.911 120.321 127.328 120.827 126.653 120.735C125.227 120.535 124.829 118.619 125.58 117.499C126.669 115.859 128.831 117.147 129.643 118.435C130.41 119.631 130.379 121.21 130.073 122.559C129.904 123.326 129.643 124.66 128.677 124.599C127.773 124.537 127.481 123.433 128.033 122.743C128.631 121.992 129.705 122.253 130.333 122.805C130.993 123.387 131.437 124.323 131.422 125.243C131.361 127.359 128.539 132.143 126.255 131.959C124.491 131.805 124.399 128.984 126.163 128.8C127.681 128.647 129.597 130.395 128.187 134.105C126.285 138.475 123.234 135.485 125.166 133.952C125.841 133.431 126.761 133.369 127.481 133.829C129.521 135.102 130.471 138.966 128.739 140.683C127.466 141.91 124.783 140.499 125.488 138.813C125.963 137.678 127.558 137.54 128.478 138.291C130.088 139.779 130.548 143.52 128.815 145.038C128.049 145.713 126.301 145.161 126.408 144.103C126.561 142.692 129.076 143.581 129.858 144.256C130.517 144.823 130.993 145.743 130.855 146.648C130.778 147.093 130.579 147.507 130.303 147.844C129.536 148.795 127.619 149.607 126.776 148.319C126.73 148.258 126.699 148.181 126.715 148.105C126.73 147.997 126.837 147.951 126.929 147.921C128.325 147.445 129.981 147.982 130.947 149.132C131.913 150.282 132.235 151.877 131.851 153.318C131.652 154.054 131.269 154.713 130.732 155.219C130.287 155.633 129.597 156.17 128.999 156.262C128.171 156.385 127.727 155.526 127.849 154.744C127.972 153.962 128.585 153.257 129.275 153.027C130.901 152.49 132.112 154.008 132.587 155.511C132.664 155.725 132.725 155.955 132.771 156.185C133.553 159.068 130.824 161.721 129.168 159.988C128.401 159.175 129.812 158.731 130.379 158.869C131.345 159.083 132.388 160.003 132.894 160.893C133.676 162.273 133.323 163.837 132.127 164.803C131.345 165.293 130.318 165.048 129.659 164.45C128.999 163.852 129.659 162.625 130.487 162.978C133.201 164.067 134.197 168.452 130.901 169.74C129.858 170.154 128.125 169.28 127.926 168.053C127.604 166.121 130.011 167.225 130.625 167.946C131.238 168.667 131.606 169.648 131.56 170.629C131.468 172.577 129.95 173.987 128.202 174.125" stroke="#262929" stroke-width="0.37" stroke-miterlimit="10"/>
</g>
<rect x="0.5" y="0.5" width="137" height="137" rx="68.5" stroke="#6B6B6B"/>
<defs>
<clipPath id="clip0_6_61">
<rect width="138" height="138" rx="69" fill="white"/>
</clipPath>
</defs>
</svg>
