<svg width="138" height="138" viewBox="0 0 138 138" fill="none" xmlns="http://www.w3.org/2000/svg">
<g clip-path="url(#clip0_6_76)">
<path d="M8.7094 189.504C5.09073 185.978 5.1674 183.601 10.2887 182.988C8.67873 183.187 6.5014 177.1 6.9614 175.52C7.72807 172.868 11.8834 172.178 8.5254 167.946C8.2494 167.593 7.9274 167.271 7.6054 166.949C6.62407 165.983 5.65807 164.296 6.21007 162.87C6.74673 161.475 8.35673 160.862 8.60207 159.282C8.97007 156.906 6.2254 155.756 6.42473 153.824C6.6394 151.662 10.2274 152.091 9.2614 149.239C8.7554 147.752 7.4674 147.154 8.54073 145.774C9.1694 144.976 10.6261 144.976 11.5001 144.823C11.7301 144.777 11.9907 144.731 12.0521 144.378C12.0827 144.118 11.9601 143.872 11.7607 143.719C10.7334 142.983 9.8134 142.078 9.0314 141.051C8.5254 140.407 8.0654 139.64 8.7554 138.567C8.9394 138.291 9.18473 138.061 9.46073 137.877C13.2327 135.5 9.98207 136.098 8.26473 133.998C6.5474 131.897 8.78607 131.253 10.9327 129.919C6.10273 125.334 4.50807 127.435 11.5614 122.007C10.4727 120.152 6.2254 120.765 6.74673 117.76C12.3894 113.911 10.8407 112.669 7.36007 110.967C6.85407 110.722 6.8234 109.955 7.29873 109.664C18.8754 102.411 -1.19593 102.242 11.1321 97.5045C15.4101 93.0118 2.16207 94.2078 10.6567 88.1511C11.2854 87.7063 11.3467 86.7403 10.7947 86.2038C0.889397 76.3751 20.6387 83.5971 7.31407 72.7564C6.85407 72.3884 6.94607 71.6063 7.4674 71.3763C20.6387 65.4578 -4.09393 61.7778 9.7674 59.8611C11.4694 59.6311 10.4881 57.8371 9.87473 56.9325C9.13873 55.8745 5.91873 53.0223 6.57807 51.5043C7.03807 50.4311 9.82873 50.1398 10.7487 49.8331C11.5767 49.5571 8.2954 44.8651 6.85407 42.8258C6.48607 42.3043 6.67007 41.5685 7.20673 41.2925C7.6514 41.0778 8.1114 40.8938 8.5714 40.6945C9.38407 40.3265 10.1967 39.8511 10.6414 39.0383C12.6961 35.3278 4.72273 35.8645 5.87273 32.1538C6.33273 30.6511 8.05007 29.8691 8.77073 28.5198C9.36873 27.4158 9.09273 26.3118 8.35673 25.3763C-1.74794 13.8151 16.8974 25.0851 6.24073 7.94241C6.02607 7.58975 6.2254 7.11441 6.60873 7.06841C11.5614 6.31708 9.41473 1.5484 6.99207 -1.61027C6.76207 -1.9016 6.88473 -2.34625 7.2374 -2.46892C11.3927 -3.86425 8.41807 -5.78092 6.74673 -8.80159C6.1334 -12.0215 12.0521 -11.5309 9.93607 -14.5055C4.49273 -21.7582 12.4814 -20.8229 12.5734 -24.9782" stroke="#262929" stroke-width="0.37" stroke-miterlimit="10"/>
<path d="M16.698 186.499C13.0794 182.972 13.156 180.596 18.2774 179.982C16.6674 180.182 14.49 174.095 14.95 172.515C15.7167 169.863 19.872 169.172 16.514 164.94C16.238 164.588 15.916 164.266 15.594 163.944C14.6127 162.978 13.6467 161.291 14.1987 159.865C14.7354 158.47 16.3454 157.856 16.5907 156.277C16.9587 153.9 14.214 152.75 14.4134 150.818C14.628 148.656 18.216 149.086 17.25 146.234C16.744 144.746 15.456 144.148 16.5294 142.768C17.158 141.971 18.6147 141.971 19.4887 141.818C19.7187 141.772 19.9794 141.726 20.0407 141.373C20.0714 141.112 19.9487 140.867 19.7494 140.714C18.722 139.978 17.802 139.073 17.02 138.046C16.514 137.402 16.054 136.635 16.744 135.562C16.928 135.286 17.1734 135.056 17.4494 134.872C21.2214 132.495 17.9707 133.093 16.2534 130.992C14.6127 128.984 16.7747 128.248 18.9214 126.914C14.0914 122.329 12.4967 124.43 19.55 119.002C18.4614 117.146 14.214 117.76 14.7354 114.754C20.378 110.906 18.8294 109.664 15.3487 107.962C14.8427 107.716 14.812 106.95 15.2874 106.658C26.864 99.4058 6.79272 99.2372 19.1207 94.4992C23.3987 90.0065 10.1507 91.2025 18.6454 85.1458C19.274 84.7012 19.3354 83.7352 18.7834 83.1985C8.87805 73.3698 28.6274 80.5918 15.3027 69.7512C14.8427 69.3832 14.9347 68.6012 15.456 68.3712C28.6274 62.4525 3.89472 58.7725 17.756 56.8558C19.458 56.6258 18.4767 54.8318 17.8634 53.9272C17.1274 52.8692 13.9074 50.0172 14.5667 48.4992C15.0267 47.4258 17.8174 47.1345 18.7374 46.8278C19.5654 46.5518 16.284 41.8598 14.8427 39.8205C14.4747 39.2992 14.6587 38.5632 15.1954 38.2872C15.64 38.0725 16.1 37.8885 16.56 37.6892C17.3727 37.3212 18.1854 36.8458 18.63 36.0332C20.6847 32.3225 12.7114 32.8592 13.8614 29.1485C14.3214 27.6458 16.0387 26.8638 16.7594 25.5145C17.3574 24.4105 17.0814 23.3065 16.3454 22.3712C6.24072 10.8098 24.886 22.0798 14.2294 4.93715C14.0147 4.58448 14.214 4.10915 14.5974 4.06315C19.55 3.31182 17.4034 -1.45685 14.9807 -4.61552C14.7507 -4.90685 14.8734 -5.35152 15.226 -5.47418C19.3814 -6.86952 16.4067 -8.78618 14.7354 -11.8068C14.122 -15.0268 20.0407 -14.5362 17.9247 -17.5108C12.4814 -24.7635 20.47 -23.8282 20.562 -27.9835" stroke="#262929" stroke-width="0.37" stroke-miterlimit="10"/>
<path d="M25.1928 177.008C21.5741 173.481 21.6508 171.104 26.7721 170.491C25.1621 170.69 22.9848 164.603 23.4448 163.024C24.2114 160.371 28.3668 159.681 25.0088 155.449C24.7328 155.096 24.4108 154.774 24.0888 154.452C23.1074 153.486 22.1414 151.8 22.6934 150.374C23.2301 148.978 24.8401 148.365 25.0854 146.786C25.4534 144.409 22.7088 143.259 22.9081 141.327C23.1228 139.165 26.7108 139.594 25.7448 136.742C25.2388 135.255 23.9508 134.657 25.0241 133.277C25.6528 132.48 27.1094 132.48 27.9834 132.326C28.2134 132.28 28.4741 132.234 28.5354 131.882C28.5661 131.621 28.4434 131.376 28.2441 131.222C27.2168 130.486 26.2968 129.582 25.5148 128.554C25.0088 127.91 24.5488 127.144 25.2388 126.07C25.4228 125.794 25.6681 125.564 25.9441 125.38C29.7161 123.004 26.4654 123.602 24.7481 121.501C23.0308 119.4 25.2694 118.756 27.4161 117.422C22.5861 112.838 20.9914 114.938 28.0448 109.51C26.9561 107.655 22.7088 108.268 23.2301 105.263C28.8728 101.414 27.3241 100.172 23.8434 98.4704C23.3374 98.2251 23.3068 97.4583 23.7821 97.1671C35.3588 89.9143 15.2874 89.7456 27.6154 85.0076C31.8934 80.5151 18.6454 81.7111 27.1401 75.6543C27.7688 75.2096 27.8301 74.2436 27.2781 73.7071C17.3728 63.8783 37.1221 71.1004 23.7974 60.2596C23.3374 59.8916 23.4294 59.1098 23.9508 58.8798C37.1221 52.9611 12.3894 49.2811 26.2508 47.3643C27.9528 47.1343 26.9714 45.3403 26.3581 44.4356C25.6221 43.3776 22.4021 40.5256 23.0614 39.0078C23.5214 37.9343 26.3121 37.6431 27.2321 37.3363C28.0601 37.0603 24.7788 32.3683 23.3374 30.3291C22.9694 29.8078 23.1534 29.0718 23.6901 28.7958C24.1348 28.5811 24.5948 28.3971 25.0548 28.1978C25.8674 27.8298 26.6801 27.3543 27.1248 26.5416C29.1794 22.8311 21.2061 23.3678 22.3561 19.6571C22.8161 18.1543 24.5334 17.3723 25.2541 16.023C25.8521 14.9191 25.5761 13.8151 24.8401 12.8798C14.7354 1.31837 33.3808 12.5883 22.7241 -4.5543C22.5094 -4.90696 22.7088 -5.3823 23.0921 -5.4283C28.0448 -6.17963 25.8981 -10.9483 23.4754 -14.1069C23.2454 -14.3982 23.3681 -14.8429 23.7208 -14.9657C27.8761 -16.3609 24.9014 -18.2777 23.2301 -21.2982C22.6168 -24.5182 28.5354 -24.0277 26.4194 -27.0022C20.9761 -34.2549 28.9648 -33.3197 29.0568 -37.4749" stroke="#262929" stroke-width="0.37" stroke-miterlimit="10"/>
<path d="M33.1814 177.008C29.5628 173.481 29.6394 171.104 34.7608 170.491C33.1508 170.69 30.9734 164.603 31.4334 163.024C32.2001 160.371 36.3554 159.681 32.9974 155.449C32.7214 155.096 32.3994 154.774 32.0774 154.452C31.0961 153.486 30.1301 151.8 30.6821 150.374C31.2188 148.978 32.8288 148.365 33.0741 146.786C33.4421 144.409 30.6974 143.259 30.8968 141.327C31.1114 139.165 34.6994 139.594 33.7334 136.742C33.2274 135.255 31.9394 134.657 33.0128 133.277C33.6414 132.48 35.0981 132.48 35.9721 132.326C36.2021 132.28 36.4628 132.234 36.5241 131.882C36.5548 131.621 36.4321 131.376 36.2328 131.222C35.2054 130.486 34.2854 129.582 33.5034 128.554C32.9974 127.91 32.5374 127.144 33.2274 126.07C33.4114 125.794 33.6568 125.564 33.9328 125.38C37.7048 123.004 34.4541 123.602 32.7368 121.501C31.0194 119.4 33.2581 118.756 35.4048 117.422C30.5748 112.838 28.9801 114.938 36.0334 109.51C34.9448 107.655 30.6974 108.268 31.2188 105.263C36.8614 101.414 35.3128 100.172 31.8321 98.4704C31.3261 98.2251 31.2954 97.4583 31.7708 97.1671C43.3474 89.9143 23.2761 89.7456 35.6041 85.0076C39.8821 80.5151 26.6341 81.7111 35.1288 75.6543C35.7574 75.2096 35.8188 74.2436 35.2668 73.7071C25.3614 63.8783 45.1108 71.1004 31.7861 60.2596C31.3261 59.8916 31.4181 59.1098 31.9394 58.8798C45.1108 52.9611 20.3781 49.2811 34.2394 47.3643C35.9414 47.1343 34.9601 45.3403 34.3468 44.4356C33.6108 43.3776 30.3908 40.5256 31.0501 39.0078C31.5101 37.9343 34.3008 37.6431 35.2208 37.3363C36.0488 37.0603 32.7674 32.3683 31.3261 30.3291C30.9581 29.8078 31.1421 29.0718 31.6788 28.7958C32.1234 28.5811 32.5834 28.3971 33.0434 28.1978C33.8561 27.8298 34.6688 27.3543 35.1134 26.5416C37.1681 22.8311 29.1948 23.3678 30.3448 19.6571C30.8048 18.1543 32.5221 17.3723 33.2428 16.023C33.8408 14.9191 33.5648 13.8151 32.8288 12.8798C22.7241 1.31837 41.3694 12.5883 30.7128 -4.5543C30.4981 -4.90696 30.6974 -5.3823 31.0808 -5.4283C36.0334 -6.17963 33.8868 -10.9483 31.4641 -14.1069C31.2341 -14.3982 31.3568 -14.8429 31.7094 -14.9657C35.8648 -16.3609 32.8901 -18.2777 31.2188 -21.2982C30.6054 -24.5182 36.5241 -24.0277 34.4081 -27.0022C28.9648 -34.2549 36.9534 -33.3197 37.0454 -37.4749" stroke="#262929" stroke-width="0.37" stroke-miterlimit="10"/>
<path d="M40.6794 179.385C37.0608 175.858 37.1374 173.481 42.2588 172.868C40.6488 173.067 38.4714 166.98 38.9314 165.401C39.6981 162.748 43.8534 162.058 40.4954 157.826C40.2194 157.473 39.8974 157.151 39.5754 156.829C38.5941 155.863 37.6281 154.177 38.1801 152.751C38.7168 151.355 40.3268 150.742 40.5721 149.163C40.9401 146.786 38.1954 145.636 38.3948 143.704C38.6094 141.542 42.1974 141.971 41.2314 139.119C40.7254 137.632 39.4374 137.034 40.5108 135.654C41.1394 134.857 42.5961 134.857 43.4701 134.703C43.7001 134.657 43.9608 134.611 44.0221 134.259C44.0528 133.998 43.9301 133.753 43.7308 133.599C42.7034 132.863 41.7834 131.959 41.0014 130.931C40.4954 130.287 40.0354 129.521 40.7254 128.447C40.9094 128.171 41.1548 127.941 41.4308 127.757C45.2028 125.381 41.9521 125.979 40.2348 123.878C38.5174 121.777 40.7561 121.133 42.9028 119.799C38.0728 115.215 36.4781 117.315 43.5314 111.887C42.4428 110.032 38.1954 110.645 38.7168 107.64C44.3594 103.791 42.8108 102.549 39.3301 100.847C38.8241 100.602 38.7934 99.8353 39.2688 99.544C50.8454 92.2913 30.7741 92.1226 43.1021 87.3846C47.3801 82.892 34.1321 84.088 42.6268 78.0313C43.2554 77.5866 43.3168 76.6206 42.7648 76.084C32.8594 66.2553 52.6088 73.4773 39.2841 62.6366C38.8241 62.2686 38.9161 61.4866 39.4374 61.2566C52.6088 55.338 27.8761 51.658 41.7374 49.7413C43.4394 49.5113 42.4581 47.7173 41.8448 46.8126C41.1088 45.7546 37.8888 42.9026 38.5481 41.3846C39.0081 40.3113 41.7988 40.02 42.7188 39.7133C43.5468 39.4373 40.2654 34.7453 38.8241 32.706C38.4561 32.1846 38.6401 31.4486 39.1768 31.1726C39.6214 30.958 40.0814 30.774 40.5414 30.5746C41.3541 30.2066 42.1668 29.7313 42.6114 28.9186C44.6661 25.208 36.6928 25.7446 37.8428 22.034C38.3028 20.5313 40.0201 19.7493 40.7408 18.4C41.3388 17.296 41.0628 16.192 40.3268 15.2566C30.2221 3.6953 48.8674 14.9653 38.2108 -2.17737C37.9961 -2.53003 38.1954 -3.00537 38.5788 -3.05137C43.5314 -3.8027 41.3848 -8.57136 38.9621 -11.73C38.7321 -12.0214 38.8548 -12.466 39.2074 -12.5887C43.3628 -13.984 40.3881 -15.9007 38.7168 -18.9214C38.1034 -22.1414 44.0221 -21.6507 41.9061 -24.6254C36.4628 -31.878 44.4514 -30.9427 44.5434 -35.098" stroke="#262929" stroke-width="0.37" stroke-miterlimit="10"/>
<path d="M48.6834 176.395C45.0647 172.868 45.1414 170.491 50.2627 169.878C48.6527 170.077 46.4754 163.99 46.9354 162.411C47.7021 159.758 51.8574 159.068 48.4994 154.836C48.2234 154.483 47.9014 154.161 47.5794 153.839C46.5981 152.873 45.6321 151.187 46.1841 149.761C46.7207 148.365 48.3307 147.752 48.5761 146.173C48.9441 143.796 46.1994 142.646 46.3987 140.714C46.6134 138.552 50.2014 138.981 49.2354 136.129C48.7294 134.642 47.4414 134.044 48.5147 132.664C49.1434 131.867 50.6001 131.867 51.4741 131.713C51.7041 131.667 51.9647 131.621 52.0261 131.269C52.0567 131.008 51.9341 130.763 51.7347 130.609C50.7074 129.873 49.7874 128.969 49.0054 127.941C48.4994 127.297 48.0394 126.531 48.7294 125.457C48.9134 125.181 49.1587 124.951 49.4347 124.767C53.2067 122.391 49.9561 122.989 48.2387 120.888C46.5214 118.787 48.7601 118.143 50.9067 116.809C46.0767 112.224 44.4821 114.325 51.5354 108.897C50.4467 107.042 46.1994 107.655 46.7207 104.65C52.3634 100.801 50.8147 99.5592 47.3341 97.8572C46.8281 97.6119 46.7974 96.8452 47.2727 96.5539C58.8494 89.3012 38.7781 89.1325 51.1061 84.3945C55.3841 79.9019 42.1361 81.0979 50.6307 75.0412C51.2594 74.5965 51.3207 73.6305 50.7687 73.0939C40.8634 63.2652 60.6127 70.4872 47.2881 59.6465C46.8281 59.2785 46.9201 58.4965 47.4414 58.2665C60.6127 52.3479 35.8801 48.6679 49.7414 46.7512C51.4434 46.5212 50.4621 44.7272 49.8487 43.8225C49.1127 42.7645 45.8927 39.9125 46.5521 38.3945C47.0121 37.3212 49.8027 37.0299 50.7227 36.7232C51.5507 36.4472 48.2694 31.7552 46.8281 29.7159C46.4601 29.1945 46.6441 28.4585 47.1807 28.1825C47.6254 27.9679 48.0854 27.7839 48.5454 27.5845C49.3581 27.2165 50.1707 26.7412 50.6154 25.9285C52.6701 22.2179 44.6967 22.7545 45.8467 19.0439C46.3067 17.5412 48.0241 16.7592 48.7447 15.4099C49.3427 14.3059 49.0667 13.2019 48.3307 12.2665C38.2261 0.705189 56.8714 11.9752 46.2147 -5.16748C46.0001 -5.52015 46.1994 -5.99548 46.5827 -6.04148C51.5354 -6.79282 49.3887 -11.5615 46.9661 -14.7201C46.7361 -15.0115 46.8587 -15.4561 47.2114 -15.5788C51.3667 -16.9741 48.3921 -18.8908 46.7207 -21.9115C46.1074 -25.1315 52.0261 -24.6408 49.9101 -27.6155C44.4667 -34.8681 52.4554 -33.9328 52.5474 -38.0881" stroke="#262929" stroke-width="0.37" stroke-miterlimit="10"/>
<path d="M57.1781 166.903C53.5595 163.376 53.6361 161 58.7574 160.386C57.1474 160.586 54.9701 154.498 55.4301 152.919C56.1968 150.266 60.3521 149.576 56.9941 145.344C56.7181 144.992 56.3961 144.67 56.0741 144.348C55.0928 143.382 54.1268 141.695 54.6788 140.269C55.2154 138.874 56.8255 138.26 57.0708 136.681C57.4388 134.304 54.6941 133.154 54.8934 131.222C55.1081 129.06 58.6961 129.49 57.7301 126.638C57.2241 125.15 55.9361 124.552 57.0094 123.172C57.6381 122.375 59.0948 122.375 59.9688 122.222C60.1988 122.176 60.4595 122.13 60.5208 121.777C60.5515 121.516 60.4288 121.271 60.2294 121.118C59.2021 120.382 58.2821 119.477 57.5001 118.45C56.9941 117.806 56.5341 117.039 57.2241 115.966C57.4081 115.69 57.6534 115.46 57.9294 115.276C61.7014 112.899 58.4508 113.497 56.7334 111.396C55.0161 109.296 57.2548 108.652 59.4015 107.318C54.5715 102.733 52.9768 104.834 60.0301 99.4058C58.9415 97.5505 54.6941 98.1638 55.2154 95.1585C60.8581 91.3098 59.3094 90.0678 55.8288 88.3658C55.3228 88.1205 55.2921 87.3538 55.7674 87.0625C67.3441 79.8098 47.2728 79.6411 59.6008 74.9031C63.8788 70.4105 50.6308 71.6065 59.1255 65.5498C59.7541 65.1051 59.8155 64.1391 59.2635 63.6025C49.3581 53.7738 69.1075 60.9958 55.7828 50.1551C55.3228 49.7871 55.4148 49.0051 55.9361 48.7751C69.1074 42.8565 44.3748 39.1765 58.2361 37.2598C59.9381 37.0298 58.9568 35.2358 58.3434 34.3311C57.6074 33.2731 54.3875 30.4211 55.0468 28.9031C55.5068 27.8298 58.2974 27.5385 59.2174 27.2318C60.0454 26.9558 56.7641 22.2638 55.3228 20.2245C54.9548 19.7031 55.1388 18.9671 55.6755 18.6911C56.1201 18.4765 56.5801 18.2925 57.0401 18.0931C57.8528 17.7251 58.6654 17.2498 59.1101 16.4371C61.1648 12.7265 53.1914 13.2631 54.3414 9.55243C54.8014 8.04977 56.5188 7.26776 57.2395 5.91843C57.8375 4.81443 57.5615 3.71043 56.8255 2.7751C46.7208 -8.78623 65.3661 2.48377 54.7094 -14.6589C54.4948 -15.0115 54.6941 -15.4869 55.0774 -15.5329C60.0301 -16.2842 57.8834 -21.0529 55.4608 -24.2115C55.2308 -24.5029 55.3535 -24.9475 55.7061 -25.0702C59.8615 -26.4655 56.8868 -28.3822 55.2154 -31.4029C54.6021 -34.6229 60.5208 -34.1322 58.4048 -37.1069C52.9614 -44.3595 60.9501 -43.4242 61.0421 -47.5795" stroke="#262929" stroke-width="0.37" stroke-miterlimit="10"/>
<path d="M65.1668 166.903C61.5481 163.376 61.6248 161 66.7461 160.386C65.1361 160.586 62.9588 154.498 63.4188 152.919C64.1854 150.266 68.3408 149.576 64.9828 145.344C64.7068 144.992 64.3848 144.67 64.0628 144.348C63.0814 143.382 62.1154 141.695 62.6674 140.269C63.2041 138.874 64.8141 138.26 65.0594 136.681C65.4274 134.304 62.6828 133.154 62.8821 131.222C63.0968 129.06 66.6848 129.49 65.7188 126.638C65.2128 125.15 63.9248 124.552 64.9981 123.172C65.6268 122.375 67.0834 122.375 67.9574 122.222C68.1874 122.176 68.4481 122.13 68.5094 121.777C68.5401 121.516 68.4174 121.271 68.2181 121.118C67.1908 120.382 66.2708 119.477 65.4888 118.45C64.9828 117.806 64.5228 117.039 65.2128 115.966C65.3968 115.69 65.6421 115.46 65.9181 115.276C69.6901 112.899 66.4394 113.497 64.7221 111.396C63.0048 109.296 65.2434 108.652 67.3901 107.318C62.5601 102.733 60.9654 104.834 68.0188 99.4058C66.9301 97.5505 62.6828 98.1638 63.2041 95.1585C68.8468 91.3098 67.2981 90.0678 63.8174 88.3658C63.3114 88.1205 63.2808 87.3538 63.7561 87.0625C75.3328 79.8098 55.2614 79.6411 67.5894 74.9031C71.8674 70.4105 58.6194 71.6065 67.1141 65.5498C67.7428 65.1051 67.8041 64.1391 67.2521 63.6025C57.3468 53.7738 77.0961 60.9958 63.7714 50.1551C63.3114 49.7871 63.4034 49.0051 63.9248 48.7751C77.0961 42.8565 52.3634 39.1765 66.2248 37.2598C67.9268 37.0298 66.9454 35.2358 66.3321 34.3311C65.5961 33.2731 62.3761 30.4211 63.0354 28.9031C63.4954 27.8298 66.2861 27.5385 67.2061 27.2318C68.0341 26.9558 64.7528 22.2638 63.3114 20.2245C62.9434 19.7031 63.1274 18.9671 63.6641 18.6911C64.1088 18.4765 64.5688 18.2925 65.0288 18.0931C65.8414 17.7251 66.6541 17.2498 67.0988 16.4371C69.1534 12.7265 61.1801 13.2631 62.3301 9.55243C62.7901 8.04977 64.5074 7.26776 65.2281 5.91843C65.8261 4.81443 65.5501 3.71043 64.8141 2.7751C54.7094 -8.78623 73.3548 2.48377 62.6981 -14.6589C62.4834 -15.0115 62.6828 -15.4869 63.0661 -15.5329C68.0188 -16.2842 65.8721 -21.0529 63.4494 -24.2115C63.2194 -24.5029 63.3421 -24.9475 63.6948 -25.0702C67.8501 -26.4655 64.8754 -28.3822 63.2041 -31.4029C62.5908 -34.6229 68.5094 -34.1322 66.3934 -37.1069C60.9501 -44.3595 68.9388 -43.4242 69.0308 -47.5795" stroke="#262929" stroke-width="0.37" stroke-miterlimit="10"/>
<path d="M72.6647 190.946C69.046 187.419 69.1227 185.043 74.244 184.429C72.634 184.629 70.4567 178.541 70.9167 176.962C71.6833 174.309 75.8387 173.619 72.4807 169.387C72.2047 169.035 71.8827 168.713 71.5607 168.391C70.5793 167.425 69.6133 165.738 70.1653 164.312C70.702 162.917 72.312 162.303 72.5573 160.724C72.9253 158.347 70.1807 157.197 70.38 155.265C70.5947 153.103 74.1827 153.533 73.2167 150.681C72.7107 149.193 71.4227 148.595 72.496 147.215C73.1247 146.418 74.5813 146.418 75.4553 146.265C75.6853 146.219 75.946 146.173 76.0073 145.82C76.038 145.559 75.9153 145.314 75.716 145.161C74.6887 144.425 73.7687 143.52 72.9867 142.493C72.4807 141.849 72.0207 141.082 72.7107 140.009C72.8947 139.733 73.14 139.503 73.416 139.319C77.188 136.942 73.9373 137.54 72.22 135.439C70.5027 133.339 72.7413 132.695 74.888 131.361C70.058 126.776 68.4633 128.877 75.5167 123.449C74.428 121.593 70.1807 122.207 70.702 119.201C76.3447 115.353 74.796 114.11 71.3153 112.408C70.8093 112.163 70.7787 111.396 71.254 111.105C82.8307 103.852 62.7593 103.684 75.0873 98.9459C79.3653 94.4532 66.1173 95.6492 74.612 89.5925C75.2407 89.1479 75.302 88.1819 74.75 87.6452C64.8447 77.8165 84.594 85.0385 71.2693 74.1979C70.8093 73.8299 70.9013 73.0479 71.4227 72.8179C84.594 66.8992 59.8613 63.2192 73.7227 61.3025C75.4247 61.0725 74.4433 59.2785 73.83 58.3739C73.094 57.3159 69.874 54.4639 70.5333 52.9459C70.9933 51.8725 73.784 51.5812 74.704 51.2745C75.532 50.9985 72.2507 46.3065 70.8093 44.2672C70.4413 43.7459 70.6253 43.0099 71.162 42.7339C71.6067 42.5192 72.0667 42.3352 72.5267 42.1359C73.3393 41.7679 74.152 41.2925 74.5967 40.4799C76.6513 36.7692 68.678 37.3059 69.828 33.5952C70.288 32.0925 72.0053 31.3105 72.726 29.9612C73.324 28.8572 73.048 27.7532 72.312 26.8179C62.2073 15.2565 80.8527 26.5265 70.196 9.38385C69.9813 9.03118 70.1807 8.55585 70.564 8.50985C75.5167 7.75852 73.37 2.98985 70.9473 -0.168816C70.7173 -0.460149 70.84 -0.904816 71.1927 -1.02748C75.348 -2.42282 72.3733 -4.33948 70.702 -7.36015C70.0887 -10.5801 76.0073 -10.0895 73.8913 -13.0641C68.448 -20.3168 76.4367 -19.3815 76.5287 -23.5368" stroke="#262929" stroke-width="0.37" stroke-miterlimit="10"/>
<path d="M80.6688 187.941C77.0501 184.414 77.1268 182.037 82.2481 181.424C80.6381 181.623 78.4608 175.536 78.9208 173.957C79.6874 171.304 83.8428 170.614 80.4848 166.382C80.2088 166.029 79.8868 165.707 79.5648 165.385C78.5834 164.419 77.6174 162.733 78.1694 161.307C78.7061 159.911 80.3161 159.298 80.5614 157.719C80.9294 155.342 78.1848 154.192 78.3841 152.26C78.5988 150.098 82.1868 150.527 81.2208 147.675C80.7148 146.188 79.4268 145.59 80.5001 144.21C81.1288 143.413 82.5854 143.413 83.4594 143.259C83.6894 143.213 83.9501 143.167 84.0114 142.815C84.0421 142.554 83.9194 142.309 83.7201 142.155C82.6927 141.419 81.7728 140.515 80.9908 139.487C80.4848 138.843 80.0248 138.077 80.7148 137.003C80.8988 136.727 81.1441 136.497 81.4201 136.313C85.1921 133.937 81.9414 134.535 80.2241 132.434C78.5068 130.333 80.7454 129.689 82.8921 128.355C78.0621 123.771 76.4674 125.871 83.5208 120.443C82.4321 118.588 78.1848 119.201 78.7061 116.196C84.3488 112.347 82.8001 111.105 79.3194 109.403C78.8134 109.158 78.7828 108.391 79.2581 108.1C90.8348 100.847 70.7634 100.679 83.0914 95.9406C87.3694 91.4479 74.1214 92.6439 82.6161 86.5872C83.2448 86.1426 83.3061 85.1766 82.7541 84.6399C72.8488 74.8113 92.5981 82.0332 79.2734 71.1926C78.8134 70.8246 78.9054 70.0426 79.4268 69.8126C92.5981 63.8939 67.8654 60.2139 81.7268 58.2973C83.4288 58.0673 82.4474 56.2732 81.8341 55.3686C81.0981 54.3106 77.8781 51.4586 78.5374 49.9406C78.9974 48.8672 81.7881 48.5759 82.7081 48.2693C83.5361 47.9933 80.2548 43.3013 78.8134 41.2619C78.4454 40.7406 78.6294 40.0046 79.1661 39.7286C79.6108 39.5139 80.0708 39.3299 80.5308 39.1306C81.3434 38.7626 82.1561 38.2873 82.6008 37.4746C84.6554 33.7639 76.6821 34.3006 77.8321 30.5899C78.2921 29.0873 80.0094 28.3053 80.7301 26.9559C81.3281 25.8519 81.0521 24.7479 80.3161 23.8126C70.2114 12.2513 88.8568 23.5213 78.2001 6.37858C77.9854 6.02591 78.1848 5.55058 78.5681 5.50458C83.5208 4.75324 81.3741 -0.0154263 78.9514 -3.17409C78.7214 -3.46542 78.8441 -3.91009 79.1968 -4.03276C83.3521 -5.42809 80.3774 -7.34476 78.7061 -10.3654C78.0928 -13.5854 84.0114 -13.0947 81.8954 -16.0694C76.4521 -23.3221 84.4408 -22.3867 84.5328 -26.5421" stroke="#262929" stroke-width="0.37" stroke-miterlimit="10"/>
<path d="M89.1634 178.449C85.5447 174.922 85.6214 172.546 90.7427 171.932C89.1327 172.132 86.9553 166.045 87.4153 164.465C88.182 161.813 92.3373 161.122 88.9793 156.89C88.7033 156.538 88.3814 156.216 88.0594 155.894C87.078 154.928 86.112 153.241 86.664 151.815C87.2007 150.42 88.8107 149.806 89.056 148.227C89.424 145.85 86.6794 144.7 86.8787 142.768C87.0934 140.606 90.6813 141.036 89.7153 138.184C89.2093 136.696 87.9214 136.098 88.9947 134.718C89.6234 133.921 91.08 133.921 91.954 133.768C92.184 133.722 92.4447 133.676 92.506 133.323C92.5367 133.062 92.414 132.817 92.2147 132.664C91.1874 131.928 90.2674 131.023 89.4854 129.996C88.9794 129.352 88.5194 128.585 89.2094 127.512C89.3934 127.236 89.6387 127.006 89.9147 126.822C93.6867 124.445 90.436 125.043 88.7187 122.942C87.0014 120.842 89.24 120.198 91.3867 118.864C86.5567 114.279 84.962 116.38 92.0153 110.952C90.9267 109.096 86.6794 109.71 87.2007 106.704C92.8434 102.856 91.2947 101.614 87.814 99.9118C87.308 99.6665 87.2774 98.8998 87.7527 98.6085C99.3294 91.3558 79.258 91.1872 91.586 86.4492C95.864 81.9565 82.616 83.1525 91.1107 77.0958C91.7393 76.6512 91.8007 75.6852 91.2487 75.1485C81.3433 65.3198 101.093 72.5418 87.768 61.7012C87.308 61.3332 87.4 60.5512 87.9214 60.3212C101.093 54.4025 76.36 50.7225 90.2214 48.8058C91.9234 48.5758 90.942 46.7818 90.3287 45.8772C89.5927 44.8192 86.3727 41.9672 87.032 40.4492C87.492 39.3758 90.2827 39.0845 91.2027 38.7778C92.0307 38.5018 88.7493 33.8098 87.308 31.7705C86.94 31.2492 87.124 30.5132 87.6607 30.2372C88.1053 30.0225 88.5654 29.8385 89.0254 29.6392C89.838 29.2712 90.6507 28.7958 91.0954 27.9832C93.15 24.2725 85.1767 24.8092 86.3267 21.0985C86.7867 19.5958 88.504 18.8138 89.2247 17.4645C89.8227 16.3605 89.5467 15.2565 88.8107 14.3212C78.706 2.75982 97.3514 14.0298 86.6947 -3.11285C86.48 -3.46552 86.6794 -3.94085 87.0627 -3.98685C92.0153 -4.73818 89.8687 -9.50685 87.446 -12.6655C87.216 -12.9568 87.3387 -13.4015 87.6913 -13.5242C91.8467 -14.9195 88.872 -16.8362 87.2007 -19.8568C86.5874 -23.0768 92.506 -22.5862 90.39 -25.5608C84.9467 -32.8135 92.9353 -31.8782 93.0273 -36.0335" stroke="#262929" stroke-width="0.37" stroke-miterlimit="10"/>
<path d="M97.152 178.449C93.5333 174.922 93.61 172.546 98.7313 171.932C97.1213 172.132 94.944 166.045 95.404 164.465C96.1707 161.813 100.326 161.122 96.968 156.89C96.692 156.538 96.37 156.216 96.048 155.894C95.0667 154.928 94.1007 153.241 94.6527 151.815C95.1893 150.42 96.7993 149.806 97.0447 148.227C97.4127 145.85 94.668 144.7 94.8673 142.768C95.082 140.606 98.67 141.036 97.704 138.184C97.198 136.696 95.91 136.098 96.9833 134.718C97.612 133.921 99.0687 133.921 99.9427 133.768C100.173 133.722 100.433 133.676 100.495 133.323C100.525 133.062 100.403 132.817 100.203 132.664C99.176 131.928 98.256 131.023 97.474 129.996C96.968 129.352 96.508 128.585 97.198 127.512C97.382 127.236 97.6273 127.006 97.9033 126.822C101.675 124.445 98.4247 125.043 96.7073 122.942C94.99 120.842 97.2287 120.198 99.3753 118.864C94.5453 114.279 92.9507 116.38 100.004 110.952C98.9153 109.096 94.668 109.71 95.1893 106.704C100.832 102.856 99.2833 101.614 95.8027 99.9118C95.2967 99.6665 95.266 98.8998 95.7413 98.6085C107.318 91.3558 87.2467 91.1872 99.5747 86.4492C103.853 81.9565 90.6047 83.1525 99.0993 77.0958C99.728 76.6512 99.7893 75.6852 99.2373 75.1485C89.332 65.3198 109.081 72.5418 95.7567 61.7012C95.2967 61.3332 95.3887 60.5512 95.91 60.3212C109.081 54.4025 84.3487 50.7225 98.21 48.8058C99.912 48.5758 98.9307 46.7818 98.3173 45.8772C97.5813 44.8192 94.3613 41.9672 95.0207 40.4492C95.4807 39.3758 98.2713 39.0845 99.1913 38.7778C100.019 38.5018 96.738 33.8098 95.2967 31.7705C94.9287 31.2492 95.1127 30.5132 95.6493 30.2372C96.094 30.0225 96.554 29.8385 97.014 29.6392C97.8267 29.2712 98.6393 28.7958 99.084 27.9832C101.139 24.2725 93.1653 24.8092 94.3153 21.0985C94.7753 19.5958 96.4927 18.8138 97.2133 17.4645C97.8113 16.3605 97.5353 15.2565 96.7993 14.3212C86.6947 2.75982 105.34 14.0298 94.6833 -3.11285C94.4687 -3.46552 94.668 -3.94085 95.0513 -3.98685C100.004 -4.73818 97.8573 -9.50685 95.4347 -12.6655C95.2047 -12.9568 95.3273 -13.4015 95.68 -13.5242C99.8353 -14.9195 96.8607 -16.8362 95.1893 -19.8568C94.576 -23.0768 100.495 -22.5862 98.3787 -25.5608C92.9353 -32.8135 100.924 -31.8782 101.016 -36.0335" stroke="#262929" stroke-width="0.37" stroke-miterlimit="10"/>
<path d="M104.65 180.841C101.031 177.315 101.108 174.938 106.229 174.325C104.619 174.524 102.442 168.437 102.902 166.857C103.669 164.205 107.824 163.515 104.466 159.283C104.19 158.93 103.868 158.608 103.546 158.286C102.565 157.32 101.599 155.633 102.151 154.207C102.687 152.812 104.297 152.199 104.543 150.619C104.911 148.243 102.166 147.093 102.365 145.161C102.58 142.999 106.168 143.428 105.202 140.576C104.696 139.089 103.408 138.491 104.481 137.111C105.11 136.313 106.567 136.313 107.441 136.16C107.671 136.114 107.931 136.068 107.993 135.715C108.023 135.455 107.901 135.209 107.701 135.056C106.674 134.32 105.754 133.415 104.972 132.388C104.466 131.744 104.006 130.977 104.696 129.904C104.88 129.628 105.125 129.398 105.401 129.214C109.173 126.837 105.923 127.435 104.205 125.335C102.565 123.326 104.727 122.59 106.873 121.256C102.043 116.671 100.449 118.772 107.502 113.344C106.413 111.489 102.166 112.102 102.687 109.097C108.33 105.248 106.781 104.006 103.301 102.304C102.795 102.059 102.764 101.292 103.239 101.001C114.816 93.7479 94.7447 93.5792 107.073 88.8412C111.351 84.3486 98.1027 85.5446 106.597 79.4879C107.226 79.0432 107.287 78.0772 106.735 77.5406C96.83 67.7119 116.579 74.9339 103.255 64.0932C102.795 63.7252 102.887 62.9432 103.408 62.7132C116.579 56.7946 91.8467 53.1146 105.708 51.1979C107.41 50.9679 106.429 49.1739 105.815 48.2692C105.079 47.2112 101.859 44.3592 102.519 42.8412C102.979 41.7679 105.769 41.4766 106.689 41.1699C107.517 40.8939 104.236 36.2019 102.795 34.1626C102.427 33.6412 102.611 32.9052 103.147 32.6292C103.592 32.4146 104.052 32.2306 104.512 32.0312C105.325 31.6632 106.137 31.1879 106.582 30.3752C108.637 26.6646 100.663 27.2012 101.813 23.4906C102.273 21.9879 103.991 21.2059 104.711 19.8566C105.309 18.7526 105.033 17.6486 104.297 16.7132C94.1927 5.15189 112.838 16.4219 102.181 -0.720772C101.967 -1.07344 102.166 -1.54877 102.549 -1.59477C107.502 -2.3461 105.355 -7.11477 102.933 -10.2734C102.703 -10.5648 102.825 -11.0094 103.178 -11.1321C107.333 -12.5274 104.359 -14.4441 102.687 -17.4648C102.074 -20.6848 107.993 -20.1941 105.877 -23.1688C100.433 -30.4214 108.422 -29.4861 108.514 -33.6414" stroke="#262929" stroke-width="0.37" stroke-miterlimit="10"/>
<path d="M112.654 177.836C109.035 174.309 109.112 171.933 114.233 171.319C112.623 171.519 110.446 165.431 110.906 163.852C111.673 161.199 115.828 160.509 112.47 156.277C112.194 155.925 111.872 155.603 111.55 155.281C110.569 154.315 109.603 152.628 110.155 151.202C110.691 149.807 112.301 149.193 112.547 147.614C112.915 145.237 110.17 144.087 110.369 142.155C110.584 139.993 114.172 140.423 113.206 137.571C112.7 136.083 111.412 135.485 112.485 134.105C113.114 133.308 114.571 133.308 115.445 133.155C115.675 133.109 115.935 133.063 115.997 132.71C116.027 132.449 115.905 132.204 115.705 132.051C114.678 131.315 113.758 130.41 112.976 129.383C112.47 128.739 112.01 127.972 112.7 126.899C112.884 126.623 113.129 126.393 113.405 126.209C117.177 123.832 113.927 124.43 112.209 122.329C110.569 120.321 112.731 119.585 114.877 118.251C110.047 113.666 108.453 115.767 115.506 110.339C114.417 108.483 110.17 109.097 110.691 106.091C116.334 102.243 114.785 101.001 111.305 99.2986C110.799 99.0533 110.768 98.2866 111.243 97.9953C122.82 90.7426 102.749 90.574 115.077 85.836C119.355 81.3433 106.107 82.5393 114.601 76.4826C115.23 76.038 115.291 75.072 114.739 74.5353C104.834 64.7066 124.583 71.9286 111.259 61.088C110.799 60.72 110.891 59.938 111.412 59.708C124.583 53.7893 99.8508 50.1093 113.712 48.1926C115.414 47.9626 114.433 46.1686 113.819 45.264C113.083 44.206 109.863 41.354 110.523 39.836C110.983 38.7626 113.773 38.4713 114.693 38.1646C115.521 37.8886 112.24 33.1966 110.799 31.1573C110.431 30.636 110.615 29.9 111.151 29.624C111.596 29.4093 112.056 29.2253 112.516 29.026C113.329 28.658 114.141 28.1826 114.586 27.37C116.641 23.6593 108.667 24.196 109.817 20.4853C110.277 18.9826 111.995 18.2006 112.715 16.8513C113.313 15.7473 113.037 14.6433 112.301 13.708C102.197 2.14661 120.842 13.4166 110.185 -3.72606C109.971 -4.07871 110.17 -4.55404 110.553 -4.60004C115.506 -5.35139 113.359 -10.12 110.937 -13.2787C110.707 -13.57 110.829 -14.0147 111.182 -14.1374C115.337 -15.5327 112.363 -17.4494 110.691 -20.47C110.078 -23.69 115.997 -23.1994 113.881 -26.174C108.437 -33.4267 116.426 -32.4914 116.518 -36.6467" stroke="#262929" stroke-width="0.37" stroke-miterlimit="10"/>
<path d="M121.149 168.345C117.53 164.818 117.607 162.441 122.728 161.828C121.118 162.027 118.941 155.94 119.401 154.361C120.167 151.708 124.323 151.018 120.965 146.786C120.689 146.433 120.367 146.111 120.045 145.789C119.063 144.823 118.097 143.137 118.649 141.711C119.186 140.315 120.796 139.702 121.041 138.123C121.409 135.746 118.665 134.596 118.864 132.664C119.079 130.502 122.667 130.931 121.701 128.079C121.195 126.592 119.907 125.994 120.98 124.614C121.609 123.817 123.065 123.817 123.939 123.663C124.169 123.617 124.43 123.571 124.491 123.219C124.522 122.958 124.399 122.713 124.2 122.559C123.173 121.823 122.253 120.919 121.471 119.891C120.965 119.247 120.505 118.481 121.195 117.407C121.379 117.131 121.624 116.901 121.9 116.717C125.672 114.341 122.421 114.938 120.704 112.838C118.987 110.737 121.225 110.093 123.372 108.759C118.542 104.174 116.947 106.275 124.001 100.847C122.912 98.9919 118.665 99.6052 119.186 96.5999C124.829 92.7512 123.28 91.5092 119.799 89.8072C119.293 89.5619 119.263 88.7952 119.738 88.5039C131.315 81.2512 111.243 81.0825 123.571 76.3445C127.849 71.8519 114.601 73.0479 123.096 66.9912C123.725 66.5465 123.786 65.5805 123.234 65.0439C113.329 55.2152 133.078 62.4372 119.753 51.5965C119.293 51.2285 119.385 50.4465 119.907 50.2165C133.078 44.2979 108.345 40.6179 122.207 38.7012C123.909 38.4712 122.927 36.6772 122.314 35.7725C121.578 34.7145 118.358 31.8625 119.017 30.3445C119.477 29.2712 122.268 28.9799 123.188 28.6732C124.016 28.3972 120.735 23.7052 119.293 21.6659C118.925 21.1445 119.109 20.4085 119.646 20.1325C120.091 19.9179 120.551 19.7339 121.011 19.5345C121.823 19.1665 122.636 18.6912 123.081 17.8785C125.135 14.1679 117.162 14.7045 118.312 10.9939C118.772 9.49119 120.489 8.70918 121.21 7.35985C121.808 6.25585 121.532 5.15185 120.796 4.21652C110.691 -7.34482 129.337 3.92519 118.68 -13.2175C118.465 -13.5701 118.665 -14.0455 119.048 -14.0915C124.001 -14.8428 121.854 -19.6115 119.431 -22.7701C119.201 -23.0615 119.324 -23.5061 119.677 -23.6288C123.832 -25.0241 120.857 -26.9408 119.186 -29.9615C118.573 -33.1815 124.491 -32.6908 122.375 -35.6655C116.932 -42.9181 124.921 -41.9828 125.013 -46.1381" stroke="#262929" stroke-width="0.37" stroke-miterlimit="10"/>
<path d="M129.137 168.345C125.519 164.818 125.595 162.441 130.717 161.828C129.107 162.027 126.929 155.94 127.389 154.361C128.156 151.708 132.311 151.018 128.953 146.786C128.677 146.433 128.355 146.111 128.033 145.789C127.052 144.823 126.086 143.137 126.638 141.711C127.175 140.315 128.785 139.702 129.03 138.123C129.398 135.746 126.653 134.596 126.853 132.664C127.067 130.502 130.655 130.931 129.689 128.079C129.183 126.592 127.895 125.994 128.969 124.614C129.597 123.817 131.054 123.817 131.928 123.663C132.158 123.617 132.419 123.571 132.48 123.219C132.511 122.958 132.388 122.713 132.189 122.559C131.161 121.823 130.241 120.919 129.459 119.891C128.953 119.247 128.493 118.481 129.183 117.407C129.367 117.131 129.613 116.901 129.889 116.717C133.661 114.341 130.41 114.938 128.693 112.838C126.975 110.737 129.214 110.093 131.361 108.759C126.531 104.174 124.936 106.275 131.989 100.847C130.901 98.9919 126.653 99.6052 127.175 96.5999C132.817 92.7512 131.269 91.5092 127.788 89.8072C127.282 89.5619 127.251 88.7952 127.727 88.5039C139.303 81.2512 119.232 81.0825 131.56 76.3445C135.838 71.8519 122.59 73.0479 131.085 66.9912C131.713 66.5465 131.775 65.5805 131.223 65.0439C121.317 55.2152 141.067 62.4372 127.742 51.5965C127.282 51.2285 127.374 50.4465 127.895 50.2165C141.067 44.2979 116.334 40.6179 130.195 38.7012C131.897 38.4712 130.916 36.6772 130.303 35.7725C129.567 34.7145 126.347 31.8625 127.006 30.3445C127.466 29.2712 130.257 28.9799 131.177 28.6732C132.005 28.3972 128.723 23.7052 127.282 21.6659C126.914 21.1445 127.098 20.4085 127.635 20.1325C128.079 19.9179 128.539 19.7339 128.999 19.5345C129.812 19.1665 130.625 18.6912 131.069 17.8785C133.124 14.1679 125.151 14.7045 126.301 10.9939C126.761 9.49119 128.478 8.70918 129.199 7.35985C129.797 6.25585 129.521 5.15185 128.785 4.21652C118.68 -7.34482 137.325 3.92519 126.669 -13.2175C126.454 -13.5701 126.653 -14.0455 127.037 -14.0915C131.989 -14.8428 129.843 -19.6115 127.42 -22.7701C127.19 -23.0615 127.313 -23.5061 127.665 -23.6288C131.821 -25.0241 128.846 -26.9408 127.175 -29.9615C126.561 -33.1815 132.48 -32.6908 130.364 -35.6655C124.921 -42.9181 132.909 -41.9828 133.001 -46.1381" stroke="#262929" stroke-width="0.37" stroke-miterlimit="10"/>
</g>
<rect x="0.5" y="0.5" width="137" height="137" rx="68.5" stroke="#6B6B6B"/>
<defs>
<clipPath id="clip0_6_76">
<rect width="138" height="138" rx="69" fill="white"/>
</clipPath>
</defs>
</svg>
