<svg width="138" height="138" viewBox="0 0 138 138" fill="none" xmlns="http://www.w3.org/2000/svg">
<g clip-path="url(#clip0_6_51)">
<path d="M13.984 8.23418C20.5313 11.5002 21.4053 20.1022 19.2587 26.7262C17.112 33.3502 12.88 39.4375 12.0827 46.3068C10.7027 58.4048 20.286 70.0428 18.078 82.0335C16.8973 88.4275 12.5273 93.8402 9.44534 99.6515C3.05134 111.673 2.20801 126.163 7.14534 138.767" stroke="#262929" stroke-width="0.33" stroke-miterlimit="10"/>
<path d="M98.9 -11.7145C105.754 -8.7245 107.471 0.475495 106.015 7.78949C104.543 15.1035 100.924 21.9881 100.832 29.4708C100.663 42.6115 111.381 54.4028 110.369 67.4821C109.833 74.4588 106.03 80.6381 103.531 87.1548C98.3633 100.633 98.9613 116.303 105.156 129.505" stroke="#262929" stroke-width="0.33" stroke-miterlimit="10"/>
<path d="M23.3834 5.59671C29.8694 15.5634 32.3534 27.738 30.2374 39.238C29.0414 45.7087 26.45 51.9954 26.45 58.558C26.45 68.9387 32.936 78.9974 30.912 89.194C29.2714 97.474 22.356 103.945 19.1207 111.811C15.41 120.842 17.066 131.621 23.3374 139.319" stroke="#262929" stroke-width="0.33" stroke-miterlimit="10"/>
<path d="M119.385 12.1592C125.335 22.4172 127.175 34.6992 124.43 46.0766C122.897 52.4859 119.968 58.6499 119.615 65.1972C119.063 75.5626 125.013 85.9126 122.452 96.0019C120.367 104.19 113.114 110.339 109.465 118.036C105.279 126.883 106.352 137.724 112.209 145.697" stroke="#262929" stroke-width="0.33" stroke-miterlimit="10"/>
<path d="M38.1034 2.8677C44.1907 12.6198 44.1294 24.6563 42.5654 35.8498C40.986 47.043 38.088 58.221 39.1154 69.4758C40.02 79.4118 43.9914 89.041 43.9607 99.0077C43.9147 111.673 37.4134 124.139 39.698 136.636" stroke="#262929" stroke-width="0.33" stroke-miterlimit="10"/>
<path d="M54.142 4.95264C61.0114 10.442 61.3487 20.24 59.6773 28.52C58.006 36.8 54.8627 45.218 56.718 53.4826C58.2514 60.306 63.112 66.3013 63.94 73.232C65.1973 83.7353 56.9633 93.84 58.7113 104.282C59.6467 109.909 63.4033 114.847 64.5533 120.443C66.01 127.589 63.0507 134.811 60.1374 141.573" stroke="#262929" stroke-width="0.33" stroke-miterlimit="10"/>
<path d="M69.0767 1.94736C74.9953 8.55603 77.51 17.6947 75.7313 26.1587C74.1367 33.8254 69.2453 40.9094 69.4447 48.714C69.828 62.8667 86.802 74.9647 82.2633 88.4734C80.6687 93.196 76.59 96.9834 75.256 101.783C73.2933 108.836 77.6633 115.874 80.8527 122.513C84.0573 129.153 85.7287 138 79.9327 142.876" stroke="#262929" stroke-width="0.33" stroke-miterlimit="10"/>
<path d="M82.57 -0.843409C88.4887 5.76526 91.0033 14.9039 89.2247 23.3679C87.63 31.0346 82.7387 38.1186 82.938 45.9233C83.3213 60.0759 100.295 72.1739 95.7567 85.6826C94.162 90.4053 90.0833 94.1926 88.7493 98.9919C86.7867 106.045 91.1567 113.083 94.346 119.723C97.5507 126.362 99.222 135.209 93.426 140.085" stroke="#262929" stroke-width="0.33" stroke-miterlimit="10"/>
</g>
<rect x="0.5" y="0.5" width="137" height="137" rx="68.5" stroke="#6B6B6B"/>
<defs>
<clipPath id="clip0_6_51">
<rect width="138" height="138" rx="69" fill="white"/>
</clipPath>
</defs>
</svg>
