<svg width="138" height="138" viewBox="0 0 138 138" fill="none" xmlns="http://www.w3.org/2000/svg">
<path d="M32.8134 80.2549C38.8683 80.2549 43.7768 75.3465 43.7768 69.2915C43.7768 63.2367 38.8683 58.3282 32.8134 58.3282C26.7585 58.3282 21.8501 63.2367 21.8501 69.2915C21.8501 75.3465 26.7585 80.2549 32.8134 80.2549Z" stroke="#262929" stroke-width="2.75" stroke-miterlimit="10"/>
<path d="M68.9999 80.2549C75.0548 80.2549 79.9632 75.3465 79.9632 69.2915C79.9632 63.2367 75.0548 58.3282 68.9999 58.3282C62.945 58.3282 58.0366 63.2367 58.0366 69.2915C58.0366 75.3465 62.945 80.2549 68.9999 80.2549Z" stroke="#262929" stroke-width="2.75" stroke-miterlimit="10"/>
<path d="M105.187 80.2549C111.242 80.2549 116.15 75.3465 116.15 69.2915C116.15 63.2367 111.242 58.3282 105.187 58.3282C99.1319 58.3282 94.2234 63.2367 94.2234 69.2915C94.2234 75.3465 99.1319 80.2549 105.187 80.2549Z" stroke="#262929" stroke-width="2.75" stroke-miterlimit="10"/>
<rect x="0.5" y="0.5" width="137" height="137" rx="68.5" stroke="#6B6B6B"/>
</svg>
