<svg width="138" height="138" viewBox="0 0 138 138" fill="none" xmlns="http://www.w3.org/2000/svg">
<path d="M42.044 72.9867C42.044 78.0774 37.9193 82.202 32.8287 82.202C27.738 82.202 23.6133 78.0774 23.6133 72.9867C23.6133 65.9487 32.8287 54.2954 32.8287 54.2954C32.8287 54.2954 42.044 65.458 42.044 72.9867Z" fill="#262929" stroke="#262929" stroke-width="2.75" stroke-miterlimit="10"/>
<path d="M77.8167 72.9867C77.8167 78.0774 73.692 82.202 68.6014 82.202C63.5107 82.202 59.386 78.0774 59.386 72.9867C59.386 65.9487 68.6014 54.2954 68.6014 54.2954C68.6014 54.2954 77.8167 65.458 77.8167 72.9867Z" fill="#262929" stroke="#262929" stroke-width="2.75" stroke-miterlimit="10"/>
<path d="M113.589 72.9867C113.589 78.0774 109.465 82.202 104.374 82.202C99.2834 82.202 95.1587 78.0774 95.1587 72.9867C95.1587 65.9487 104.374 54.2954 104.374 54.2954C104.374 54.2954 113.589 65.458 113.589 72.9867Z" fill="#262929" stroke="#262929" stroke-width="2.75" stroke-miterlimit="10"/>
<rect x="0.5" y="0.5" width="137" height="137" rx="68.5" stroke="#6B6B6B"/>
</svg>
